STARTFONT 2.1
FONT -Firefly-Firefly New Sung-Medium-R-Normal--14-100-100-100-P-139-ISO10646-1
SIZE 10 100 100
FONTBOUNDINGBOX 14 15 -1 -2
STARTPROPERTIES 27
FONT_NAME "Firefly-New-Sung"
FONT_ASCENT 12
FONT_DESCENT 2
UNDERLINE_POSITION -74
UNDERLINE_THICKNESS 50
QUAD_WIDTH 14
X_HEIGHT 6
CAP_HEIGHT 9
DEFAULT_CHAR 0
FONTNAME_REGISTRY ""
FAMILY_NAME "Firefly New Sung"
FOUNDRY "Firefly"
WEIGHT_NAME "Medium"
SETWIDTH_NAME "Normal"
SLANT "R"
ADD_STYLE_NAME ""
PIXEL_SIZE 14
POINT_SIZE 100
RESOLUTION_X 100
RESOLUTION_Y 100
RESOLUTION 100
SPACING "P"
AVERAGE_WIDTH 139
CHARSET_REGISTRY "ISO10646"
CHARSET_ENCODING "-1"
CHARSET_COLLECTIONS "ASCII ISO8859-5 JISX0208.1997 GB2312.1980 BIG5 ISO10646-1"
FULL_NAME "Firefly New Sung"
ENDPROPERTIES
CHARS 17357
STARTCHAR .notdef
ENCODING 0
SWIDTH 500 0
DWIDTH 7 0
BBX 5 10 0 0
BITMAP
F8
88
88
88
88
88
88
88
88
F8
ENDCHAR
STARTCHAR nounicode-3-1-c
ENCODING 12
SWIDTH 333 0
DWIDTH 7 0
BBX 1 1 0 0
BITMAP
00
ENDCHAR
STARTCHAR nounicode-3-1-d
ENCODING 13
SWIDTH 333 0
DWIDTH 4 0
BBX 1 1 3 -2
BITMAP
00
ENDCHAR
STARTCHAR space
ENCODING 32
SWIDTH 500 0
DWIDTH 7 0
BBX 1 1 0 0
BITMAP
00
ENDCHAR
STARTCHAR exclam
ENCODING 33
SWIDTH 500 0
DWIDTH 7 0
BBX 1 12 3 -1
BITMAP
80
80
80
80
80
80
80
80
00
00
80
80
ENDCHAR
STARTCHAR quotedbl
ENCODING 34
SWIDTH 500 0
DWIDTH 7 0
BBX 5 3 1 9
BITMAP
D8
48
90
ENDCHAR
STARTCHAR numbersign
ENCODING 35
SWIDTH 500 0
DWIDTH 7 0
BBX 6 11 0 0
BITMAP
48
48
48
FC
48
48
48
FC
90
90
90
ENDCHAR
STARTCHAR dollar
ENCODING 36
SWIDTH 500 0
DWIDTH 7 0
BBX 6 12 0 -1
BITMAP
20
78
A4
A0
A0
70
28
24
A4
A4
78
20
ENDCHAR
STARTCHAR percent
ENCODING 37
SWIDTH 500 0
DWIDTH 7 0
BBX 6 12 0 -1
BITMAP
44
A4
A8
A8
B0
50
28
34
54
54
94
88
ENDCHAR
STARTCHAR ampersand
ENCODING 38
SWIDTH 500 0
DWIDTH 7 0
BBX 6 10 0 0
BITMAP
30
48
48
50
20
60
94
88
88
74
ENDCHAR
STARTCHAR quotesingle
ENCODING 39
SWIDTH 500 0
DWIDTH 7 0
BBX 2 3 3 9
BITMAP
C0
40
80
ENDCHAR
STARTCHAR parenleft
ENCODING 40
SWIDTH 500 0
DWIDTH 7 0
BBX 3 12 2 -1
BITMAP
20
40
40
80
80
80
80
80
80
40
40
20
ENDCHAR
STARTCHAR parenright
ENCODING 41
SWIDTH 500 0
DWIDTH 7 0
BBX 3 12 2 -1
BITMAP
80
40
40
20
20
20
20
20
20
40
40
80
ENDCHAR
STARTCHAR asterisk
ENCODING 42
SWIDTH 500 0
DWIDTH 7 0
BBX 5 7 1 2
BITMAP
20
A8
70
20
70
A8
20
ENDCHAR
STARTCHAR plus
ENCODING 43
SWIDTH 500 0
DWIDTH 7 0
BBX 5 7 1 2
BITMAP
20
20
20
F8
20
20
20
ENDCHAR
STARTCHAR comma
ENCODING 44
SWIDTH 500 0
DWIDTH 7 0
BBX 2 4 2 -2
BITMAP
C0
C0
40
80
ENDCHAR
STARTCHAR hyphen
ENCODING 45
SWIDTH 500 0
DWIDTH 7 0
BBX 6 1 0 5
BITMAP
FC
ENDCHAR
STARTCHAR period
ENCODING 46
SWIDTH 500 0
DWIDTH 7 0
BBX 2 2 1 -1
BITMAP
C0
C0
ENDCHAR
STARTCHAR slash
ENCODING 47
SWIDTH 500 0
DWIDTH 7 0
BBX 6 12 0 -1
BITMAP
04
04
08
08
10
10
20
20
40
40
80
80
ENDCHAR
STARTCHAR zero
ENCODING 48
SWIDTH 500 0
DWIDTH 7 0
BBX 6 10 0 0
BITMAP
30
48
84
84
84
84
84
84
48
30
ENDCHAR
STARTCHAR one
ENCODING 49
SWIDTH 500 0
DWIDTH 7 0
BBX 5 10 1 0
BITMAP
20
60
A0
20
20
20
20
20
20
F8
ENDCHAR
STARTCHAR two
ENCODING 50
SWIDTH 500 0
DWIDTH 7 0
BBX 6 10 0 0
BITMAP
78
84
84
04
08
10
20
40
84
FC
ENDCHAR
STARTCHAR three
ENCODING 51
SWIDTH 500 0
DWIDTH 7 0
BBX 6 10 0 0
BITMAP
78
84
84
08
30
08
04
84
84
78
ENDCHAR
STARTCHAR four
ENCODING 52
SWIDTH 500 0
DWIDTH 7 0
BBX 6 10 0 0
BITMAP
08
18
28
28
48
48
88
FC
08
1C
ENDCHAR
STARTCHAR five
ENCODING 53
SWIDTH 500 0
DWIDTH 7 0
BBX 5 10 1 0
BITMAP
F8
80
80
B0
C8
08
08
88
88
70
ENDCHAR
STARTCHAR six
ENCODING 54
SWIDTH 500 0
DWIDTH 7 0
BBX 6 10 0 0
BITMAP
38
44
80
80
B8
C4
84
84
44
38
ENDCHAR
STARTCHAR seven
ENCODING 55
SWIDTH 500 0
DWIDTH 7 0
BBX 6 10 0 0
BITMAP
FC
84
04
08
08
10
10
10
10
10
ENDCHAR
STARTCHAR eight
ENCODING 56
SWIDTH 500 0
DWIDTH 7 0
BBX 6 10 0 0
BITMAP
78
84
84
48
30
48
84
84
84
78
ENDCHAR
STARTCHAR nine
ENCODING 57
SWIDTH 500 0
DWIDTH 7 0
BBX 6 10 0 0
BITMAP
70
88
84
84
8C
74
04
84
88
70
ENDCHAR
STARTCHAR colon
ENCODING 58
SWIDTH 500 0
DWIDTH 7 0
BBX 2 7 2 1
BITMAP
C0
C0
00
00
00
C0
C0
ENDCHAR
STARTCHAR semicolon
ENCODING 59
SWIDTH 500 0
DWIDTH 7 0
BBX 2 9 2 -1
BITMAP
C0
C0
00
00
00
C0
C0
40
80
ENDCHAR
STARTCHAR less
ENCODING 60
SWIDTH 500 0
DWIDTH 7 0
BBX 6 11 0 -1
BITMAP
04
08
10
20
40
80
40
20
10
08
04
ENDCHAR
STARTCHAR equal
ENCODING 61
SWIDTH 500 0
DWIDTH 7 0
BBX 6 4 0 3
BITMAP
FC
00
00
FC
ENDCHAR
STARTCHAR greater
ENCODING 62
SWIDTH 500 0
DWIDTH 7 0
BBX 6 11 0 -1
BITMAP
80
40
20
10
08
04
08
10
20
40
80
ENDCHAR
STARTCHAR question
ENCODING 63
SWIDTH 500 0
DWIDTH 7 0
BBX 6 12 0 -1
BITMAP
78
84
84
84
08
10
10
20
20
00
20
20
ENDCHAR
STARTCHAR at
ENCODING 64
SWIDTH 500 0
DWIDTH 7 0
BBX 7 12 0 -1
BITMAP
38
44
5A
AA
CA
CA
CA
CA
D4
A8
44
38
ENDCHAR
STARTCHAR A
ENCODING 65
SWIDTH 500 0
DWIDTH 7 0
BBX 6 10 0 0
BITMAP
30
30
30
48
48
48
FC
84
84
CC
ENDCHAR
STARTCHAR B
ENCODING 66
SWIDTH 500 0
DWIDTH 7 0
BBX 6 10 0 0
BITMAP
F8
44
44
44
78
44
44
44
44
F8
ENDCHAR
STARTCHAR C
ENCODING 67
SWIDTH 500 0
DWIDTH 7 0
BBX 6 10 0 0
BITMAP
34
4C
84
80
80
80
80
84
44
38
ENDCHAR
STARTCHAR D
ENCODING 68
SWIDTH 500 0
DWIDTH 7 0
BBX 6 10 0 0
BITMAP
F0
48
44
44
44
44
44
44
48
F0
ENDCHAR
STARTCHAR E
ENCODING 69
SWIDTH 500 0
DWIDTH 7 0
BBX 6 10 0 0
BITMAP
FC
44
40
48
78
48
40
40
44
FC
ENDCHAR
STARTCHAR F
ENCODING 70
SWIDTH 500 0
DWIDTH 7 0
BBX 6 10 0 0
BITMAP
FC
44
40
48
78
48
40
40
40
E0
ENDCHAR
STARTCHAR G
ENCODING 71
SWIDTH 500 0
DWIDTH 7 0
BBX 6 10 0 0
BITMAP
34
4C
84
80
80
8C
84
84
4C
34
ENDCHAR
STARTCHAR H
ENCODING 72
SWIDTH 500 0
DWIDTH 7 0
BBX 7 10 0 0
BITMAP
EE
44
44
44
7C
44
44
44
44
EE
ENDCHAR
STARTCHAR I
ENCODING 73
SWIDTH 500 0
DWIDTH 7 0
BBX 3 10 2 0
BITMAP
E0
40
40
40
40
40
40
40
40
E0
ENDCHAR
STARTCHAR J
ENCODING 74
SWIDTH 500 0
DWIDTH 7 0
BBX 6 10 0 0
BITMAP
3C
08
08
08
08
08
08
88
88
70
ENDCHAR
STARTCHAR K
ENCODING 75
SWIDTH 500 0
DWIDTH 7 0
BBX 7 10 0 0
BITMAP
EC
48
48
50
70
50
48
48
44
EE
ENDCHAR
STARTCHAR L
ENCODING 76
SWIDTH 500 0
DWIDTH 7 0
BBX 6 10 0 0
BITMAP
E0
40
40
40
40
40
40
44
44
FC
ENDCHAR
STARTCHAR M
ENCODING 77
SWIDTH 500 0
DWIDTH 7 0
BBX 7 10 0 0
BITMAP
44
44
44
6C
6C
54
54
54
44
CE
ENDCHAR
STARTCHAR N
ENCODING 78
SWIDTH 500 0
DWIDTH 7 0
BBX 6 10 0 0
BITMAP
8C
C4
C4
A4
A4
94
94
8C
8C
C4
ENDCHAR
STARTCHAR O
ENCODING 79
SWIDTH 500 0
DWIDTH 7 0
BBX 6 10 0 0
BITMAP
78
84
84
84
84
84
84
84
84
78
ENDCHAR
STARTCHAR P
ENCODING 80
SWIDTH 500 0
DWIDTH 7 0
BBX 6 10 0 0
BITMAP
F8
44
44
44
78
40
40
40
40
E0
ENDCHAR
STARTCHAR Q
ENCODING 81
SWIDTH 500 0
DWIDTH 7 0
BBX 6 11 0 -1
BITMAP
78
84
84
84
84
84
84
F4
8C
78
04
ENDCHAR
STARTCHAR R
ENCODING 82
SWIDTH 500 0
DWIDTH 7 0
BBX 6 10 0 0
BITMAP
F8
44
44
44
78
50
48
48
44
E4
ENDCHAR
STARTCHAR S
ENCODING 83
SWIDTH 500 0
DWIDTH 7 0
BBX 6 10 0 0
BITMAP
78
84
84
80
60
18
04
84
84
78
ENDCHAR
STARTCHAR T
ENCODING 84
SWIDTH 500 0
DWIDTH 7 0
BBX 7 10 0 0
BITMAP
FE
92
10
10
10
10
10
10
10
38
ENDCHAR
STARTCHAR U
ENCODING 85
SWIDTH 500 0
DWIDTH 7 0
BBX 7 10 0 0
BITMAP
EE
44
44
44
44
44
44
44
44
38
ENDCHAR
STARTCHAR V
ENCODING 86
SWIDTH 500 0
DWIDTH 7 0
BBX 7 10 0 0
BITMAP
C6
44
44
44
28
28
28
10
10
10
ENDCHAR
STARTCHAR W
ENCODING 87
SWIDTH 500 0
DWIDTH 7 0
BBX 7 10 0 0
BITMAP
C6
82
92
92
AA
AA
44
44
44
44
ENDCHAR
STARTCHAR X
ENCODING 88
SWIDTH 500 0
DWIDTH 7 0
BBX 7 10 0 0
BITMAP
C6
44
28
28
10
10
28
28
44
C6
ENDCHAR
STARTCHAR Y
ENCODING 89
SWIDTH 500 0
DWIDTH 7 0
BBX 7 10 0 0
BITMAP
C6
44
44
28
28
10
10
10
10
38
ENDCHAR
STARTCHAR Z
ENCODING 90
SWIDTH 500 0
DWIDTH 7 0
BBX 6 10 0 0
BITMAP
FC
84
04
08
10
20
40
84
84
FC
ENDCHAR
STARTCHAR bracketleft
ENCODING 91
SWIDTH 500 0
DWIDTH 7 0
BBX 3 12 2 -1
BITMAP
E0
80
80
80
80
80
80
80
80
80
80
E0
ENDCHAR
STARTCHAR backslash
ENCODING 92
SWIDTH 500 0
DWIDTH 7 0
BBX 5 10 1 0
BITMAP
80
80
40
40
20
20
10
10
08
08
ENDCHAR
STARTCHAR bracketright
ENCODING 93
SWIDTH 500 0
DWIDTH 7 0
BBX 3 12 2 -1
BITMAP
E0
20
20
20
20
20
20
20
20
20
20
E0
ENDCHAR
STARTCHAR asciicircum
ENCODING 94
SWIDTH 500 0
DWIDTH 7 0
BBX 5 3 1 9
BITMAP
20
50
88
ENDCHAR
STARTCHAR underscore
ENCODING 95
SWIDTH 500 0
DWIDTH 7 0
BBX 6 1 0 -2
BITMAP
FC
ENDCHAR
STARTCHAR grave
ENCODING 96
SWIDTH 500 0
DWIDTH 7 0
BBX 3 3 2 7
BITMAP
C0
40
20
ENDCHAR
STARTCHAR a
ENCODING 97
SWIDTH 500 0
DWIDTH 7 0
BBX 6 7 0 0
BITMAP
70
88
08
78
88
88
74
ENDCHAR
STARTCHAR b
ENCODING 98
SWIDTH 500 0
DWIDTH 7 0
BBX 6 11 0 0
BITMAP
80
80
80
80
B0
C8
84
84
84
C8
B0
ENDCHAR
STARTCHAR c
ENCODING 99
SWIDTH 500 0
DWIDTH 7 0
BBX 6 7 0 0
BITMAP
38
44
80
80
80
44
38
ENDCHAR
STARTCHAR d
ENCODING 100
SWIDTH 500 0
DWIDTH 7 0
BBX 6 11 0 0
BITMAP
04
04
04
04
34
4C
84
84
84
4C
34
ENDCHAR
STARTCHAR e
ENCODING 101
SWIDTH 500 0
DWIDTH 7 0
BBX 6 7 0 0
BITMAP
78
84
84
FC
80
84
78
ENDCHAR
STARTCHAR f
ENCODING 102
SWIDTH 500 0
DWIDTH 7 0
BBX 6 11 0 0
BITMAP
18
24
20
20
F8
20
20
20
20
20
70
ENDCHAR
STARTCHAR g
ENCODING 103
SWIDTH 500 0
DWIDTH 7 0
BBX 7 9 0 -2
BITMAP
36
48
48
30
40
78
84
84
78
ENDCHAR
STARTCHAR h
ENCODING 104
SWIDTH 500 0
DWIDTH 7 0
BBX 7 11 0 0
BITMAP
C0
40
40
40
58
64
44
44
44
44
EE
ENDCHAR
STARTCHAR i
ENCODING 105
SWIDTH 500 0
DWIDTH 7 0
BBX 3 10 2 0
BITMAP
40
40
00
C0
40
40
40
40
40
E0
ENDCHAR
STARTCHAR j
ENCODING 106
SWIDTH 500 0
DWIDTH 7 0
BBX 4 12 1 -2
BITMAP
10
10
00
30
10
10
10
10
10
10
90
60
ENDCHAR
STARTCHAR k
ENCODING 107
SWIDTH 500 0
DWIDTH 7 0
BBX 6 11 0 0
BITMAP
C0
40
40
40
4C
48
50
60
50
48
EC
ENDCHAR
STARTCHAR l
ENCODING 108
SWIDTH 500 0
DWIDTH 7 0
BBX 3 10 2 0
BITMAP
C0
40
40
40
40
40
40
40
40
E0
ENDCHAR
STARTCHAR m
ENCODING 109
SWIDTH 500 0
DWIDTH 7 0
BBX 6 7 0 0
BITMAP
A8
54
54
54
54
54
54
ENDCHAR
STARTCHAR n
ENCODING 110
SWIDTH 500 0
DWIDTH 7 0
BBX 7 7 0 0
BITMAP
D8
64
44
44
44
44
EE
ENDCHAR
STARTCHAR o
ENCODING 111
SWIDTH 500 0
DWIDTH 7 0
BBX 6 7 0 0
BITMAP
30
48
84
84
84
48
30
ENDCHAR
STARTCHAR p
ENCODING 112
SWIDTH 500 0
DWIDTH 7 0
BBX 6 9 0 -2
BITMAP
D8
64
44
44
44
64
58
40
E0
ENDCHAR
STARTCHAR q
ENCODING 113
SWIDTH 500 0
DWIDTH 7 0
BBX 6 9 0 -2
BITMAP
6C
98
88
88
88
98
68
08
1C
ENDCHAR
STARTCHAR r
ENCODING 114
SWIDTH 500 0
DWIDTH 7 0
BBX 6 7 0 0
BITMAP
D8
64
40
40
40
40
E0
ENDCHAR
STARTCHAR s
ENCODING 115
SWIDTH 500 0
DWIDTH 7 0
BBX 5 7 1 0
BITMAP
70
88
80
70
08
88
70
ENDCHAR
STARTCHAR t
ENCODING 116
SWIDTH 500 0
DWIDTH 7 0
BBX 6 9 0 0
BITMAP
20
20
F8
20
20
20
20
24
18
ENDCHAR
STARTCHAR u
ENCODING 117
SWIDTH 500 0
DWIDTH 7 0
BBX 7 7 0 0
BITMAP
CC
44
44
44
44
4C
36
ENDCHAR
STARTCHAR v
ENCODING 118
SWIDTH 500 0
DWIDTH 7 0
BBX 7 7 0 0
BITMAP
EE
44
44
28
28
10
10
ENDCHAR
STARTCHAR w
ENCODING 119
SWIDTH 500 0
DWIDTH 7 0
BBX 7 7 0 0
BITMAP
D6
54
54
54
28
28
28
ENDCHAR
STARTCHAR x
ENCODING 120
SWIDTH 500 0
DWIDTH 7 0
BBX 7 7 0 0
BITMAP
EE
44
28
10
28
44
EE
ENDCHAR
STARTCHAR y
ENCODING 121
SWIDTH 500 0
DWIDTH 7 0
BBX 6 9 0 -2
BITMAP
CC
44
44
28
28
10
10
20
C0
ENDCHAR
STARTCHAR z
ENCODING 122
SWIDTH 500 0
DWIDTH 7 0
BBX 6 7 0 0
BITMAP
FC
84
08
10
20
44
FC
ENDCHAR
STARTCHAR braceleft
ENCODING 123
SWIDTH 500 0
DWIDTH 7 0
BBX 3 13 2 -1
BITMAP
20
40
40
40
40
40
80
80
40
40
40
40
20
ENDCHAR
STARTCHAR bar
ENCODING 124
SWIDTH 500 0
DWIDTH 7 0
BBX 1 14 3 -2
BITMAP
80
80
80
80
80
80
80
80
80
80
80
80
80
80
ENDCHAR
STARTCHAR braceright
ENCODING 125
SWIDTH 500 0
DWIDTH 7 0
BBX 3 13 2 -1
BITMAP
80
40
40
40
40
40
20
20
40
40
40
40
80
ENDCHAR
STARTCHAR asciitilde
ENCODING 126
SWIDTH 500 0
DWIDTH 7 0
BBX 5 3 1 4
BITMAP
40
A8
10
ENDCHAR
STARTCHAR nounicode-3-1-80
ENCODING 128
SWIDTH 500 0
DWIDTH 6 0
BBX 5 11 0 0
BITMAP
30
48
40
40
F8
40
F8
40
40
48
30
ENDCHAR
STARTCHAR cent
ENCODING 162
SWIDTH 500 0
DWIDTH 6 0
BBX 5 8 1 0
BITMAP
10
70
A8
B8
C0
C0
C8
70
ENDCHAR
STARTCHAR sterling
ENCODING 163
SWIDTH 500 0
DWIDTH 6 0
BBX 5 9 0 -1
BITMAP
38
48
48
40
F8
20
A0
C8
78
ENDCHAR
STARTCHAR currency
ENCODING 164
SWIDTH 500 0
DWIDTH 6 0
BBX 6 5 0 1
BITMAP
F4
8C
84
84
FC
ENDCHAR
STARTCHAR section
ENCODING 167
SWIDTH 500 0
DWIDTH 6 0
BBX 5 11 1 -2
BITMAP
20
50
50
40
B0
88
50
30
10
50
70
ENDCHAR
STARTCHAR dieresis
ENCODING 168
SWIDTH 500 0
DWIDTH 6 0
BBX 3 1 1 6
BITMAP
A0
ENDCHAR
STARTCHAR guillemotleft
ENCODING 171
SWIDTH 500 0
DWIDTH 6 0
BBX 5 6 0 1
BITMAP
28
50
A0
A0
50
28
ENDCHAR
STARTCHAR macron
ENCODING 175
SWIDTH 500 0
DWIDTH 6 0
BBX 6 2 0 10
BITMAP
FC
F8
ENDCHAR
STARTCHAR degree
ENCODING 176
SWIDTH 500 0
DWIDTH 6 0
BBX 3 4 1 5
BITMAP
40
A0
A0
40
ENDCHAR
STARTCHAR plusminus
ENCODING 177
SWIDTH 500 0
DWIDTH 6 0
BBX 5 7 0 0
BITMAP
20
20
F8
20
20
00
F8
ENDCHAR
STARTCHAR periodcentered
ENCODING 183
SWIDTH 500 0
DWIDTH 6 0
BBX 1 1 3 3
BITMAP
80
ENDCHAR
STARTCHAR guillemotright
ENCODING 187
SWIDTH 500 0
DWIDTH 6 0
BBX 5 6 0 1
BITMAP
A0
50
28
28
50
A0
ENDCHAR
STARTCHAR multiply
ENCODING 215
SWIDTH 1000 0
DWIDTH 14 0
BBX 10 10 2 0
BITMAP
8040
4080
2100
1200
0C00
0C00
1200
2100
4080
8040
ENDCHAR
STARTCHAR agrave
ENCODING 224
SWIDTH 1000 0
DWIDTH 14 0
BBX 7 12 3 0
BITMAP
30
0C
00
00
34
4C
84
84
84
84
44
3A
ENDCHAR
STARTCHAR aacute
ENCODING 225
SWIDTH 1000 0
DWIDTH 14 0
BBX 7 12 3 0
BITMAP
08
30
00
00
30
4C
84
84
84
84
46
38
ENDCHAR
STARTCHAR egrave
ENCODING 232
SWIDTH 1000 0
DWIDTH 14 0
BBX 6 12 4 0
BITMAP
20
18
00
00
30
C8
84
FC
80
80
48
30
ENDCHAR
STARTCHAR eacute
ENCODING 233
SWIDTH 1000 0
DWIDTH 14 0
BBX 6 12 4 0
BITMAP
18
20
00
00
30
C8
84
FC
80
80
48
30
ENDCHAR
STARTCHAR ecircumflex
ENCODING 234
SWIDTH 1000 0
DWIDTH 14 0
BBX 6 12 4 0
BITMAP
10
68
04
00
30
C8
84
FC
80
80
48
30
ENDCHAR
STARTCHAR igrave
ENCODING 236
SWIDTH 1000 0
DWIDTH 14 0
BBX 3 12 5 0
BITMAP
80
60
00
00
00
C0
40
40
40
40
40
E0
ENDCHAR
STARTCHAR iacute
ENCODING 237
SWIDTH 1000 0
DWIDTH 14 0
BBX 3 12 5 0
BITMAP
20
40
00
00
00
C0
40
40
40
40
40
E0
ENDCHAR
STARTCHAR ograve
ENCODING 242
SWIDTH 1000 0
DWIDTH 14 0
BBX 6 12 4 0
BITMAP
60
10
00
00
30
48
84
84
84
84
48
30
ENDCHAR
STARTCHAR oacute
ENCODING 243
SWIDTH 1000 0
DWIDTH 14 0
BBX 6 12 4 0
BITMAP
18
20
00
00
30
48
84
84
84
84
48
30
ENDCHAR
STARTCHAR divide
ENCODING 247
SWIDTH 1000 0
DWIDTH 14 0
BBX 10 9 2 1
BITMAP
0C00
0C00
0000
0000
FFC0
0000
0000
0C00
0C00
ENDCHAR
STARTCHAR ugrave
ENCODING 249
SWIDTH 1000 0
DWIDTH 14 0
BBX 7 12 3 0
BITMAP
30
08
00
00
04
CC
44
44
44
44
4C
36
ENDCHAR
STARTCHAR uacute
ENCODING 250
SWIDTH 1000 0
DWIDTH 14 0
BBX 7 12 3 0
BITMAP
08
30
00
00
04
CC
44
44
44
44
4C
36
ENDCHAR
STARTCHAR udieresis
ENCODING 252
SWIDTH 1000 0
DWIDTH 14 0
BBX 8 9 3 0
BITMAP
42
00
C6
42
42
42
42
46
3B
ENDCHAR
STARTCHAR amacron
ENCODING 257
SWIDTH 1000 0
DWIDTH 14 0
BBX 7 11 3 0
BITMAP
7C
00
00
30
CC
84
84
84
84
46
38
ENDCHAR
STARTCHAR emacron
ENCODING 275
SWIDTH 1000 0
DWIDTH 14 0
BBX 6 11 4 0
BITMAP
7C
00
00
30
C8
84
FC
80
80
48
30
ENDCHAR
STARTCHAR ecaron
ENCODING 283
SWIDTH 1000 0
DWIDTH 14 0
BBX 7 12 3 0
BITMAP
22
14
08
00
38
44
82
FE
80
82
44
38
ENDCHAR
STARTCHAR imacron
ENCODING 299
SWIDTH 1000 0
DWIDTH 14 0
BBX 5 11 5 0
BITMAP
F8
00
00
00
60
20
20
20
20
20
70
ENDCHAR
STARTCHAR nacute
ENCODING 324
SWIDTH 1000 0
DWIDTH 14 0
BBX 1 1 0 0
BITMAP
00
ENDCHAR
STARTCHAR ncaron
ENCODING 328
SWIDTH 1000 0
DWIDTH 14 0
BBX 1 1 0 0
BITMAP
00
ENDCHAR
STARTCHAR omacron
ENCODING 333
SWIDTH 1000 0
DWIDTH 14 0
BBX 6 11 4 0
BITMAP
7C
00
00
30
48
84
84
84
84
48
30
ENDCHAR
STARTCHAR umacron
ENCODING 363
SWIDTH 1000 0
DWIDTH 14 0
BBX 7 11 3 0
BITMAP
7C
00
00
44
CC
44
44
44
44
4C
36
ENDCHAR
STARTCHAR uni01CE
ENCODING 462
SWIDTH 1000 0
DWIDTH 14 0
BBX 7 11 3 0
BITMAP
28
10
00
30
4C
84
84
84
84
46
38
ENDCHAR
STARTCHAR uni01D0
ENCODING 464
SWIDTH 1000 0
DWIDTH 14 0
BBX 3 11 5 0
BITMAP
80
60
00
00
C0
40
40
40
40
40
E0
ENDCHAR
STARTCHAR uni01D2
ENCODING 466
SWIDTH 1000 0
DWIDTH 14 0
BBX 6 11 4 0
BITMAP
58
30
00
30
48
84
84
84
84
48
30
ENDCHAR
STARTCHAR uni01D4
ENCODING 468
SWIDTH 1000 0
DWIDTH 14 0
BBX 7 12 3 0
BITMAP
44
28
10
00
04
CC
44
44
44
44
4C
36
ENDCHAR
STARTCHAR uni01D6
ENCODING 470
SWIDTH 1000 0
DWIDTH 14 0
BBX 8 11 3 0
BITMAP
3E
00
42
00
C6
42
42
42
42
46
3B
ENDCHAR
STARTCHAR uni01D8
ENCODING 472
SWIDTH 1000 0
DWIDTH 14 0
BBX 8 12 3 0
BITMAP
04
18
00
42
00
C6
42
42
42
42
46
3B
ENDCHAR
STARTCHAR uni01DA
ENCODING 474
SWIDTH 1000 0
DWIDTH 14 0
BBX 8 11 3 0
BITMAP
24
18
42
00
C6
42
42
42
42
46
3B
ENDCHAR
STARTCHAR uni01DC
ENCODING 476
SWIDTH 1000 0
DWIDTH 14 0
BBX 8 12 3 0
BITMAP
20
18
00
42
00
C6
42
42
42
42
46
3B
ENDCHAR
STARTCHAR uni0251
ENCODING 593
SWIDTH 1000 0
DWIDTH 14 0
BBX 1 1 0 0
BITMAP
00
ENDCHAR
STARTCHAR uni0261
ENCODING 609
SWIDTH 1000 0
DWIDTH 14 0
BBX 1 1 0 0
BITMAP
00
ENDCHAR
STARTCHAR caron
ENCODING 711
SWIDTH 1000 0
DWIDTH 14 0
BBX 6 6 4 3
BITMAP
04
88
48
70
30
20
ENDCHAR
STARTCHAR uni02C9
ENCODING 713
SWIDTH 1000 0
DWIDTH 14 0
BBX 6 1 4 8
BITMAP
FC
ENDCHAR
STARTCHAR uni02CA
ENCODING 714
SWIDTH 1000 0
DWIDTH 14 0
BBX 4 5 5 4
BITMAP
10
10
20
C0
C0
ENDCHAR
STARTCHAR uni02CB
ENCODING 715
SWIDTH 1000 0
DWIDTH 14 0
BBX 5 4 4 4
BITMAP
C0
60
30
08
ENDCHAR
STARTCHAR uni02CD
ENCODING 717
SWIDTH 1000 0
DWIDTH 14 0
BBX 14 1 0 -2
BITMAP
FFFC
ENDCHAR
STARTCHAR dotaccent
ENCODING 729
SWIDTH 1000 0
DWIDTH 14 0
BBX 4 4 5 4
BITMAP
60
F0
F0
60
ENDCHAR
STARTCHAR Alpha
ENCODING 913
SWIDTH 1000 0
DWIDTH 14 0
BBX 11 11 1 0
BITMAP
0400
0400
0A00
0A00
1100
1100
2080
3F80
4040
4040
E0E0
ENDCHAR
STARTCHAR Beta
ENCODING 914
SWIDTH 1000 0
DWIDTH 14 0
BBX 10 11 2 0
BITMAP
FC00
4300
4080
4080
4300
7E00
4180
4040
4040
4180
FE00
ENDCHAR
STARTCHAR Gamma
ENCODING 915
SWIDTH 1000 0
DWIDTH 14 0
BBX 9 11 3 0
BITMAP
FF00
4100
4080
4000
4000
4000
4000
4000
4000
4000
E000
ENDCHAR
STARTCHAR uni0394
ENCODING 916
SWIDTH 1000 0
DWIDTH 14 0
BBX 11 11 1 0
BITMAP
0400
0400
0A00
0A00
1100
1100
2080
2080
4040
4040
FFE0
ENDCHAR
STARTCHAR Epsilon
ENCODING 917
SWIDTH 1000 0
DWIDTH 14 0
BBX 9 11 2 0
BITMAP
FF00
4100
4080
4000
4100
7F00
4100
4000
4000
4080
FF80
ENDCHAR
STARTCHAR Zeta
ENCODING 918
SWIDTH 1000 0
DWIDTH 14 0
BBX 11 11 2 0
BITMAP
7FC0
4080
8100
0200
0400
0400
0800
1000
2020
4040
FFC0
ENDCHAR
STARTCHAR Eta
ENCODING 919
SWIDTH 1000 0
DWIDTH 14 0
BBX 10 11 2 0
BITMAP
E1C0
4080
4080
4080
4080
7F80
4080
4080
4080
4080
E1C0
ENDCHAR
STARTCHAR Theta
ENCODING 920
SWIDTH 1000 0
DWIDTH 14 0
BBX 11 11 1 0
BITMAP
0E00
3180
4040
8020
9120
9F20
9120
8020
4040
3180
0E00
ENDCHAR
STARTCHAR Iota
ENCODING 921
SWIDTH 1000 0
DWIDTH 14 0
BBX 3 11 5 0
BITMAP
E0
40
40
40
40
40
40
40
40
40
E0
ENDCHAR
STARTCHAR Kappa
ENCODING 922
SWIDTH 1000 0
DWIDTH 14 0
BBX 10 11 2 0
BITMAP
E380
4100
4200
4400
5800
6800
4400
4200
4100
4080
E1C0
ENDCHAR
STARTCHAR Lambda
ENCODING 923
SWIDTH 1000 0
DWIDTH 14 0
BBX 11 11 1 0
BITMAP
0400
0400
0A00
0A00
1100
1100
2080
2080
4040
4040
E0E0
ENDCHAR
STARTCHAR Mu
ENCODING 924
SWIDTH 1000 0
DWIDTH 14 0
BBX 12 11 1 0
BITMAP
C030
6060
60A0
50A0
5120
4920
4A20
4420
4420
4020
E070
ENDCHAR
STARTCHAR Nu
ENCODING 925
SWIDTH 1000 0
DWIDTH 14 0
BBX 10 11 2 0
BITMAP
C1C0
6080
6080
5080
4880
4480
4480
4280
4180
4180
E080
ENDCHAR
STARTCHAR Xi
ENCODING 926
SWIDTH 1000 0
DWIDTH 14 0
BBX 10 12 2 -1
BITMAP
7FC0
4080
8080
0000
4080
7F80
4080
0000
0000
4040
4080
FF80
ENDCHAR
STARTCHAR Omicron
ENCODING 927
SWIDTH 1000 0
DWIDTH 14 0
BBX 11 11 1 0
BITMAP
0E00
3180
4040
8020
8020
8020
8020
8020
4040
3180
0E00
ENDCHAR
STARTCHAR Pi
ENCODING 928
SWIDTH 1000 0
DWIDTH 14 0
BBX 10 11 2 0
BITMAP
FFC0
4080
4080
4080
4080
4080
4080
4080
4080
4080
E1C0
ENDCHAR
STARTCHAR Rho
ENCODING 929
SWIDTH 1000 0
DWIDTH 14 0
BBX 9 11 2 0
BITMAP
FC00
4300
4080
4080
4300
7C00
4000
4000
4000
4000
E000
ENDCHAR
STARTCHAR Sigma
ENCODING 931
SWIDTH 1000 0
DWIDTH 14 0
BBX 10 11 2 0
BITMAP
FF00
4100
2080
1000
0800
0400
0400
0800
1040
2080
FF80
ENDCHAR
STARTCHAR Tau
ENCODING 932
SWIDTH 1000 0
DWIDTH 14 0
BBX 11 11 1 0
BITMAP
7FC0
4440
8420
0400
0400
0400
0400
0400
0400
0400
0E00
ENDCHAR
STARTCHAR Upsilon
ENCODING 933
SWIDTH 1000 0
DWIDTH 14 0
BBX 11 11 1 0
BITMAP
71C0
8A20
8420
0400
0400
0400
0400
0400
0400
0400
0E00
ENDCHAR
STARTCHAR Phi
ENCODING 934
SWIDTH 1000 0
DWIDTH 14 0
BBX 11 11 1 0
BITMAP
0E00
0400
1F00
64C0
8420
8420
8420
64C0
1F00
0400
0E00
ENDCHAR
STARTCHAR Chi
ENCODING 935
SWIDTH 1000 0
DWIDTH 14 0
BBX 11 11 1 0
BITMAP
70E0
2040
1080
0900
0600
0400
0A00
1100
2080
4040
E0E0
ENDCHAR
STARTCHAR Psi
ENCODING 936
SWIDTH 1000 0
DWIDTH 14 0
BBX 11 11 1 0
BITMAP
0E00
8420
4440
2480
2480
2480
1500
0E00
0400
0400
0E00
ENDCHAR
STARTCHAR uni03A9
ENCODING 937
SWIDTH 1000 0
DWIDTH 14 0
BBX 10 11 2 0
BITMAP
0C00
3300
4080
8040
8040
8040
4080
2100
1200
9240
F3C0
ENDCHAR
STARTCHAR alpha
ENCODING 945
SWIDTH 1000 0
DWIDTH 14 0
BBX 9 9 2 0
BITMAP
0100
1900
2500
4200
8200
8200
8600
4A00
3180
ENDCHAR
STARTCHAR beta
ENCODING 946
SWIDTH 1000 0
DWIDTH 14 0
BBX 9 13 2 -2
BITMAP
0700
0880
1080
1080
2100
2E00
2100
2100
4100
6200
5C00
8000
8000
ENDCHAR
STARTCHAR gamma
ENCODING 947
SWIDTH 1000 0
DWIDTH 14 0
BBX 8 9 3 -1
BITMAP
63
94
18
10
10
20
20
20
20
ENDCHAR
STARTCHAR delta
ENCODING 948
SWIDTH 1000 0
DWIDTH 14 0
BBX 8 11 3 0
BITMAP
38
46
41
20
38
44
84
84
88
90
60
ENDCHAR
STARTCHAR epsilon
ENCODING 949
SWIDTH 1000 0
DWIDTH 14 0
BBX 6 8 4 0
BITMAP
38
44
40
38
40
80
84
78
ENDCHAR
STARTCHAR zeta
ENCODING 950
SWIDTH 1000 0
DWIDTH 14 0
BBX 6 13 4 -2
BITMAP
40
8C
70
20
40
40
80
80
60
18
04
64
38
ENDCHAR
STARTCHAR eta
ENCODING 951
SWIDTH 1000 0
DWIDTH 14 0
BBX 8 10 3 -2
BITMAP
66
99
11
21
21
22
42
44
04
04
ENDCHAR
STARTCHAR theta
ENCODING 952
SWIDTH 1000 0
DWIDTH 14 0
BBX 8 11 3 0
BITMAP
0E
11
21
41
42
FE
82
84
84
88
70
ENDCHAR
STARTCHAR iota
ENCODING 953
SWIDTH 1000 0
DWIDTH 14 0
BBX 4 8 5 0
BITMAP
20
40
40
80
80
80
90
60
ENDCHAR
STARTCHAR kappa
ENCODING 954
SWIDTH 1000 0
DWIDTH 14 0
BBX 9 8 3 0
BITMAP
2180
2600
2800
7000
4800
4800
8900
8600
ENDCHAR
STARTCHAR lambda
ENCODING 955
SWIDTH 1000 0
DWIDTH 14 0
BBX 8 11 3 0
BITMAP
38
04
04
0C
14
14
24
44
44
84
83
ENDCHAR
STARTCHAR uni03BC
ENCODING 956
SWIDTH 1000 0
DWIDTH 14 0
BBX 10 10 2 -2
BITMAP
2100
2100
2200
2200
4200
4200
6640
5980
8000
8000
ENDCHAR
STARTCHAR nu
ENCODING 957
SWIDTH 1000 0
DWIDTH 14 0
BBX 7 8 4 0
BITMAP
82
42
44
44
48
50
60
80
ENDCHAR
STARTCHAR xi
ENCODING 958
SWIDTH 1000 0
DWIDTH 14 0
BBX 7 14 4 -2
BITMAP
30
46
38
20
40
40
38
44
80
80
60
18
04
78
ENDCHAR
STARTCHAR omicron
ENCODING 959
SWIDTH 1000 0
DWIDTH 14 0
BBX 8 8 3 0
BITMAP
0C
32
41
81
82
82
4C
30
ENDCHAR
STARTCHAR pi
ENCODING 960
SWIDTH 1000 0
DWIDTH 14 0
BBX 11 9 1 0
BITMAP
3020
4FC0
8900
1100
1200
2200
2200
2200
C180
ENDCHAR
STARTCHAR rho
ENCODING 961
SWIDTH 1000 0
DWIDTH 14 0
BBX 9 10 2 -2
BITMAP
0700
0880
1080
2080
2100
6100
6200
5C00
8000
8000
ENDCHAR
STARTCHAR sigma
ENCODING 963
SWIDTH 1000 0
DWIDTH 14 0
BBX 9 8 3 0
BITMAP
0F80
3400
4200
8200
8200
8400
8800
7000
ENDCHAR
STARTCHAR tau
ENCODING 964
SWIDTH 1000 0
DWIDTH 14 0
BBX 9 8 3 0
BITMAP
3180
4E00
8800
1000
1000
2000
2400
1800
ENDCHAR
STARTCHAR upsilon
ENCODING 965
SWIDTH 1000 0
DWIDTH 14 0
BBX 7 8 3 0
BITMAP
44
42
82
82
84
84
88
70
ENDCHAR
STARTCHAR phi
ENCODING 966
SWIDTH 1000 0
DWIDTH 14 0
BBX 8 13 3 -2
BITMAP
04
04
04
1C
6A
89
89
91
92
54
38
20
20
ENDCHAR
STARTCHAR chi
ENCODING 967
SWIDTH 1000 0
DWIDTH 14 0
BBX 10 13 2 -2
BITMAP
1840
2440
0480
0500
0600
0400
0C00
1400
1400
2400
4400
8480
8300
ENDCHAR
STARTCHAR psi
ENCODING 968
SWIDTH 1000 0
DWIDTH 14 0
BBX 11 13 1 -2
BITMAP
0100
0100
0100
6140
9220
1220
1220
2440
2480
2700
1C00
0800
0800
ENDCHAR
STARTCHAR omega
ENCODING 969
SWIDTH 1000 0
DWIDTH 14 0
BBX 10 8 2 0
BITMAP
2080
4040
4440
8840
8880
8880
9900
6600
ENDCHAR
STARTCHAR afii10023
ENCODING 1025
SWIDTH 1000 0
DWIDTH 14 0
BBX 9 12 2 0
BITMAP
2400
2400
FF00
4080
4000
4200
7E00
4200
4000
4000
4080
FF80
ENDCHAR
STARTCHAR afii10017
ENCODING 1040
SWIDTH 1000 0
DWIDTH 14 0
BBX 11 11 1 0
BITMAP
0400
0400
0A00
0A00
1100
1100
2080
3F80
4040
4040
E0E0
ENDCHAR
STARTCHAR afii10018
ENCODING 1041
SWIDTH 1000 0
DWIDTH 14 0
BBX 10 11 2 0
BITMAP
FF00
4100
4080
4000
4000
7E00
4180
4040
4040
4180
FE00
ENDCHAR
STARTCHAR afii10019
ENCODING 1042
SWIDTH 1000 0
DWIDTH 14 0
BBX 10 11 2 0
BITMAP
FC00
4300
4080
4080
4300
7E00
4180
4040
4040
4180
FE00
ENDCHAR
STARTCHAR afii10020
ENCODING 1043
SWIDTH 1000 0
DWIDTH 14 0
BBX 9 11 3 0
BITMAP
FF00
4100
4080
4000
4000
4000
4000
4000
4000
4000
E000
ENDCHAR
STARTCHAR afii10021
ENCODING 1044
SWIDTH 1000 0
DWIDTH 14 0
BBX 11 13 1 -2
BITMAP
3FC0
1080
1080
1080
1080
1080
1080
1080
2080
2080
FFE0
8020
8020
ENDCHAR
STARTCHAR afii10022
ENCODING 1045
SWIDTH 1000 0
DWIDTH 14 0
BBX 9 11 2 0
BITMAP
FF00
4100
4080
4000
4100
7F00
4100
4000
4000
4080
FF80
ENDCHAR
STARTCHAR afii10024
ENCODING 1046
SWIDTH 1000 0
DWIDTH 14 0
BBX 11 11 1 0
BITMAP
CE60
A4A0
2480
2480
2480
1F00
1500
2480
4440
4440
CE60
ENDCHAR
STARTCHAR afii10025
ENCODING 1047
SWIDTH 1000 0
DWIDTH 14 0
BBX 9 11 2 0
BITMAP
1C00
6300
8080
0080
0300
1E00
0300
0080
8080
6300
1C00
ENDCHAR
STARTCHAR afii10026
ENCODING 1048
SWIDTH 1000 0
DWIDTH 14 0
BBX 10 11 2 0
BITMAP
E0C0
4180
4180
4280
4480
4880
4880
5080
6080
6080
41C0
ENDCHAR
STARTCHAR afii10027
ENCODING 1049
SWIDTH 1000 0
DWIDTH 14 0
BBX 10 12 2 0
BITMAP
1200
0C00
E0C0
4180
4280
4280
4480
4880
5080
6080
6080
41C0
ENDCHAR
STARTCHAR afii10028
ENCODING 1050
SWIDTH 1000 0
DWIDTH 14 0
BBX 10 11 2 0
BITMAP
E180
4240
4400
4800
5800
6800
4400
4200
4100
4080
E1C0
ENDCHAR
STARTCHAR afii10029
ENCODING 1051
SWIDTH 1000 0
DWIDTH 14 0
BBX 11 11 1 0
BITMAP
0FE0
0840
0840
0840
0840
0840
0840
0840
9040
9040
60E0
ENDCHAR
STARTCHAR afii10030
ENCODING 1052
SWIDTH 1000 0
DWIDTH 14 0
BBX 12 11 1 0
BITMAP
6060
2040
30C0
3140
2940
2A40
4620
4420
4420
4020
E070
ENDCHAR
STARTCHAR afii10031
ENCODING 1053
SWIDTH 1000 0
DWIDTH 14 0
BBX 10 11 2 0
BITMAP
E1C0
4080
4080
4080
4080
7F80
4080
4080
4080
4080
E1C0
ENDCHAR
STARTCHAR afii10032
ENCODING 1054
SWIDTH 1000 0
DWIDTH 14 0
BBX 11 11 1 0
BITMAP
0E00
3180
4040
8020
8020
8020
8020
8020
4040
3180
0E00
ENDCHAR
STARTCHAR afii10033
ENCODING 1055
SWIDTH 1000 0
DWIDTH 14 0
BBX 10 11 2 0
BITMAP
FFC0
4080
4080
4080
4080
4080
4080
4080
4080
4080
E1C0
ENDCHAR
STARTCHAR afii10034
ENCODING 1056
SWIDTH 1000 0
DWIDTH 14 0
BBX 9 11 2 0
BITMAP
FC00
4300
4080
4080
4300
7C00
4000
4000
4000
4000
E000
ENDCHAR
STARTCHAR afii10035
ENCODING 1057
SWIDTH 1000 0
DWIDTH 14 0
BBX 10 11 2 0
BITMAP
0F40
30C0
4040
8000
8000
8000
8000
8000
4040
3080
0F00
ENDCHAR
STARTCHAR afii10036
ENCODING 1058
SWIDTH 1000 0
DWIDTH 14 0
BBX 11 11 1 0
BITMAP
7FC0
4440
8420
0400
0400
0400
0400
0400
0400
0400
0E00
ENDCHAR
STARTCHAR afii10037
ENCODING 1059
SWIDTH 1000 0
DWIDTH 14 0
BBX 11 13 1 -2
BITMAP
E0E0
4040
2040
2080
1080
0900
0900
0600
0200
0400
0400
0800
3000
ENDCHAR
STARTCHAR afii10038
ENCODING 1060
SWIDTH 1000 0
DWIDTH 14 0
BBX 11 11 1 0
BITMAP
0E00
0400
1F00
64C0
8420
8420
8420
64C0
1F00
0400
0E00
ENDCHAR
STARTCHAR afii10039
ENCODING 1061
SWIDTH 1000 0
DWIDTH 14 0
BBX 11 11 1 0
BITMAP
70E0
2040
1080
0900
0600
0400
0A00
1100
2080
4040
E0E0
ENDCHAR
STARTCHAR afii10040
ENCODING 1062
SWIDTH 1000 0
DWIDTH 14 0
BBX 11 13 1 -2
BITMAP
E1C0
4080
4080
4080
4080
4080
4080
4080
4080
4080
FFE0
0020
0020
ENDCHAR
STARTCHAR afii10041
ENCODING 1063
SWIDTH 1000 0
DWIDTH 14 0
BBX 10 11 1 0
BITMAP
E1C0
4080
4080
4080
4080
4180
2280
1C80
0080
0080
01C0
ENDCHAR
STARTCHAR afii10042
ENCODING 1064
SWIDTH 1000 0
DWIDTH 14 0
BBX 11 11 1 0
BITMAP
EEE0
4440
4440
4440
4440
4440
4440
4440
4440
4440
FFE0
ENDCHAR
STARTCHAR afii10043
ENCODING 1065
SWIDTH 1000 0
DWIDTH 14 0
BBX 11 13 1 -2
BITMAP
EEE0
4440
4440
4440
4440
4440
4440
4440
4440
4440
FFE0
0020
0020
ENDCHAR
STARTCHAR afii10044
ENCODING 1066
SWIDTH 1000 0
DWIDTH 14 0
BBX 11 11 1 0
BITMAP
7C00
4800
8800
0800
0F00
08C0
0820
0820
0820
08C0
1F00
ENDCHAR
STARTCHAR afii10045
ENCODING 1067
SWIDTH 1000 0
DWIDTH 14 0
BBX 10 11 2 0
BITMAP
E1C0
4080
4080
4080
7880
4480
4280
4280
4280
4C80
F1C0
ENDCHAR
STARTCHAR afii10046
ENCODING 1068
SWIDTH 1000 0
DWIDTH 14 0
BBX 8 11 3 0
BITMAP
E0
40
40
40
78
46
41
41
41
46
F8
ENDCHAR
STARTCHAR afii10047
ENCODING 1069
SWIDTH 1000 0
DWIDTH 14 0
BBX 10 11 2 0
BITMAP
1C00
6300
8080
0080
3040
49C0
0640
0080
8080
6300
1C00
ENDCHAR
STARTCHAR afii10048
ENCODING 1070
SWIDTH 1000 0
DWIDTH 14 0
BBX 11 11 1 0
BITMAP
E380
4440
4440
4820
4820
7820
4820
4820
4440
4440
E380
ENDCHAR
STARTCHAR afii10049
ENCODING 1071
SWIDTH 1000 0
DWIDTH 14 0
BBX 10 11 2 0
BITMAP
0FC0
3080
4080
4080
3080
0F80
1080
2080
2080
4080
E1C0
ENDCHAR
STARTCHAR afii10065
ENCODING 1072
SWIDTH 1000 0
DWIDTH 14 0
BBX 8 8 3 0
BITMAP
3C
42
42
1E
62
82
86
79
ENDCHAR
STARTCHAR afii10066
ENCODING 1073
SWIDTH 1000 0
DWIDTH 14 0
BBX 8 12 3 0
BITMAP
01
0E
30
40
58
E6
81
81
81
81
66
18
ENDCHAR
STARTCHAR afii10067
ENCODING 1074
SWIDTH 1000 0
DWIDTH 14 0
BBX 8 8 3 0
BITMAP
FC
42
42
7C
42
41
41
FE
ENDCHAR
STARTCHAR afii10068
ENCODING 1075
SWIDTH 1000 0
DWIDTH 14 0
BBX 8 8 3 0
BITMAP
FE
42
41
40
40
40
40
E0
ENDCHAR
STARTCHAR afii10069
ENCODING 1076
SWIDTH 1000 0
DWIDTH 14 0
BBX 10 10 2 -2
BITMAP
1FC0
1080
1080
1080
1080
1080
2080
FF80
8080
8080
ENDCHAR
STARTCHAR afii10070
ENCODING 1077
SWIDTH 1000 0
DWIDTH 14 0
BBX 8 8 3 0
BITMAP
3C
42
81
FF
80
81
62
1C
ENDCHAR
STARTCHAR afii10072
ENCODING 1078
SWIDTH 1000 0
DWIDTH 14 0
BBX 11 8 1 0
BITMAP
CE60
2480
1500
0E00
1500
2480
2480
CE60
ENDCHAR
STARTCHAR afii10073
ENCODING 1079
SWIDTH 1000 0
DWIDTH 14 0
BBX 8 8 3 0
BITMAP
3C
43
81
1E
03
81
42
3C
ENDCHAR
STARTCHAR afii10074
ENCODING 1080
SWIDTH 1000 0
DWIDTH 14 0
BBX 10 8 2 0
BITMAP
E1C0
4180
4280
4480
4880
5080
6080
E1C0
ENDCHAR
STARTCHAR afii10075
ENCODING 1081
SWIDTH 1000 0
DWIDTH 14 0
BBX 10 10 2 0
BITMAP
1200
0C00
E1C0
4180
4280
4480
4880
5080
6080
E1C0
ENDCHAR
STARTCHAR afii10076
ENCODING 1082
SWIDTH 1000 0
DWIDTH 14 0
BBX 9 8 2 0
BITMAP
E300
4500
4800
7800
4400
4200
4100
E380
ENDCHAR
STARTCHAR afii10077
ENCODING 1083
SWIDTH 1000 0
DWIDTH 14 0
BBX 10 8 2 0
BITMAP
1FC0
0880
0880
0880
0880
9080
9080
61C0
ENDCHAR
STARTCHAR afii10078
ENCODING 1084
SWIDTH 1000 0
DWIDTH 14 0
BBX 11 8 1 0
BITMAP
E0E0
60C0
5140
5140
4A40
4A40
4440
E0E0
ENDCHAR
STARTCHAR afii10079
ENCODING 1085
SWIDTH 1000 0
DWIDTH 14 0
BBX 9 8 2 0
BITMAP
E380
4100
4100
7F00
4100
4100
4100
E380
ENDCHAR
STARTCHAR afii10080
ENCODING 1086
SWIDTH 1000 0
DWIDTH 14 0
BBX 8 8 3 0
BITMAP
3C
42
81
81
81
81
42
3C
ENDCHAR
STARTCHAR afii10081
ENCODING 1087
SWIDTH 1000 0
DWIDTH 14 0
BBX 9 8 2 0
BITMAP
FF80
4100
4100
4100
4100
4100
4100
E380
ENDCHAR
STARTCHAR afii10082
ENCODING 1088
SWIDTH 1000 0
DWIDTH 14 0
BBX 8 10 3 -2
BITMAP
5C
62
41
41
41
41
62
5C
40
E0
ENDCHAR
STARTCHAR afii10083
ENCODING 1089
SWIDTH 1000 0
DWIDTH 14 0
BBX 8 8 3 0
BITMAP
3C
42
81
80
80
81
42
3C
ENDCHAR
STARTCHAR afii10084
ENCODING 1090
SWIDTH 1000 0
DWIDTH 14 0
BBX 9 8 2 0
BITMAP
7F00
4900
8880
0800
0800
0800
0800
1C00
ENDCHAR
STARTCHAR afii10085
ENCODING 1091
SWIDTH 1000 0
DWIDTH 14 0
BBX 9 10 2 -2
BITMAP
E380
4100
2100
2200
1200
1400
0C00
0800
1000
6000
ENDCHAR
STARTCHAR afii10086
ENCODING 1092
SWIDTH 1000 0
DWIDTH 14 0
BBX 11 13 1 -2
BITMAP
0E00
0400
0400
3580
4E40
8420
8420
8420
8420
4E40
3580
0400
0E00
ENDCHAR
STARTCHAR afii10087
ENCODING 1093
SWIDTH 1000 0
DWIDTH 14 0
BBX 8 8 3 0
BITMAP
C3
42
24
18
18
24
42
C3
ENDCHAR
STARTCHAR afii10088
ENCODING 1094
SWIDTH 1000 0
DWIDTH 14 0
BBX 9 10 2 -2
BITMAP
E380
4100
4100
4100
4100
4100
4100
FF80
0080
0080
ENDCHAR
STARTCHAR afii10089
ENCODING 1095
SWIDTH 1000 0
DWIDTH 14 0
BBX 9 8 2 0
BITMAP
E380
4100
4100
4300
3D00
0100
0100
0380
ENDCHAR
STARTCHAR afii10090
ENCODING 1096
SWIDTH 1000 0
DWIDTH 14 0
BBX 11 8 1 0
BITMAP
EEE0
4440
4440
4440
4440
4440
4440
7FE0
ENDCHAR
STARTCHAR afii10091
ENCODING 1097
SWIDTH 1000 0
DWIDTH 14 0
BBX 11 10 1 -2
BITMAP
EEE0
4440
4440
4440
4440
4440
4440
7FE0
0020
0020
ENDCHAR
STARTCHAR afii10092
ENCODING 1098
SWIDTH 1000 0
DWIDTH 14 0
BBX 10 8 1 0
BITMAP
7C00
4800
8800
0F00
08C0
0840
08C0
1F00
ENDCHAR
STARTCHAR afii10093
ENCODING 1099
SWIDTH 1000 0
DWIDTH 14 0
BBX 9 8 2 0
BITMAP
E380
4100
4100
7100
4D00
4500
4D00
F380
ENDCHAR
STARTCHAR afii10094
ENCODING 1100
SWIDTH 1000 0
DWIDTH 14 0
BBX 7 8 4 0
BITMAP
E0
40
40
78
46
42
46
F8
ENDCHAR
STARTCHAR afii10095
ENCODING 1101
SWIDTH 1000 0
DWIDTH 14 0
BBX 9 8 3 0
BITMAP
3C00
4300
8100
1B80
2480
8100
4200
3C00
ENDCHAR
STARTCHAR afii10096
ENCODING 1102
SWIDTH 1000 0
DWIDTH 14 0
BBX 10 8 2 0
BITMAP
E300
4480
4840
7840
4840
4840
4480
E300
ENDCHAR
STARTCHAR afii10097
ENCODING 1103
SWIDTH 1000 0
DWIDTH 14 0
BBX 8 8 3 0
BITMAP
3F
42
42
42
3E
22
42
E7
ENDCHAR
STARTCHAR afii10071
ENCODING 1105
SWIDTH 1000 0
DWIDTH 14 0
BBX 8 11 3 0
BITMAP
24
24
00
3C
42
81
FF
80
81
62
1C
ENDCHAR
STARTCHAR endash
ENCODING 8211
SWIDTH 1000 0
DWIDTH 14 0
BBX 12 1 1 5
BITMAP
FFF0
ENDCHAR
STARTCHAR emdash
ENCODING 8212
SWIDTH 1000 0
DWIDTH 14 0
BBX 12 1 1 5
BITMAP
FFF0
ENDCHAR
STARTCHAR uni2016
ENCODING 8214
SWIDTH 1000 0
DWIDTH 14 0
BBX 4 12 5 -1
BITMAP
90
90
90
90
90
90
90
90
90
90
90
90
ENDCHAR
STARTCHAR quoteleft
ENCODING 8216
SWIDTH 1000 0
DWIDTH 14 0
BBX 2 4 9 8
BITMAP
40
80
C0
C0
ENDCHAR
STARTCHAR quoteright
ENCODING 8217
SWIDTH 1000 0
DWIDTH 14 0
BBX 2 4 2 8
BITMAP
C0
C0
40
80
ENDCHAR
STARTCHAR quotedblleft
ENCODING 8220
SWIDTH 1000 0
DWIDTH 14 0
BBX 5 4 8 8
BITMAP
48
90
D8
D8
ENDCHAR
STARTCHAR quotedblright
ENCODING 8221
SWIDTH 1000 0
DWIDTH 14 0
BBX 5 4 1 8
BITMAP
D8
D8
48
90
ENDCHAR
STARTCHAR bullet
ENCODING 8226
SWIDTH 1000 0
DWIDTH 14 0
BBX 2 2 6 4
BITMAP
C0
C0
ENDCHAR
STARTCHAR twodotenleader
ENCODING 8229
SWIDTH 1000 0
DWIDTH 14 0
BBX 9 2 3 4
BITMAP
C180
C180
ENDCHAR
STARTCHAR ellipsis
ENCODING 8230
SWIDTH 1000 0
DWIDTH 14 0
BBX 12 2 1 4
BITMAP
C630
C630
ENDCHAR
STARTCHAR uni2027
ENCODING 8231
SWIDTH 1000 0
DWIDTH 14 0
BBX 2 2 6 4
BITMAP
C0
C0
ENDCHAR
STARTCHAR perthousand
ENCODING 8240
SWIDTH 1000 0
DWIDTH 14 0
BBX 13 13 0 -1
BITMAP
6080
9080
9100
9200
9400
9400
6A10
1528
2528
2528
4528
8528
8210
ENDCHAR
STARTCHAR minute
ENCODING 8242
SWIDTH 1000 0
DWIDTH 14 0
BBX 1 1 3 10
BITMAP
80
ENDCHAR
STARTCHAR second
ENCODING 8243
SWIDTH 1000 0
DWIDTH 14 0
BBX 4 3 1 8
BITMAP
50
50
A0
ENDCHAR
STARTCHAR uni2035
ENCODING 8245
SWIDTH 1000 0
DWIDTH 14 0
BBX 2 1 10 9
BITMAP
C0
ENDCHAR
STARTCHAR uni203B
ENCODING 8251
SWIDTH 1000 0
DWIDTH 14 0
BBX 11 12 1 -1
BITMAP
8020
4640
2680
1100
0A00
6460
6A60
0900
1080
2640
4640
8020
ENDCHAR
STARTCHAR uni203E
ENCODING 8254
SWIDTH 1000 0
DWIDTH 14 0
BBX 14 1 0 11
BITMAP
FFFC
ENDCHAR
STARTCHAR Euro
ENCODING 8364
SWIDTH 1000 0
DWIDTH 14 0
BBX 8 11 3 0
BITMAP
0C
32
21
41
40
FC
F8
40
41
22
1C
ENDCHAR
STARTCHAR uni2103
ENCODING 8451
SWIDTH 1000 0
DWIDTH 14 0
BBX 11 11 1 1
BITMAP
E000
A3E0
E420
0800
0800
0800
0800
0800
0400
0420
03C0
ENDCHAR
STARTCHAR afii61248
ENCODING 8453
SWIDTH 1000 0
DWIDTH 14 0
BBX 13 13 1 -1
BITMAP
3000
4810
8020
8040
8080
8100
4AE0
3510
0A08
1208
2208
4110
80E0
ENDCHAR
STARTCHAR uni2109
ENCODING 8457
SWIDTH 1000 0
DWIDTH 14 0
BBX 12 12 1 0
BITMAP
6000
9FF0
E410
0400
0440
0440
07C0
0440
0400
0400
0400
0E00
ENDCHAR
STARTCHAR afii61352
ENCODING 8470
SWIDTH 1000 0
DWIDTH 14 0
BBX 13 11 0 0
BITMAP
C300
6200
6200
5270
5288
4A88
4A88
4688
4690
4260
C2F8
ENDCHAR
STARTCHAR uni2160
ENCODING 8544
SWIDTH 1000 0
DWIDTH 14 0
BBX 4 10 5 1
BITMAP
F0
40
40
40
40
40
40
40
40
F0
ENDCHAR
STARTCHAR uni2161
ENCODING 8545
SWIDTH 1000 0
DWIDTH 14 0
BBX 9 10 2 1
BITMAP
F780
2100
2100
2100
2100
2100
2100
2100
2100
F780
ENDCHAR
STARTCHAR uni2162
ENCODING 8546
SWIDTH 1000 0
DWIDTH 14 0
BBX 12 10 1 1
BITMAP
EE70
4420
4420
4420
4420
4420
4420
4420
4420
EE70
ENDCHAR
STARTCHAR uni2163
ENCODING 8547
SWIDTH 1000 0
DWIDTH 14 0
BBX 12 10 1 1
BITMAP
EE30
4420
4420
4220
4240
4240
4140
4180
4080
E080
ENDCHAR
STARTCHAR uni2164
ENCODING 8548
SWIDTH 1000 0
DWIDTH 14 0
BBX 10 10 2 1
BITMAP
E1C0
4100
2100
2100
2200
1200
1200
0C00
0C00
0800
ENDCHAR
STARTCHAR uni2165
ENCODING 8549
SWIDTH 1000 0
DWIDTH 14 0
BBX 12 10 0 1
BITMAP
E1F0
4120
2320
2220
2220
1620
1420
1420
0C20
0870
ENDCHAR
STARTCHAR uni2166
ENCODING 8550
SWIDTH 1000 0
DWIDTH 14 0
BBX 13 10 0 1
BITMAP
CDF8
4890
4890
4890
6890
3090
3090
3090
3090
01F8
ENDCHAR
STARTCHAR uni2167
ENCODING 8551
SWIDTH 1000 0
DWIDTH 14 0
BBX 14 10 0 1
BITMAP
CB6C
4948
4948
5148
3148
3148
3148
3148
2148
036C
ENDCHAR
STARTCHAR uni2168
ENCODING 8552
SWIDTH 1000 0
DWIDTH 14 0
BBX 12 10 1 1
BITMAP
EE70
4640
4240
4380
4180
4180
4280
4240
4460
EE70
ENDCHAR
STARTCHAR uni2169
ENCODING 8553
SWIDTH 1000 0
DWIDTH 14 0
BBX 10 10 2 1
BITMAP
F380
6100
2200
1400
0C00
0C00
1600
2200
4100
F3C0
ENDCHAR
STARTCHAR uni216A
ENCODING 8554
SWIDTH 1000 0
DWIDTH 14 0
BBX 12 13 1 -1
BITMAP
E770
4220
2420
2420
2820
1820
1020
1820
2820
2420
4420
4220
E770
ENDCHAR
STARTCHAR uni216B
ENCODING 8555
SWIDTH 1000 0
DWIDTH 14 0
BBX 12 13 1 -1
BITMAP
CDB0
4890
4890
5090
3090
2090
2090
3090
5090
5090
4890
8890
DDB0
ENDCHAR
STARTCHAR uni2170
ENCODING 8560
SWIDTH 1000 0
DWIDTH 14 0
BBX 3 10 5 0
BITMAP
40
00
00
C0
40
40
40
40
40
E0
ENDCHAR
STARTCHAR uni2171
ENCODING 8561
SWIDTH 1000 0
DWIDTH 14 0
BBX 6 10 4 0
BITMAP
48
00
00
D8
48
48
48
48
48
FC
ENDCHAR
STARTCHAR uni2172
ENCODING 8562
SWIDTH 1000 0
DWIDTH 14 0
BBX 9 10 2 0
BITMAP
4900
0000
0000
DB00
4900
4900
4900
4900
4900
FF80
ENDCHAR
STARTCHAR uni2173
ENCODING 8563
SWIDTH 1000 0
DWIDTH 14 0
BBX 9 10 3 0
BITMAP
4000
0000
0000
D980
4900
4900
4A00
4600
4600
E000
ENDCHAR
STARTCHAR uni2174
ENCODING 8564
SWIDTH 1000 0
DWIDTH 14 0
BBX 8 6 3 1
BITMAP
E7
42
44
24
28
18
ENDCHAR
STARTCHAR uni2175
ENCODING 8565
SWIDTH 1000 0
DWIDTH 14 0
BBX 10 10 2 0
BITMAP
0080
0000
0000
CC80
8880
4880
5080
5080
2080
21C0
ENDCHAR
STARTCHAR uni2176
ENCODING 8566
SWIDTH 1000 0
DWIDTH 14 0
BBX 12 10 1 0
BITMAP
0120
0000
0000
CD20
8920
4920
5120
5120
2120
23F0
ENDCHAR
STARTCHAR uni2177
ENCODING 8567
SWIDTH 1000 0
DWIDTH 14 0
BBX 13 10 0 0
BITMAP
0250
0000
0000
CE50
4A50
5250
5250
5250
6250
27F8
ENDCHAR
STARTCHAR uni2178
ENCODING 8568
SWIDTH 1000 0
DWIDTH 14 0
BBX 11 10 1 0
BITMAP
4000
0000
0000
4EE0
4480
4300
4100
4280
4480
EEE0
ENDCHAR
STARTCHAR uni2179
ENCODING 8569
SWIDTH 1000 0
DWIDTH 14 0
BBX 8 7 3 0
BITMAP
E6
24
28
10
28
44
E7
ENDCHAR
STARTCHAR arrowleft
ENCODING 8592
SWIDTH 1000 0
DWIDTH 14 0
BBX 14 4 0 3
BITMAP
3000
FFFC
6000
1000
ENDCHAR
STARTCHAR arrowup
ENCODING 8593
SWIDTH 1000 0
DWIDTH 14 0
BBX 4 14 5 -2
BITMAP
40
60
E0
D0
40
40
40
40
40
40
40
40
40
40
ENDCHAR
STARTCHAR arrowright
ENCODING 8594
SWIDTH 1000 0
DWIDTH 14 0
BBX 14 4 0 3
BITMAP
0030
FFFC
0018
0020
ENDCHAR
STARTCHAR arrowdown
ENCODING 8595
SWIDTH 1000 0
DWIDTH 14 0
BBX 4 14 5 -2
BITMAP
40
40
40
40
40
40
40
40
40
40
D0
E0
60
40
ENDCHAR
STARTCHAR uni2196
ENCODING 8598
SWIDTH 1000 0
DWIDTH 14 0
BBX 14 14 0 -2
BITMAP
E000
D000
6000
9000
0800
0400
0200
0100
0080
0040
0020
0010
0008
0004
ENDCHAR
STARTCHAR uni2197
ENCODING 8599
SWIDTH 1000 0
DWIDTH 14 0
BBX 14 14 0 -2
BITMAP
001C
002C
0018
0028
0040
0080
0100
0200
0400
0800
1000
2000
4000
8000
ENDCHAR
STARTCHAR uni2198
ENCODING 8600
SWIDTH 1000 0
DWIDTH 14 0
BBX 14 14 0 -2
BITMAP
8000
4000
2000
1000
0800
0400
0200
0100
0080
0040
0028
0018
003C
0004
ENDCHAR
STARTCHAR uni2199
ENCODING 8601
SWIDTH 1000 0
DWIDTH 14 0
BBX 14 14 0 -2
BITMAP
0004
0008
0010
0020
0040
0080
0100
0200
0400
0800
9000
6000
F800
8000
ENDCHAR
STARTCHAR element
ENCODING 8712
SWIDTH 1000 0
DWIDTH 14 0
BBX 6 11 4 0
BITMAP
1C
60
80
80
FC
80
80
80
40
20
1C
ENDCHAR
STARTCHAR product
ENCODING 8719
SWIDTH 1000 0
DWIDTH 14 0
BBX 10 11 2 0
BITMAP
FF80
2100
2100
2100
2100
2100
2100
2100
2100
2100
F3C0
ENDCHAR
STARTCHAR summation
ENCODING 8721
SWIDTH 1000 0
DWIDTH 14 0
BBX 9 10 3 1
BITMAP
FE00
4100
2000
1000
0800
0800
1000
2080
C080
FF00
ENDCHAR
STARTCHAR uni2215
ENCODING 8725
SWIDTH 1000 0
DWIDTH 14 0
BBX 6 12 4 -1
BITMAP
04
08
08
10
10
20
20
40
40
80
80
80
ENDCHAR
STARTCHAR radical
ENCODING 8730
SWIDTH 1000 0
DWIDTH 14 0
BBX 14 14 0 -1
BITMAP
00FC
0100
0100
0200
0200
0400
0400
0400
0800
4800
A800
3000
3000
1000
ENDCHAR
STARTCHAR proportional
ENCODING 8733
SWIDTH 1000 0
DWIDTH 14 0
BBX 12 7 1 2
BITMAP
3830
44C0
8280
8100
8280
4440
3830
ENDCHAR
STARTCHAR infinity
ENCODING 8734
SWIDTH 1000 0
DWIDTH 14 0
BBX 12 6 1 2
BITMAP
70E0
8B10
8610
8610
8910
30E0
ENDCHAR
STARTCHAR orthogonal
ENCODING 8735
SWIDTH 1000 0
DWIDTH 14 0
BBX 10 10 2 1
BITMAP
8000
8000
8000
8000
8000
8000
8000
8000
8000
FFC0
ENDCHAR
STARTCHAR angle
ENCODING 8736
SWIDTH 1000 0
DWIDTH 14 0
BBX 10 10 2 1
BITMAP
0040
0080
0100
0200
0400
0800
1000
2000
4000
FFC0
ENDCHAR
STARTCHAR uni2223
ENCODING 8739
SWIDTH 1000 0
DWIDTH 14 0
BBX 1 14 7 -2
BITMAP
80
80
80
80
80
80
80
80
80
80
80
80
80
80
ENDCHAR
STARTCHAR uni2225
ENCODING 8741
SWIDTH 1000 0
DWIDTH 14 0
BBX 4 14 5 -2
BITMAP
90
90
90
90
90
90
90
90
90
90
90
90
90
90
ENDCHAR
STARTCHAR logicaland
ENCODING 8743
SWIDTH 1000 0
DWIDTH 14 0
BBX 12 10 1 1
BITMAP
0400
0A00
0900
1100
1080
2080
2040
4040
8020
8010
ENDCHAR
STARTCHAR logicalor
ENCODING 8744
SWIDTH 1000 0
DWIDTH 14 0
BBX 12 10 1 1
BITMAP
8010
8020
4020
4040
2080
2080
1100
0900
0A00
0600
ENDCHAR
STARTCHAR intersection
ENCODING 8745
SWIDTH 1000 0
DWIDTH 14 0
BBX 8 10 3 1
BITMAP
3C
42
81
81
81
81
81
81
81
81
ENDCHAR
STARTCHAR union
ENCODING 8746
SWIDTH 1000 0
DWIDTH 14 0
BBX 8 11 3 0
BITMAP
81
81
81
81
81
81
81
81
81
42
3C
ENDCHAR
STARTCHAR integral
ENCODING 8747
SWIDTH 1000 0
DWIDTH 14 0
BBX 3 14 5 -2
BITMAP
60
40
40
40
40
40
40
20
20
20
20
20
A0
40
ENDCHAR
STARTCHAR uni222E
ENCODING 8750
SWIDTH 1000 0
DWIDTH 14 0
BBX 7 13 4 -1
BITMAP
18
28
20
38
64
92
92
92
54
38
08
08
30
ENDCHAR
STARTCHAR therefore
ENCODING 8756
SWIDTH 1000 0
DWIDTH 14 0
BBX 10 10 2 0
BITMAP
0C00
0C00
0000
0000
0000
0000
0000
0000
C0C0
C0C0
ENDCHAR
STARTCHAR uni2235
ENCODING 8757
SWIDTH 1000 0
DWIDTH 14 0
BBX 10 10 2 0
BITMAP
C0C0
C0C0
0000
0000
0000
0000
0000
0000
0C00
0C00
ENDCHAR
STARTCHAR uni2236
ENCODING 8758
SWIDTH 1000 0
DWIDTH 14 0
BBX 1 8 6 1
BITMAP
80
00
00
00
00
00
00
80
ENDCHAR
STARTCHAR uni2237
ENCODING 8759
SWIDTH 1000 0
DWIDTH 14 0
BBX 8 8 3 1
BITMAP
81
00
00
00
00
00
00
81
ENDCHAR
STARTCHAR similar
ENCODING 8764
SWIDTH 1000 0
DWIDTH 14 0
BBX 12 3 1 4
BITMAP
3800
C610
01E0
ENDCHAR
STARTCHAR uni223D
ENCODING 8765
SWIDTH 1000 0
DWIDTH 14 0
BBX 13 6 1 2
BITMAP
60F0
8110
8208
8408
4C10
3020
ENDCHAR
STARTCHAR approxequal
ENCODING 8776
SWIDTH 1000 0
DWIDTH 14 0
BBX 12 9 1 1
BITMAP
3000
CC00
0310
00E0
0000
3000
CC00
0210
01E0
ENDCHAR
STARTCHAR uni224C
ENCODING 8780
SWIDTH 1000 0
DWIDTH 14 0
BBX 11 10 2 1
BITMAP
61C0
8220
8420
8840
7080
0000
FFC0
0000
0000
FFC0
ENDCHAR
STARTCHAR uni2252
ENCODING 8786
SWIDTH 1000 0
DWIDTH 14 0
BBX 10 9 2 1
BITMAP
3000
3000
0000
FFC0
0000
FFC0
0000
0300
0300
ENDCHAR
STARTCHAR notequal
ENCODING 8800
SWIDTH 1000 0
DWIDTH 14 0
BBX 9 8 3 1
BITMAP
0400
0800
FF80
0800
0800
FF80
1000
1000
ENDCHAR
STARTCHAR equivalence
ENCODING 8801
SWIDTH 1000 0
DWIDTH 14 0
BBX 10 6 2 2
BITMAP
FFC0
0000
FFC0
0000
0000
FFC0
ENDCHAR
STARTCHAR lessequal
ENCODING 8804
SWIDTH 1000 0
DWIDTH 14 0
BBX 10 13 2 -1
BITMAP
0040
0180
0600
1800
6000
8000
6000
9800
6600
1980
0600
0180
0040
ENDCHAR
STARTCHAR greaterequal
ENCODING 8805
SWIDTH 1000 0
DWIDTH 14 0
BBX 10 13 2 -1
BITMAP
8000
6000
1800
0600
0180
0040
0180
0640
1980
6600
0800
3000
C000
ENDCHAR
STARTCHAR uni2266
ENCODING 8806
SWIDTH 1000 0
DWIDTH 14 0
BBX 10 11 2 0
BITMAP
0040
0380
1C00
E000
E000
1E00
01C0
0000
FFC0
0000
FFC0
ENDCHAR
STARTCHAR uni2267
ENCODING 8807
SWIDTH 1000 0
DWIDTH 14 0
BBX 10 11 2 0
BITMAP
8000
7000
0E00
01C0
01C0
1E00
E000
0000
FFC0
0000
FFC0
ENDCHAR
STARTCHAR uni226E
ENCODING 8814
SWIDTH 1000 0
DWIDTH 14 0
BBX 10 10 2 0
BITMAP
0440
0580
0E00
3400
C400
4400
3400
0C00
0700
04C0
ENDCHAR
STARTCHAR uni226F
ENCODING 8815
SWIDTH 1000 0
DWIDTH 14 0
BBX 9 10 3 0
BITMAP
8800
6800
1800
0E00
0980
0880
0B00
0C00
3800
C800
ENDCHAR
STARTCHAR circleplus
ENCODING 8853
SWIDTH 1000 0
DWIDTH 14 0
BBX 10 11 2 0
BITMAP
0C00
3700
4480
8440
8440
FFC0
8440
8440
4480
2500
1E00
ENDCHAR
STARTCHAR uni2299
ENCODING 8857
SWIDTH 1000 0
DWIDTH 14 0
BBX 11 11 2 0
BITMAP
0E00
3180
4040
8040
8020
8C20
8C20
8040
4040
2080
1F00
ENDCHAR
STARTCHAR perpendicular
ENCODING 8869
SWIDTH 1000 0
DWIDTH 14 0
BBX 11 10 2 1
BITMAP
0400
0400
0400
0400
0400
0400
0400
0400
0400
FFE0
ENDCHAR
STARTCHAR uni22BF
ENCODING 8895
SWIDTH 1000 0
DWIDTH 14 0
BBX 10 10 2 1
BITMAP
0040
00C0
01C0
0340
0640
0C40
1840
3040
6040
FFC0
ENDCHAR
STARTCHAR uni2312
ENCODING 8978
SWIDTH 1000 0
DWIDTH 14 0
BBX 11 5 1 3
BITMAP
1F00
2080
4040
8020
8020
ENDCHAR
STARTCHAR uni2460
ENCODING 9312
SWIDTH 1000 0
DWIDTH 14 0
BBX 13 13 0 -1
BITMAP
0F80
3060
4210
4610
8208
8208
8208
8208
8208
4210
4710
3060
0F80
ENDCHAR
STARTCHAR uni2461
ENCODING 9313
SWIDTH 1000 0
DWIDTH 14 0
BBX 13 13 0 -1
BITMAP
0F80
3060
4710
4890
8888
8088
8108
8208
8408
4890
4F90
3060
0F80
ENDCHAR
STARTCHAR uni2462
ENCODING 9314
SWIDTH 1000 0
DWIDTH 14 0
BBX 13 13 0 -1
BITMAP
0F80
3060
4710
4890
8088
8108
8608
8108
8088
4890
4710
3060
0F80
ENDCHAR
STARTCHAR uni2463
ENCODING 9315
SWIDTH 1000 0
DWIDTH 14 0
BBX 13 13 0 -1
BITMAP
0F80
3060
4110
4110
8308
8508
8908
8908
8F88
4110
4390
3060
0F80
ENDCHAR
STARTCHAR uni2464
ENCODING 9316
SWIDTH 1000 0
DWIDTH 14 0
BBX 13 13 0 -1
BITMAP
0F80
3060
4790
4410
8408
8708
8488
8088
8088
4490
4310
3060
0F80
ENDCHAR
STARTCHAR uni2465
ENCODING 9317
SWIDTH 1000 0
DWIDTH 14 0
BBX 13 13 0 -1
BITMAP
0F80
3060
4710
4890
8808
8B08
8C88
8888
8888
4490
4310
3060
0F80
ENDCHAR
STARTCHAR uni2466
ENCODING 9318
SWIDTH 1000 0
DWIDTH 14 0
BBX 13 13 0 -1
BITMAP
0F80
3060
4F90
4890
8088
8108
8108
8208
8208
4210
4210
3060
0F80
ENDCHAR
STARTCHAR uni2467
ENCODING 9319
SWIDTH 1000 0
DWIDTH 14 0
BBX 13 13 0 -1
BITMAP
0F80
3060
4710
4890
8888
8508
8708
8888
8888
4890
4710
3060
0F80
ENDCHAR
STARTCHAR uni2468
ENCODING 9320
SWIDTH 1000 0
DWIDTH 14 0
BBX 13 13 0 -1
BITMAP
0F80
3060
4710
4890
8888
8888
8988
8688
8088
4890
4710
3060
0F80
ENDCHAR
STARTCHAR uni2469
ENCODING 9321
SWIDTH 1000 0
DWIDTH 14 0
BBX 13 13 0 -1
BITMAP
0F80
3060
4990
5A50
8A48
8A48
8A48
8A48
8A48
4A50
5D90
3060
0F80
ENDCHAR
STARTCHAR uni2474
ENCODING 9332
SWIDTH 1000 0
DWIDTH 14 0
BBX 13 13 0 -1
BITMAP
2020
4210
4610
8208
8208
8208
8208
8208
8208
8208
4210
4710
2020
ENDCHAR
STARTCHAR uni2475
ENCODING 9333
SWIDTH 1000 0
DWIDTH 14 0
BBX 13 13 0 -1
BITMAP
2020
4710
4890
8888
8088
8088
8108
8208
8408
8808
4890
4F90
2020
ENDCHAR
STARTCHAR uni2476
ENCODING 9334
SWIDTH 1000 0
DWIDTH 14 0
BBX 13 13 0 -1
BITMAP
2020
4710
4890
8888
8088
8088
8308
8088
8088
8888
4890
4710
2020
ENDCHAR
STARTCHAR uni2477
ENCODING 9335
SWIDTH 1000 0
DWIDTH 14 0
BBX 13 13 0 -1
BITMAP
2020
4110
4110
8308
8308
8508
8508
8908
8908
8FC8
4110
4390
2020
ENDCHAR
STARTCHAR uni2478
ENCODING 9336
SWIDTH 1000 0
DWIDTH 14 0
BBX 13 13 0 -1
BITMAP
2020
4F90
4810
8808
8808
8F08
8888
8088
8088
8888
4890
4710
2020
ENDCHAR
STARTCHAR uni2479
ENCODING 9337
SWIDTH 1000 0
DWIDTH 14 0
BBX 13 13 0 -1
BITMAP
2020
4710
4890
8808
8808
8B08
8C88
8888
8888
8888
4890
4710
2020
ENDCHAR
STARTCHAR uni247A
ENCODING 9338
SWIDTH 1000 0
DWIDTH 14 0
BBX 13 13 0 -1
BITMAP
2020
4F90
4890
8888
8108
8108
8108
8208
8208
8208
4210
4210
2020
ENDCHAR
STARTCHAR uni247B
ENCODING 9339
SWIDTH 1000 0
DWIDTH 14 0
BBX 13 13 0 -1
BITMAP
2020
4710
4890
8888
8888
8508
8708
8888
8888
8888
4890
4710
2020
ENDCHAR
STARTCHAR uni247C
ENCODING 9340
SWIDTH 1000 0
DWIDTH 14 0
BBX 13 13 0 -1
BITMAP
2020
4710
4890
8888
8888
8888
8988
8688
8088
8088
4890
4710
2020
ENDCHAR
STARTCHAR uni247D
ENCODING 9341
SWIDTH 1000 0
DWIDTH 14 0
BBX 13 13 0 -1
BITMAP
2020
5190
7250
9248
9248
9248
9248
9248
9248
9248
5250
7990
2020
ENDCHAR
STARTCHAR uni247E
ENCODING 9342
SWIDTH 1000 0
DWIDTH 14 0
BBX 13 11 0 0
BITMAP
4890
9990
8890
8888
8888
8888
8888
8888
8888
8890
9DD0
ENDCHAR
STARTCHAR uni247F
ENCODING 9343
SWIDTH 1000 0
DWIDTH 14 0
BBX 13 11 0 0
BITMAP
48D0
9950
8928
8928
8828
8848
8888
8888
8928
8928
9DF0
ENDCHAR
STARTCHAR uni2480
ENCODING 9344
SWIDTH 1000 0
DWIDTH 14 0
BBX 13 11 0 0
BITMAP
48D0
9930
8928
8828
8848
88C8
8828
8828
8928
8928
9CD0
ENDCHAR
STARTCHAR uni2481
ENCODING 9345
SWIDTH 1000 0
DWIDTH 14 0
BBX 13 12 0 -1
BITMAP
4830
9830
8868
8868
88A8
88A8
8928
8928
89E8
8828
9C70
0010
ENDCHAR
STARTCHAR uni2482
ENCODING 9346
SWIDTH 1000 0
DWIDTH 14 0
BBX 13 11 0 0
BITMAP
49F0
9910
8908
8908
89C8
8948
8828
8828
8928
8928
9CD0
ENDCHAR
STARTCHAR uni2483
ENCODING 9347
SWIDTH 1000 0
DWIDTH 14 0
BBX 13 11 0 0
BITMAP
4890
9950
8908
8908
8948
89C8
8928
8928
8928
8928
9CD0
ENDCHAR
STARTCHAR uni2484
ENCODING 9348
SWIDTH 1000 0
DWIDTH 14 0
BBX 13 11 0 0
BITMAP
49F0
9950
8848
8848
8848
8888
8888
8888
8888
8888
9C90
ENDCHAR
STARTCHAR uni2485
ENCODING 9349
SWIDTH 1000 0
DWIDTH 14 0
BBX 13 12 0 -1
BITMAP
48D0
9950
8928
8928
88C8
88C8
8948
8928
8928
8928
9CD0
0010
ENDCHAR
STARTCHAR uni2486
ENCODING 9350
SWIDTH 1000 0
DWIDTH 14 0
BBX 13 11 0 0
BITMAP
4890
9950
8928
8928
8928
8928
88E8
8828
8828
8948
9DD0
ENDCHAR
STARTCHAR uni2487
ENCODING 9351
SWIDTH 1000 0
DWIDTH 14 0
BBX 13 12 0 -1
BITMAP
4810
B5D0
A528
8528
8528
8928
8928
9128
9128
A548
7CD0
0010
ENDCHAR
STARTCHAR uni2488
ENCODING 9352
SWIDTH 1000 0
DWIDTH 14 0
BBX 9 12 4 -1
BITMAP
2000
E000
2000
2000
2000
2000
2000
2000
2000
2000
F880
0080
ENDCHAR
STARTCHAR uni2489
ENCODING 9353
SWIDTH 1000 0
DWIDTH 14 0
BBX 9 12 4 -1
BITMAP
7800
8400
8400
0400
0400
0800
1000
2000
4400
8400
FC80
0080
ENDCHAR
STARTCHAR uni248A
ENCODING 9354
SWIDTH 1000 0
DWIDTH 14 0
BBX 9 12 4 -1
BITMAP
7800
8400
8400
0400
0800
3000
0800
0400
8400
8400
7880
0080
ENDCHAR
STARTCHAR uni248B
ENCODING 9355
SWIDTH 1000 0
DWIDTH 14 0
BBX 10 12 3 -1
BITMAP
0800
1800
1800
2800
2800
4800
4800
8800
FE00
0800
1C40
0040
ENDCHAR
STARTCHAR uni248C
ENCODING 9356
SWIDTH 1000 0
DWIDTH 14 0
BBX 9 12 4 -1
BITMAP
FC00
8000
8000
8000
B000
C800
0400
0400
8400
8800
7080
0080
ENDCHAR
STARTCHAR uni248D
ENCODING 9357
SWIDTH 1000 0
DWIDTH 14 0
BBX 9 12 4 -1
BITMAP
3800
4400
8000
8000
B000
C800
8400
8400
8400
4800
3080
0080
ENDCHAR
STARTCHAR uni248E
ENCODING 9358
SWIDTH 1000 0
DWIDTH 14 0
BBX 9 12 4 -1
BITMAP
FC00
8400
8400
0800
0800
1000
1000
2000
2000
2000
2080
0080
ENDCHAR
STARTCHAR uni248F
ENCODING 9359
SWIDTH 1000 0
DWIDTH 14 0
BBX 9 12 4 -1
BITMAP
7000
8800
8800
8800
5000
2000
5800
8400
8400
8400
7800
0080
ENDCHAR
STARTCHAR uni2490
ENCODING 9360
SWIDTH 1000 0
DWIDTH 14 0
BBX 9 12 4 -1
BITMAP
3000
4800
8800
8400
8400
8C00
7400
0400
0800
4800
7000
0080
ENDCHAR
STARTCHAR uni2491
ENCODING 9361
SWIDTH 1000 0
DWIDTH 14 0
BBX 10 12 3 -1
BITMAP
4400
CA00
4A00
4900
4900
4900
4900
4900
4900
4A00
E600
0040
ENDCHAR
STARTCHAR uni2492
ENCODING 9362
SWIDTH 1000 0
DWIDTH 14 0
BBX 10 12 3 -1
BITMAP
4400
CC00
4400
4400
4400
4400
4400
4400
4400
4400
EE00
0040
ENDCHAR
STARTCHAR uni2493
ENCODING 9363
SWIDTH 1000 0
DWIDTH 14 0
BBX 10 12 3 -1
BITMAP
4600
C900
4900
4900
4100
4200
4400
4400
4900
4900
EF00
0040
ENDCHAR
STARTCHAR uni2494
ENCODING 9364
SWIDTH 1000 0
DWIDTH 14 0
BBX 10 12 3 -1
BITMAP
4600
C900
4900
4100
4200
4600
4100
4100
4100
4900
E600
0040
ENDCHAR
STARTCHAR uni2495
ENCODING 9365
SWIDTH 1000 0
DWIDTH 14 0
BBX 10 12 3 -1
BITMAP
4000
C200
4200
4200
4600
4A00
4A00
4A00
4F00
4200
E700
0040
ENDCHAR
STARTCHAR uni2496
ENCODING 9366
SWIDTH 1000 0
DWIDTH 14 0
BBX 10 12 3 -1
BITMAP
4E00
C800
4800
4800
4E00
4A00
4100
4100
4900
4A00
E600
0040
ENDCHAR
STARTCHAR uni2497
ENCODING 9367
SWIDTH 1000 0
DWIDTH 14 0
BBX 10 12 3 -1
BITMAP
4400
CA00
4800
4800
4A00
4E00
4900
4900
4900
4A00
E600
0040
ENDCHAR
STARTCHAR uni2498
ENCODING 9368
SWIDTH 1000 0
DWIDTH 14 0
BBX 10 12 3 -1
BITMAP
4F00
C900
4200
4200
4200
4400
4400
4400
4400
4400
E400
0040
ENDCHAR
STARTCHAR uni2499
ENCODING 9369
SWIDTH 1000 0
DWIDTH 14 0
BBX 10 12 3 -1
BITMAP
4600
CA00
4900
4900
4A00
4600
4A00
4900
4900
4900
E600
0040
ENDCHAR
STARTCHAR uni249A
ENCODING 9370
SWIDTH 1000 0
DWIDTH 14 0
BBX 10 12 3 -1
BITMAP
4400
CA00
4900
4900
4900
4900
4700
4100
4100
4A00
EE00
0040
ENDCHAR
STARTCHAR uni249B
ENCODING 9371
SWIDTH 1000 0
DWIDTH 14 0
BBX 11 12 2 -1
BITMAP
6200
9500
9500
1480
1480
2480
2480
4480
8480
9500
F300
0020
ENDCHAR
STARTCHAR SF100000
ENCODING 9472
SWIDTH 1000 0
DWIDTH 14 0
BBX 14 1 0 5
BITMAP
FFFC
ENDCHAR
STARTCHAR uni2501
ENCODING 9473
SWIDTH 1000 0
DWIDTH 14 0
BBX 14 2 0 4
BITMAP
FFFC
FFFC
ENDCHAR
STARTCHAR SF110000
ENCODING 9474
SWIDTH 1000 0
DWIDTH 14 0
BBX 1 14 7 -2
BITMAP
80
80
80
80
80
80
80
80
80
80
80
80
80
80
ENDCHAR
STARTCHAR uni2503
ENCODING 9475
SWIDTH 1000 0
DWIDTH 14 0
BBX 2 14 6 -2
BITMAP
C0
C0
C0
C0
C0
C0
C0
C0
C0
C0
C0
C0
C0
C0
ENDCHAR
STARTCHAR uni2504
ENCODING 9476
SWIDTH 1000 0
DWIDTH 14 0
BBX 13 1 0 5
BITMAP
E738
ENDCHAR
STARTCHAR uni2505
ENCODING 9477
SWIDTH 1000 0
DWIDTH 14 0
BBX 13 2 0 4
BITMAP
E738
E738
ENDCHAR
STARTCHAR uni2506
ENCODING 9478
SWIDTH 1000 0
DWIDTH 14 0
BBX 1 13 6 -1
BITMAP
80
80
80
00
00
80
80
80
00
00
80
80
80
ENDCHAR
STARTCHAR uni2507
ENCODING 9479
SWIDTH 1000 0
DWIDTH 14 0
BBX 2 13 6 -1
BITMAP
C0
C0
C0
00
00
C0
C0
C0
00
00
C0
C0
C0
ENDCHAR
STARTCHAR uni2508
ENCODING 9480
SWIDTH 1000 0
DWIDTH 14 0
BBX 13 1 0 5
BITMAP
CCD8
ENDCHAR
STARTCHAR uni2509
ENCODING 9481
SWIDTH 1000 0
DWIDTH 14 0
BBX 14 2 0 4
BITMAP
DDDC
DDDC
ENDCHAR
STARTCHAR uni250A
ENCODING 9482
SWIDTH 1000 0
DWIDTH 14 0
BBX 1 12 6 0
BITMAP
80
80
00
80
80
00
80
80
00
80
80
80
ENDCHAR
STARTCHAR uni250B
ENCODING 9483
SWIDTH 1000 0
DWIDTH 14 0
BBX 2 13 6 -1
BITMAP
C0
C0
C0
00
C0
C0
00
C0
C0
00
C0
C0
C0
ENDCHAR
STARTCHAR SF010000
ENCODING 9484
SWIDTH 1000 0
DWIDTH 14 0
BBX 7 8 7 -2
BITMAP
FE
80
80
80
80
80
80
80
ENDCHAR
STARTCHAR uni250D
ENCODING 9485
SWIDTH 1000 0
DWIDTH 14 0
BBX 8 8 6 -2
BITMAP
FF
FF
80
80
80
80
80
80
ENDCHAR
STARTCHAR uni250E
ENCODING 9486
SWIDTH 1000 0
DWIDTH 14 0
BBX 8 8 6 -2
BITMAP
FF
C0
C0
C0
C0
C0
C0
C0
ENDCHAR
STARTCHAR uni250F
ENCODING 9487
SWIDTH 1000 0
DWIDTH 14 0
BBX 8 8 6 -2
BITMAP
FF
FF
C0
C0
C0
C0
C0
C0
ENDCHAR
STARTCHAR SF030000
ENCODING 9488
SWIDTH 1000 0
DWIDTH 14 0
BBX 8 8 0 -2
BITMAP
FF
01
01
01
01
01
01
01
ENDCHAR
STARTCHAR uni2511
ENCODING 9489
SWIDTH 1000 0
DWIDTH 14 0
BBX 7 8 0 -2
BITMAP
FE
FE
02
02
02
02
02
02
ENDCHAR
STARTCHAR uni2512
ENCODING 9490
SWIDTH 1000 0
DWIDTH 14 0
BBX 8 8 0 -2
BITMAP
FF
03
03
03
03
03
03
03
ENDCHAR
STARTCHAR uni2513
ENCODING 9491
SWIDTH 1000 0
DWIDTH 14 0
BBX 8 8 0 -2
BITMAP
FF
FF
03
03
03
03
03
03
ENDCHAR
STARTCHAR SF020000
ENCODING 9492
SWIDTH 1000 0
DWIDTH 14 0
BBX 7 7 7 5
BITMAP
80
80
80
80
80
80
FE
ENDCHAR
STARTCHAR uni2515
ENCODING 9493
SWIDTH 1000 0
DWIDTH 14 0
BBX 8 8 6 4
BITMAP
80
80
80
80
80
80
FF
FF
ENDCHAR
STARTCHAR uni2516
ENCODING 9494
SWIDTH 1000 0
DWIDTH 14 0
BBX 8 7 6 5
BITMAP
C0
C0
C0
C0
C0
C0
FF
ENDCHAR
STARTCHAR uni2517
ENCODING 9495
SWIDTH 1000 0
DWIDTH 14 0
BBX 8 8 6 4
BITMAP
C0
C0
C0
C0
C0
C0
FF
FF
ENDCHAR
STARTCHAR SF040000
ENCODING 9496
SWIDTH 1000 0
DWIDTH 14 0
BBX 8 7 0 5
BITMAP
01
01
01
01
01
01
FF
ENDCHAR
STARTCHAR uni2519
ENCODING 9497
SWIDTH 1000 0
DWIDTH 14 0
BBX 7 8 0 4
BITMAP
02
02
02
02
02
02
FE
FE
ENDCHAR
STARTCHAR uni251A
ENCODING 9498
SWIDTH 1000 0
DWIDTH 14 0
BBX 8 7 0 5
BITMAP
03
03
03
03
03
03
FF
ENDCHAR
STARTCHAR uni251B
ENCODING 9499
SWIDTH 1000 0
DWIDTH 14 0
BBX 8 8 0 4
BITMAP
03
03
03
03
03
03
FF
FF
ENDCHAR
STARTCHAR SF080000
ENCODING 9500
SWIDTH 1000 0
DWIDTH 14 0
BBX 7 14 7 -2
BITMAP
80
80
80
80
80
80
FE
80
80
80
80
80
80
80
ENDCHAR
STARTCHAR uni251D
ENCODING 9501
SWIDTH 1000 0
DWIDTH 14 0
BBX 8 14 6 -2
BITMAP
80
80
80
80
80
80
FF
FF
80
80
80
80
80
80
ENDCHAR
STARTCHAR uni251E
ENCODING 9502
SWIDTH 1000 0
DWIDTH 14 0
BBX 8 14 6 -2
BITMAP
C0
C0
C0
C0
C0
C0
FF
80
80
80
80
80
80
80
ENDCHAR
STARTCHAR uni251F
ENCODING 9503
SWIDTH 1000 0
DWIDTH 14 0
BBX 8 14 6 -2
BITMAP
80
80
80
80
80
80
FF
C0
C0
C0
C0
C0
C0
C0
ENDCHAR
STARTCHAR uni2520
ENCODING 9504
SWIDTH 1000 0
DWIDTH 14 0
BBX 8 14 6 -2
BITMAP
C0
C0
C0
C0
C0
C0
FF
C0
C0
C0
C0
C0
C0
C0
ENDCHAR
STARTCHAR uni2521
ENCODING 9505
SWIDTH 1000 0
DWIDTH 14 0
BBX 8 14 6 -2
BITMAP
C0
C0
C0
C0
C0
C0
FF
FF
80
80
80
80
80
80
ENDCHAR
STARTCHAR uni2522
ENCODING 9506
SWIDTH 1000 0
DWIDTH 14 0
BBX 8 14 6 -2
BITMAP
80
80
80
80
80
80
FF
FF
C0
C0
C0
C0
C0
C0
ENDCHAR
STARTCHAR uni2523
ENCODING 9507
SWIDTH 1000 0
DWIDTH 14 0
BBX 8 14 6 -2
BITMAP
C0
C0
C0
C0
C0
C0
FF
FF
C0
C0
C0
C0
C0
C0
ENDCHAR
STARTCHAR SF090000
ENCODING 9508
SWIDTH 1000 0
DWIDTH 14 0
BBX 8 14 0 -2
BITMAP
01
01
01
01
01
01
FF
01
01
01
01
01
01
01
ENDCHAR
STARTCHAR uni2525
ENCODING 9509
SWIDTH 1000 0
DWIDTH 14 0
BBX 7 14 0 -2
BITMAP
02
02
02
02
02
02
FE
FE
02
02
02
02
02
02
ENDCHAR
STARTCHAR uni2526
ENCODING 9510
SWIDTH 1000 0
DWIDTH 14 0
BBX 7 14 0 -2
BITMAP
06
06
06
06
06
06
FE
02
02
02
02
02
02
02
ENDCHAR
STARTCHAR uni2527
ENCODING 9511
SWIDTH 1000 0
DWIDTH 14 0
BBX 7 14 0 -2
BITMAP
02
02
02
02
02
02
FE
06
06
06
06
06
06
06
ENDCHAR
STARTCHAR uni2528
ENCODING 9512
SWIDTH 1000 0
DWIDTH 14 0
BBX 8 14 0 -2
BITMAP
03
03
03
03
03
03
FF
03
03
03
03
03
03
03
ENDCHAR
STARTCHAR uni2529
ENCODING 9513
SWIDTH 1000 0
DWIDTH 14 0
BBX 7 14 0 -2
BITMAP
06
06
06
06
06
06
FE
FE
02
02
02
02
02
02
ENDCHAR
STARTCHAR uni252A
ENCODING 9514
SWIDTH 1000 0
DWIDTH 14 0
BBX 7 14 0 -2
BITMAP
02
02
02
02
02
02
FE
FE
06
06
06
06
06
06
ENDCHAR
STARTCHAR uni252B
ENCODING 9515
SWIDTH 1000 0
DWIDTH 14 0
BBX 8 14 0 -2
BITMAP
03
03
03
03
03
03
FF
FF
03
03
03
03
03
03
ENDCHAR
STARTCHAR SF060000
ENCODING 9516
SWIDTH 1000 0
DWIDTH 14 0
BBX 14 8 0 -2
BITMAP
FFFC
0100
0100
0100
0100
0100
0100
0100
ENDCHAR
STARTCHAR uni252D
ENCODING 9517
SWIDTH 1000 0
DWIDTH 14 0
BBX 14 8 0 -2
BITMAP
FFFC
FE00
0200
0200
0200
0200
0200
0200
ENDCHAR
STARTCHAR uni252E
ENCODING 9518
SWIDTH 1000 0
DWIDTH 14 0
BBX 14 8 0 -2
BITMAP
FFFC
03FC
0200
0200
0200
0200
0200
0200
ENDCHAR
STARTCHAR uni252F
ENCODING 9519
SWIDTH 1000 0
DWIDTH 14 0
BBX 14 8 0 -2
BITMAP
FFFC
FFFC
0200
0200
0200
0200
0200
0200
ENDCHAR
STARTCHAR uni2530
ENCODING 9520
SWIDTH 1000 0
DWIDTH 14 0
BBX 14 8 0 -2
BITMAP
FFFC
0300
0300
0300
0300
0300
0300
0300
ENDCHAR
STARTCHAR uni2531
ENCODING 9521
SWIDTH 1000 0
DWIDTH 14 0
BBX 14 8 0 -2
BITMAP
FFFC
FF00
0300
0300
0300
0300
0300
0300
ENDCHAR
STARTCHAR uni2532
ENCODING 9522
SWIDTH 1000 0
DWIDTH 14 0
BBX 14 8 0 -2
BITMAP
FFFC
03FC
0300
0300
0300
0300
0300
0300
ENDCHAR
STARTCHAR uni2533
ENCODING 9523
SWIDTH 1000 0
DWIDTH 14 0
BBX 14 8 0 -2
BITMAP
FFFC
FFFC
0300
0300
0300
0300
0300
0300
ENDCHAR
STARTCHAR SF070000
ENCODING 9524
SWIDTH 1000 0
DWIDTH 14 0
BBX 14 7 0 5
BITMAP
0100
0100
0100
0100
0100
0100
FFFC
ENDCHAR
STARTCHAR uni2535
ENCODING 9525
SWIDTH 1000 0
DWIDTH 14 0
BBX 14 7 0 5
BITMAP
0200
0200
0200
0200
0200
FE00
FFFC
ENDCHAR
STARTCHAR uni2536
ENCODING 9526
SWIDTH 1000 0
DWIDTH 14 0
BBX 14 7 0 5
BITMAP
0200
0200
0200
0200
0200
03FC
FFFC
ENDCHAR
STARTCHAR uni2537
ENCODING 9527
SWIDTH 1000 0
DWIDTH 14 0
BBX 14 8 0 4
BITMAP
0200
0200
0200
0200
0200
0200
FFFC
FFFC
ENDCHAR
STARTCHAR uni2538
ENCODING 9528
SWIDTH 1000 0
DWIDTH 14 0
BBX 14 7 0 5
BITMAP
0300
0300
0300
0300
0300
0300
FFFC
ENDCHAR
STARTCHAR uni2539
ENCODING 9529
SWIDTH 1000 0
DWIDTH 14 0
BBX 14 7 0 5
BITMAP
0300
0300
0300
0300
0300
FF00
FFFC
ENDCHAR
STARTCHAR uni253A
ENCODING 9530
SWIDTH 1000 0
DWIDTH 14 0
BBX 14 7 0 5
BITMAP
0300
0300
0300
0300
0300
03FC
FFFC
ENDCHAR
STARTCHAR uni253B
ENCODING 9531
SWIDTH 1000 0
DWIDTH 14 0
BBX 14 8 0 4
BITMAP
0300
0300
0300
0300
0300
0300
FFFC
FFFC
ENDCHAR
STARTCHAR SF050000
ENCODING 9532
SWIDTH 1000 0
DWIDTH 14 0
BBX 14 14 0 -2
BITMAP
0100
0100
0100
0100
0100
0100
FFFC
0100
0100
0100
0100
0100
0100
0100
ENDCHAR
STARTCHAR uni253D
ENCODING 9533
SWIDTH 1000 0
DWIDTH 14 0
BBX 14 14 0 -2
BITMAP
0200
0200
0200
0200
0200
0200
FFFC
FE00
0200
0200
0200
0200
0200
0200
ENDCHAR
STARTCHAR uni253E
ENCODING 9534
SWIDTH 1000 0
DWIDTH 14 0
BBX 14 14 0 -2
BITMAP
0200
0200
0200
0200
0200
0200
FFFC
03FC
0200
0200
0200
0200
0200
0200
ENDCHAR
STARTCHAR uni253F
ENCODING 9535
SWIDTH 1000 0
DWIDTH 14 0
BBX 14 14 0 -2
BITMAP
0200
0200
0200
0200
0200
0200
FFFC
FFFC
0200
0200
0200
0200
0200
0200
ENDCHAR
STARTCHAR uni2540
ENCODING 9536
SWIDTH 1000 0
DWIDTH 14 0
BBX 14 14 0 -2
BITMAP
0300
0300
0300
0300
0300
0300
FFFC
0200
0200
0200
0200
0200
0200
0200
ENDCHAR
STARTCHAR uni2541
ENCODING 9537
SWIDTH 1000 0
DWIDTH 14 0
BBX 14 14 0 -2
BITMAP
0200
0200
0200
0200
0200
0200
FFFC
0300
0300
0300
0300
0300
0300
0300
ENDCHAR
STARTCHAR uni2542
ENCODING 9538
SWIDTH 1000 0
DWIDTH 14 0
BBX 14 14 0 -2
BITMAP
0300
0300
0300
0300
0300
0300
FFFC
0300
0300
0300
0300
0300
0300
0300
ENDCHAR
STARTCHAR uni2543
ENCODING 9539
SWIDTH 1000 0
DWIDTH 14 0
BBX 14 14 0 -2
BITMAP
0600
0600
0600
0600
0600
0600
FFFC
FE00
0200
0200
0200
0200
0200
0200
ENDCHAR
STARTCHAR uni2544
ENCODING 9540
SWIDTH 1000 0
DWIDTH 14 0
BBX 14 14 0 -2
BITMAP
0300
0300
0300
0300
0300
03FC
FFFC
0200
0200
0200
0200
0200
0200
0200
ENDCHAR
STARTCHAR uni2545
ENCODING 9541
SWIDTH 1000 0
DWIDTH 14 0
BBX 14 14 0 -2
BITMAP
0200
0200
0200
0200
0200
0200
FFFC
FE00
0600
0600
0600
0600
0600
0600
ENDCHAR
STARTCHAR uni2546
ENCODING 9542
SWIDTH 1000 0
DWIDTH 14 0
BBX 14 14 0 -2
BITMAP
0200
0200
0200
0200
0200
0200
FFFC
03FC
0300
0300
0300
0300
0300
0300
ENDCHAR
STARTCHAR uni2547
ENCODING 9543
SWIDTH 1000 0
DWIDTH 14 0
BBX 14 14 0 -2
BITMAP
0300
0300
0300
0300
0300
0300
FFFC
FFFC
0200
0200
0200
0200
0200
0200
ENDCHAR
STARTCHAR uni2548
ENCODING 9544
SWIDTH 1000 0
DWIDTH 14 0
BBX 14 14 0 -2
BITMAP
0200
0200
0200
0200
0200
0200
FFFC
FFFC
0300
0300
0300
0300
0300
0300
ENDCHAR
STARTCHAR uni2549
ENCODING 9545
SWIDTH 1000 0
DWIDTH 14 0
BBX 14 14 0 -2
BITMAP
0300
0300
0300
0300
0300
0300
FFFC
FF00
0300
0300
0300
0300
0300
0300
ENDCHAR
STARTCHAR uni254A
ENCODING 9546
SWIDTH 1000 0
DWIDTH 14 0
BBX 14 14 0 -2
BITMAP
0300
0300
0300
0300
0300
0300
FFFC
03FC
0300
0300
0300
0300
0300
0300
ENDCHAR
STARTCHAR uni254B
ENCODING 9547
SWIDTH 1000 0
DWIDTH 14 0
BBX 14 14 0 -2
BITMAP
0300
0300
0300
0300
0300
0300
FFFC
FFFC
0300
0300
0300
0300
0300
0300
ENDCHAR
STARTCHAR SF430000
ENCODING 9552
SWIDTH 1000 0
DWIDTH 14 0
BBX 14 3 0 3
BITMAP
FFFC
0000
FFFC
ENDCHAR
STARTCHAR SF240000
ENCODING 9553
SWIDTH 1000 0
DWIDTH 14 0
BBX 3 14 5 -2
BITMAP
A0
A0
A0
A0
A0
A0
A0
A0
A0
A0
A0
A0
A0
A0
ENDCHAR
STARTCHAR SF510000
ENCODING 9554
SWIDTH 1000 0
DWIDTH 14 0
BBX 7 8 7 -2
BITMAP
FE
80
FE
80
80
80
80
80
ENDCHAR
STARTCHAR SF520000
ENCODING 9555
SWIDTH 1000 0
DWIDTH 14 0
BBX 8 8 6 -2
BITMAP
FF
A0
A0
A0
A0
A0
A0
A0
ENDCHAR
STARTCHAR SF390000
ENCODING 9556
SWIDTH 1000 0
DWIDTH 14 0
BBX 8 8 6 -2
BITMAP
FF
80
BF
A0
A0
A0
A0
A0
ENDCHAR
STARTCHAR SF220000
ENCODING 9557
SWIDTH 1000 0
DWIDTH 14 0
BBX 8 8 0 -2
BITMAP
FF
01
FF
01
01
01
01
01
ENDCHAR
STARTCHAR SF210000
ENCODING 9558
SWIDTH 1000 0
DWIDTH 14 0
BBX 8 8 0 -2
BITMAP
FF
05
05
05
05
05
05
05
ENDCHAR
STARTCHAR SF250000
ENCODING 9559
SWIDTH 1000 0
DWIDTH 14 0
BBX 8 8 0 -2
BITMAP
FF
01
FD
05
05
05
05
05
ENDCHAR
STARTCHAR SF500000
ENCODING 9560
SWIDTH 1000 0
DWIDTH 14 0
BBX 7 8 7 4
BITMAP
80
80
80
80
80
FE
80
FE
ENDCHAR
STARTCHAR SF490000
ENCODING 9561
SWIDTH 1000 0
DWIDTH 14 0
BBX 8 7 6 5
BITMAP
A0
A0
A0
A0
A0
A0
FF
ENDCHAR
STARTCHAR SF380000
ENCODING 9562
SWIDTH 1000 0
DWIDTH 14 0
BBX 8 8 6 4
BITMAP
A0
A0
A0
A0
A0
BF
80
FF
ENDCHAR
STARTCHAR SF280000
ENCODING 9563
SWIDTH 1000 0
DWIDTH 14 0
BBX 8 8 0 4
BITMAP
01
01
01
01
01
FF
01
FF
ENDCHAR
STARTCHAR SF270000
ENCODING 9564
SWIDTH 1000 0
DWIDTH 14 0
BBX 8 7 0 5
BITMAP
05
05
05
05
05
05
FF
ENDCHAR
STARTCHAR SF260000
ENCODING 9565
SWIDTH 1000 0
DWIDTH 14 0
BBX 8 8 0 4
BITMAP
05
05
05
05
05
FD
01
FF
ENDCHAR
STARTCHAR SF360000
ENCODING 9566
SWIDTH 1000 0
DWIDTH 14 0
BBX 7 14 7 -2
BITMAP
80
80
80
80
80
FE
80
FE
80
80
80
80
80
80
ENDCHAR
STARTCHAR SF370000
ENCODING 9567
SWIDTH 1000 0
DWIDTH 14 0
BBX 9 14 5 -2
BITMAP
A000
A000
A000
A000
A000
A000
BF80
A000
A000
A000
A000
A000
A000
A000
ENDCHAR
STARTCHAR SF420000
ENCODING 9568
SWIDTH 1000 0
DWIDTH 14 0
BBX 8 14 6 -2
BITMAP
A0
A0
A0
A0
A0
BF
80
BF
A0
A0
A0
A0
A0
A0
ENDCHAR
STARTCHAR SF190000
ENCODING 9569
SWIDTH 1000 0
DWIDTH 14 0
BBX 8 14 0 -2
BITMAP
01
01
01
01
01
FF
01
FF
01
01
01
01
01
01
ENDCHAR
STARTCHAR SF200000
ENCODING 9570
SWIDTH 1000 0
DWIDTH 14 0
BBX 9 14 0 -2
BITMAP
0280
0280
0280
0280
0280
0280
FE80
0280
0280
0280
0280
0280
0280
0280
ENDCHAR
STARTCHAR SF230000
ENCODING 9571
SWIDTH 1000 0
DWIDTH 14 0
BBX 8 14 0 -2
BITMAP
05
05
05
05
05
FD
01
FD
05
05
05
05
05
05
ENDCHAR
STARTCHAR SF470000
ENCODING 9572
SWIDTH 1000 0
DWIDTH 14 0
BBX 14 9 0 -2
BITMAP
FFFC
0000
FFFC
0100
0100
0100
0100
0100
0100
ENDCHAR
STARTCHAR SF480000
ENCODING 9573
SWIDTH 1000 0
DWIDTH 14 0
BBX 14 8 0 -2
BITMAP
FFFC
0500
0500
0500
0500
0500
0500
0500
ENDCHAR
STARTCHAR SF410000
ENCODING 9574
SWIDTH 1000 0
DWIDTH 14 0
BBX 14 8 0 -2
BITMAP
FFFC
0000
FEFC
0280
0280
0280
0280
0280
ENDCHAR
STARTCHAR SF450000
ENCODING 9575
SWIDTH 1000 0
DWIDTH 14 0
BBX 14 9 0 3
BITMAP
0100
0100
0100
0100
0100
0100
FFFC
0000
FFFC
ENDCHAR
STARTCHAR SF460000
ENCODING 9576
SWIDTH 1000 0
DWIDTH 14 0
BBX 14 7 0 5
BITMAP
0280
0280
0280
0280
0280
0280
FFFC
ENDCHAR
STARTCHAR SF400000
ENCODING 9577
SWIDTH 1000 0
DWIDTH 14 0
BBX 14 8 0 4
BITMAP
0500
0500
0500
0500
0500
FDFC
0000
FFFC
ENDCHAR
STARTCHAR SF540000
ENCODING 9578
SWIDTH 1000 0
DWIDTH 14 0
BBX 14 14 0 -2
BITMAP
0100
0100
0100
0100
0100
FFFC
0000
FFFC
0100
0100
0100
0100
0100
0100
ENDCHAR
STARTCHAR SF530000
ENCODING 9579
SWIDTH 1000 0
DWIDTH 14 0
BBX 14 14 0 -2
BITMAP
0280
0280
0280
0280
0280
0280
FEFC
0280
0280
0280
0280
0280
0280
0280
ENDCHAR
STARTCHAR SF440000
ENCODING 9580
SWIDTH 1000 0
DWIDTH 14 0
BBX 14 14 0 -2
BITMAP
0280
0280
0280
0280
0280
0280
FEFC
0000
FEFC
0280
0280
0280
0280
0280
ENDCHAR
STARTCHAR uni256D
ENCODING 9581
SWIDTH 1000 0
DWIDTH 14 0
BBX 7 8 7 -2
BITMAP
0E
30
40
40
80
80
80
80
ENDCHAR
STARTCHAR uni256E
ENCODING 9582
SWIDTH 1000 0
DWIDTH 14 0
BBX 7 8 0 -2
BITMAP
E0
10
08
04
04
02
02
02
ENDCHAR
STARTCHAR uni256F
ENCODING 9583
SWIDTH 1000 0
DWIDTH 14 0
BBX 8 7 0 5
BITMAP
01
01
02
02
04
18
E0
ENDCHAR
STARTCHAR uni2570
ENCODING 9584
SWIDTH 1000 0
DWIDTH 14 0
BBX 7 7 7 5
BITMAP
80
80
80
40
20
10
0E
ENDCHAR
STARTCHAR uni2571
ENCODING 9585
SWIDTH 1000 0
DWIDTH 14 0
BBX 14 14 0 -2
BITMAP
0004
0008
0010
0020
0040
0080
0100
0200
0400
0800
1000
2000
4000
8000
ENDCHAR
STARTCHAR uni2572
ENCODING 9586
SWIDTH 1000 0
DWIDTH 14 0
BBX 14 14 0 -2
BITMAP
8000
4000
2000
1000
0800
0400
0200
0100
0080
0040
0020
0010
0008
0004
ENDCHAR
STARTCHAR uni2573
ENCODING 9587
SWIDTH 1000 0
DWIDTH 14 0
BBX 14 14 0 -2
BITMAP
8004
4008
2010
1020
0840
0480
0300
0300
0480
0840
1020
2010
4008
8004
ENDCHAR
STARTCHAR uni2574
ENCODING 9588
SWIDTH 1000 0
DWIDTH 14 0
BBX 14 1 0 11
BITMAP
FFFC
ENDCHAR
STARTCHAR uni2581
ENCODING 9601
SWIDTH 1000 0
DWIDTH 14 0
BBX 14 2 0 -2
BITMAP
FFFC
FFFC
ENDCHAR
STARTCHAR uni2582
ENCODING 9602
SWIDTH 1000 0
DWIDTH 14 0
BBX 14 4 0 -2
BITMAP
FFFC
FFFC
FFFC
FFFC
ENDCHAR
STARTCHAR uni2583
ENCODING 9603
SWIDTH 1000 0
DWIDTH 14 0
BBX 14 5 0 -2
BITMAP
FFFC
FFFC
FFFC
FFFC
FFFC
ENDCHAR
STARTCHAR dnblock
ENCODING 9604
SWIDTH 1000 0
DWIDTH 14 0
BBX 14 7 0 -2
BITMAP
FFFC
FFFC
FFFC
FFFC
FFFC
FFFC
FFFC
ENDCHAR
STARTCHAR uni2585
ENCODING 9605
SWIDTH 1000 0
DWIDTH 14 0
BBX 14 9 0 -2
BITMAP
FFFC
FFFC
FFFC
FFFC
FFFC
FFFC
FFFC
FFFC
FFFC
ENDCHAR
STARTCHAR uni2586
ENCODING 9606
SWIDTH 1000 0
DWIDTH 14 0
BBX 14 11 0 -2
BITMAP
FFFC
FFFC
FFFC
FFFC
FFFC
FFFC
FFFC
FFFC
FFFC
FFFC
FFFC
ENDCHAR
STARTCHAR uni2587
ENCODING 9607
SWIDTH 1000 0
DWIDTH 14 0
BBX 14 12 0 -2
BITMAP
FFFC
FFFC
FFFC
FFFC
FFFC
FFFC
FFFC
FFFC
FFFC
FFFC
FFFC
FFFC
ENDCHAR
STARTCHAR block
ENCODING 9608
SWIDTH 1000 0
DWIDTH 14 0
BBX 14 14 0 -2
BITMAP
FFFC
FFFC
FFFC
FFFC
FFFC
FFFC
FFFC
FFFC
FFFC
FFFC
FFFC
FFFC
FFFC
FFFC
ENDCHAR
STARTCHAR uni2589
ENCODING 9609
SWIDTH 1000 0
DWIDTH 14 0
BBX 12 14 0 -2
BITMAP
FFF0
FFF0
FFF0
FFF0
FFF0
FFF0
FFF0
FFF0
FFF0
FFF0
FFF0
FFF0
FFF0
FFF0
ENDCHAR
STARTCHAR uni258A
ENCODING 9610
SWIDTH 1000 0
DWIDTH 14 0
BBX 11 14 0 -2
BITMAP
FFE0
FFE0
FFE0
FFE0
FFE0
FFE0
FFE0
FFE0
FFE0
FFE0
FFE0
FFE0
FFE0
FFE0
ENDCHAR
STARTCHAR uni258B
ENCODING 9611
SWIDTH 1000 0
DWIDTH 14 0
BBX 9 14 0 -2
BITMAP
FF80
FF80
FF80
FF80
FF80
FF80
FF80
FF80
FF80
FF80
FF80
FF80
FF80
FF80
ENDCHAR
STARTCHAR lfblock
ENCODING 9612
SWIDTH 1000 0
DWIDTH 14 0
BBX 7 14 0 -2
BITMAP
FE
FE
FE
FE
FE
FE
FE
FE
FE
FE
FE
FE
FE
FE
ENDCHAR
STARTCHAR uni258D
ENCODING 9613
SWIDTH 1000 0
DWIDTH 14 0
BBX 5 14 0 -2
BITMAP
F8
F8
F8
F8
F8
F8
F8
F8
F8
F8
F8
F8
F8
F8
ENDCHAR
STARTCHAR uni258E
ENCODING 9614
SWIDTH 1000 0
DWIDTH 14 0
BBX 4 14 0 -2
BITMAP
F0
F0
F0
F0
F0
F0
F0
F0
F0
F0
F0
F0
F0
F0
ENDCHAR
STARTCHAR uni258F
ENCODING 9615
SWIDTH 1000 0
DWIDTH 14 0
BBX 2 14 0 -2
BITMAP
C0
C0
C0
C0
C0
C0
C0
C0
C0
C0
C0
C0
C0
C0
ENDCHAR
STARTCHAR dkshade
ENCODING 9619
SWIDTH 1000 0
DWIDTH 14 0
BBX 12 12 1 -1
BITMAP
FFF0
FFF0
FFF0
FFF0
FFF0
FFF0
FFF0
FFF0
FFF0
FFF0
FFF0
FFF0
ENDCHAR
STARTCHAR uni2594
ENCODING 9620
SWIDTH 1000 0
DWIDTH 14 0
BBX 14 2 0 10
BITMAP
FFFC
FFFC
ENDCHAR
STARTCHAR uni2595
ENCODING 9621
SWIDTH 1000 0
DWIDTH 14 0
BBX 2 14 12 -2
BITMAP
C0
C0
C0
C0
C0
C0
C0
C0
C0
C0
C0
C0
C0
C0
ENDCHAR
STARTCHAR filledbox
ENCODING 9632
SWIDTH 1000 0
DWIDTH 14 0
BBX 12 12 1 -1
BITMAP
FFF0
FFF0
FFF0
FFF0
FFF0
FFF0
FFF0
FFF0
FFF0
FFF0
FFF0
FFF0
ENDCHAR
STARTCHAR H22073
ENCODING 9633
SWIDTH 1000 0
DWIDTH 14 0
BBX 12 12 1 -1
BITMAP
FFF0
8010
8010
8010
8010
8010
8010
8010
8010
8010
8010
FFF0
ENDCHAR
STARTCHAR triagup
ENCODING 9650
SWIDTH 1000 0
DWIDTH 14 0
BBX 12 10 1 0
BITMAP
0600
0600
0F00
1F80
1F80
3FC0
3FC0
7FE0
FFF0
FFF0
ENDCHAR
STARTCHAR uni25B3
ENCODING 9651
SWIDTH 1000 0
DWIDTH 14 0
BBX 12 10 1 0
BITMAP
0600
0A00
1100
1080
2080
2040
4040
8020
8010
FFF0
ENDCHAR
STARTCHAR triagdn
ENCODING 9660
SWIDTH 1000 0
DWIDTH 14 0
BBX 12 9 1 1
BITMAP
FFF0
7FE0
7FE0
3FC0
1F80
1F80
0F00
0F00
0600
ENDCHAR
STARTCHAR uni25BD
ENCODING 9661
SWIDTH 1000 0
DWIDTH 14 0
BBX 12 10 1 1
BITMAP
FFF0
8010
8020
4020
4040
2080
1080
1100
0900
0600
ENDCHAR
STARTCHAR uni25C6
ENCODING 9670
SWIDTH 1000 0
DWIDTH 14 0
BBX 12 12 1 -1
BITMAP
0600
0F00
1F80
3FC0
7FE0
FFF0
FFF0
7FE0
3FC0
1F80
0F00
0600
ENDCHAR
STARTCHAR uni25C7
ENCODING 9671
SWIDTH 1000 0
DWIDTH 14 0
BBX 13 12 0 -1
BITMAP
0700
0880
1040
2020
4010
8008
4008
2010
1020
0840
0480
0300
ENDCHAR
STARTCHAR circle
ENCODING 9675
SWIDTH 1000 0
DWIDTH 14 0
BBX 13 13 0 -1
BITMAP
0700
18C0
2020
4010
8008
8008
8008
8008
8008
4010
6010
1020
0FC0
ENDCHAR
STARTCHAR uni25CE
ENCODING 9678
SWIDTH 1000 0
DWIDTH 14 0
BBX 13 13 0 -1
BITMAP
0700
18C0
2320
4C90
9048
A028
A028
A028
9048
4850
6790
1020
0FC0
ENDCHAR
STARTCHAR H18533
ENCODING 9679
SWIDTH 1000 0
DWIDTH 14 0
BBX 12 12 1 -1
BITMAP
1F80
7FE0
7FE0
FFF0
FFF0
FFF0
FFF0
FFF0
FFF0
7FE0
3FC0
0F00
ENDCHAR
STARTCHAR uni25E2
ENCODING 9698
SWIDTH 1000 0
DWIDTH 14 0
BBX 14 14 0 -2
BITMAP
0004
000C
001C
003C
007C
00FC
01FC
03FC
07FC
0FFC
1FFC
3FFC
7FFC
FFFC
ENDCHAR
STARTCHAR uni25E3
ENCODING 9699
SWIDTH 1000 0
DWIDTH 14 0
BBX 14 14 0 -2
BITMAP
8000
C000
E000
F000
F800
FC00
FE00
FF00
FF80
FFC0
FFE0
FFF0
FFF8
FFFC
ENDCHAR
STARTCHAR uni25E4
ENCODING 9700
SWIDTH 1000 0
DWIDTH 14 0
BBX 13 13 0 -1
BITMAP
FFF8
FFF0
FFE0
FFC0
FF80
FF00
FE00
FC00
F800
F000
E000
C000
8000
ENDCHAR
STARTCHAR uni25E5
ENCODING 9701
SWIDTH 1000 0
DWIDTH 14 0
BBX 13 13 0 -1
BITMAP
FFF8
7FF8
3FF8
1FF8
0FF8
07F8
03F8
01F8
00F8
0078
0038
0018
0008
ENDCHAR
STARTCHAR uni2605
ENCODING 9733
SWIDTH 1000 0
DWIDTH 14 0
BBX 12 11 1 0
BITMAP
0400
0600
0600
0600
FFF0
3FE0
1F80
1F80
1F80
1980
30C0
ENDCHAR
STARTCHAR uni2606
ENCODING 9734
SWIDTH 1000 0
DWIDTH 14 0
BBX 12 12 1 -1
BITMAP
0400
0600
0A00
0A00
F9F0
4020
30C0
1080
1080
2F80
10C0
2000
ENDCHAR
STARTCHAR uni2609
ENCODING 9737
SWIDTH 1000 0
DWIDTH 14 0
BBX 11 11 2 0
BITMAP
0E00
3180
4040
8040
8020
8C20
8C20
8040
4040
2080
1F00
ENDCHAR
STARTCHAR female
ENCODING 9792
SWIDTH 1000 0
DWIDTH 14 0
BBX 9 13 2 -1
BITMAP
1C00
2200
2200
2200
1C00
0800
0800
FF80
0800
0800
0800
0800
0800
ENDCHAR
STARTCHAR uni2641
ENCODING 9793
SWIDTH 1000 0
DWIDTH 14 0
BBX 10 11 2 0
BITMAP
1E00
2500
4480
8440
8440
FFC0
8440
8440
4480
2500
1E00
ENDCHAR
STARTCHAR male
ENCODING 9794
SWIDTH 1000 0
DWIDTH 14 0
BBX 9 13 2 -1
BITMAP
0800
1C00
2A00
4900
8880
0800
0800
0800
1C00
2200
2200
2200
1C00
ENDCHAR
STARTCHAR uni2F00
ENCODING 12032
SWIDTH 1000 0
DWIDTH 14 0
BBX 12 2 1 5
BITMAP
0020
FFF0
ENDCHAR
STARTCHAR uni2F01
ENCODING 12033
SWIDTH 1000 0
DWIDTH 14 0
BBX 2 13 7 -1
BITMAP
80
C0
80
80
80
80
80
80
80
80
80
80
80
ENDCHAR
STARTCHAR uni2F02
ENCODING 12034
SWIDTH 1000 0
DWIDTH 14 0
BBX 4 5 5 3
BITMAP
80
40
20
30
10
ENDCHAR
STARTCHAR uni2F03
ENCODING 12035
SWIDTH 1000 0
DWIDTH 14 0
BBX 5 13 1 -1
BITMAP
08
08
08
08
08
08
08
08
10
10
20
40
80
ENDCHAR
STARTCHAR uni2F04
ENCODING 12036
SWIDTH 1000 0
DWIDTH 14 0
BBX 12 12 1 0
BITMAP
0100
7F80
0100
0200
0400
0800
1000
2000
4020
8020
8030
7FE0
ENDCHAR
STARTCHAR uni2F05
ENCODING 12037
SWIDTH 1000 0
DWIDTH 14 0
BBX 4 13 5 -1
BITMAP
10
10
10
10
10
10
10
10
10
10
90
70
20
ENDCHAR
STARTCHAR uni2F06
ENCODING 12038
SWIDTH 1000 0
DWIDTH 14 0
BBX 12 11 1 0
BITMAP
0040
7FE0
0000
0000
0000
0000
0000
0000
0000
0020
FFF0
ENDCHAR
STARTCHAR uni2F07
ENCODING 12039
SWIDTH 1000 0
DWIDTH 14 0
BBX 12 4 1 5
BITMAP
0800
0600
0220
FFF0
ENDCHAR
STARTCHAR uni2F08
ENCODING 12040
SWIDTH 1000 0
DWIDTH 14 0
BBX 13 13 0 -1
BITMAP
0200
0200
0200
0200
0200
0200
0200
0500
0480
0840
1030
2018
C008
ENDCHAR
STARTCHAR uni2F09
ENCODING 12041
SWIDTH 1000 0
DWIDTH 14 0
BBX 13 13 0 -1
BITMAP
1100
1100
1100
1100
1100
1100
1100
1100
1100
2110
2110
4118
80F0
ENDCHAR
STARTCHAR uni2F0A
ENCODING 12042
SWIDTH 1000 0
DWIDTH 14 0
BBX 13 12 0 -1
BITMAP
1C00
0200
0200
0200
0500
0500
0880
0880
1040
2020
4018
8008
ENDCHAR
STARTCHAR uni2F0B
ENCODING 12043
SWIDTH 1000 0
DWIDTH 14 0
BBX 13 13 0 -1
BITMAP
0100
0100
0100
0900
0880
0880
0880
1040
1040
2020
2030
4018
8008
ENDCHAR
STARTCHAR uni2F0C
ENCODING 12044
SWIDTH 1000 0
DWIDTH 14 0
BBX 12 13 1 -1
BITMAP
8020
FFF0
8020
8020
8020
8020
8020
8020
8020
8020
8020
80E0
8040
ENDCHAR
STARTCHAR uni2F0D
ENCODING 12045
SWIDTH 1000 0
DWIDTH 14 0
BBX 12 4 1 4
BITMAP
4020
7FF0
4020
8040
ENDCHAR
STARTCHAR uni2F0E
ENCODING 12046
SWIDTH 1000 0
DWIDTH 14 0
BBX 5 12 4 -1
BITMAP
40
20
28
08
10
10
20
E0
20
20
60
20
ENDCHAR
STARTCHAR uni2F0F
ENCODING 12047
SWIDTH 1000 0
DWIDTH 14 0
BBX 13 13 0 -1
BITMAP
1100
1F80
1100
1100
1100
1100
1100
1100
1100
2110
2110
4118
80F0
ENDCHAR
STARTCHAR uni2F10
ENCODING 12048
SWIDTH 1000 0
DWIDTH 14 0
BBX 11 12 2 -1
BITMAP
8040
C060
8040
8040
8040
8040
8040
8040
8040
8040
FFC0
8040
ENDCHAR
STARTCHAR uni2F11
ENCODING 12049
SWIDTH 1000 0
DWIDTH 14 0
BBX 12 13 1 -1
BITMAP
0020
7FF0
0420
0420
0420
0420
0420
0820
0820
1020
2220
41C0
8080
ENDCHAR
STARTCHAR uni2F12
ENCODING 12050
SWIDTH 1000 0
DWIDTH 14 0
BBX 13 13 0 -1
BITMAP
0200
0200
0210
FFF8
0210
0210
0210
0210
0410
0410
0910
30E0
C040
ENDCHAR
STARTCHAR uni2F13
ENCODING 12051
SWIDTH 1000 0
DWIDTH 14 0
BBX 13 13 0 -1
BITMAP
1000
1010
1FF8
2010
4010
8010
0010
0010
0010
0010
0110
00E0
0040
ENDCHAR
STARTCHAR uni2F14
ENCODING 12052
SWIDTH 1000 0
DWIDTH 14 0
BBX 13 12 0 -1
BITMAP
1000
1060
1040
1080
1100
1600
3800
D000
1010
1010
1018
0FF0
ENDCHAR
STARTCHAR uni2F15
ENCODING 12053
SWIDTH 1000 0
DWIDTH 14 0
BBX 11 12 2 0
BITMAP
8080
FFC0
8000
8000
8000
8000
8000
8000
8000
8000
8040
FFE0
ENDCHAR
STARTCHAR uni2F16
ENCODING 12054
SWIDTH 1000 0
DWIDTH 14 0
BBX 12 12 1 -1
BITMAP
0020
FFF0
4000
4000
4000
4000
4000
4000
4000
4000
4020
7FE0
ENDCHAR
STARTCHAR uni2F17
ENCODING 12055
SWIDTH 1000 0
DWIDTH 14 0
BBX 13 13 0 -1
BITMAP
0200
0200
0200
0200
0210
FFF8
0200
0200
0200
0200
0200
0200
0200
ENDCHAR
STARTCHAR uni2F18
ENCODING 12056
SWIDTH 1000 0
DWIDTH 14 0
BBX 6 13 5 -1
BITMAP
80
80
80
C0
A0
90
88
8C
84
80
80
80
80
ENDCHAR
STARTCHAR uni2F19
ENCODING 12057
SWIDTH 1000 0
DWIDTH 14 0
BBX 6 13 5 -1
BITMAP
88
FC
88
88
88
88
88
88
B8
90
80
80
80
ENDCHAR
STARTCHAR uni2F1A
ENCODING 12058
SWIDTH 1000 0
DWIDTH 14 0
BBX 13 13 0 -1
BITMAP
2010
3FF8
2000
2000
2000
2000
2000
2000
2000
2000
4000
4000
8000
ENDCHAR
STARTCHAR uni2F1B
ENCODING 12059
SWIDTH 1000 0
DWIDTH 14 0
BBX 13 12 0 0
BITMAP
0200
0200
0200
0200
0400
0400
0800
0840
1020
11F0
FE08
6008
ENDCHAR
STARTCHAR uni2F1C
ENCODING 12060
SWIDTH 1000 0
DWIDTH 14 0
BBX 13 13 0 -1
BITMAP
0040
7FE0
1040
1040
0880
0880
0500
0500
0200
0500
0880
3060
C018
ENDCHAR
STARTCHAR uni2F1D
ENCODING 12061
SWIDTH 1000 0
DWIDTH 14 0
BBX 10 11 2 0
BITMAP
8080
FFC0
8080
8080
8080
8080
8080
8080
8080
FF80
8080
ENDCHAR
STARTCHAR uni2F1E
ENCODING 12062
SWIDTH 1000 0
DWIDTH 14 0
BBX 12 13 1 -1
BITMAP
8020
FFF0
8020
8020
8020
8020
8020
8020
8020
8020
8020
FFE0
8020
ENDCHAR
STARTCHAR uni2F1F
ENCODING 12063
SWIDTH 1000 0
DWIDTH 14 0
BBX 13 13 0 -1
BITMAP
0200
0200
0200
0200
0220
7FF0
0200
0200
0200
0200
0200
0210
FFF8
ENDCHAR
STARTCHAR uni2F20
ENCODING 12064
SWIDTH 1000 0
DWIDTH 14 0
BBX 13 13 0 -1
BITMAP
0200
0200
0200
0200
0210
FFF8
0200
0200
0200
0200
0200
0220
7FF0
ENDCHAR
STARTCHAR uni2F21
ENCODING 12065
SWIDTH 1000 0
DWIDTH 14 0
BBX 13 9 0 3
BITMAP
0400
0440
0FE0
1840
2480
4300
0CC0
3038
C010
ENDCHAR
STARTCHAR uni2F22
ENCODING 12066
SWIDTH 1000 0
DWIDTH 14 0
BBX 13 13 0 -1
BITMAP
0400
0400
2440
17E0
0840
0840
1480
2480
4300
0100
0280
0C60
F018
ENDCHAR
STARTCHAR uni2F23
ENCODING 12067
SWIDTH 1000 0
DWIDTH 14 0
BBX 11 13 1 -1
BITMAP
0800
0800
0840
0FE0
1040
1040
2880
4480
8500
0200
0400
1800
E000
ENDCHAR
STARTCHAR uni2F24
ENCODING 12068
SWIDTH 1000 0
DWIDTH 14 0
BBX 13 13 0 -1
BITMAP
0200
0200
0200
0210
FFF8
0200
0200
0200
0500
0480
0840
3038
C010
ENDCHAR
STARTCHAR uni2F25
ENCODING 12069
SWIDTH 1000 0
DWIDTH 14 0
BBX 13 13 0 -1
BITMAP
0200
0200
0200
0210
FFF8
0440
0440
0880
1880
0700
0180
0E60
7018
ENDCHAR
STARTCHAR uni2F26
ENCODING 12070
SWIDTH 1000 0
DWIDTH 14 0
BBX 13 13 0 -1
BITMAP
0020
7FF0
0060
0180
0200
0210
FFF8
0200
0200
0200
1200
0E00
0400
ENDCHAR
STARTCHAR uni2F27
ENCODING 12071
SWIDTH 1000 0
DWIDTH 14 0
BBX 13 6 0 4
BITMAP
0200
0100
4110
7FF8
4010
8020
ENDCHAR
STARTCHAR uni2F28
ENCODING 12072
SWIDTH 1000 0
DWIDTH 14 0
BBX 13 13 0 -1
BITMAP
0080
0080
0080
0090
FFF8
0080
1080
0880
0880
0080
0480
0380
0100
ENDCHAR
STARTCHAR uni2F29
ENCODING 12073
SWIDTH 1000 0
DWIDTH 14 0
BBX 13 13 0 -1
BITMAP
0200
0200
0200
0200
1280
1240
2220
2210
4218
8208
1200
0E00
0400
ENDCHAR
STARTCHAR uni2F2A
ENCODING 12074
SWIDTH 1000 0
DWIDTH 14 0
BBX 13 13 0 -1
BITMAP
0400
0400
0420
FFF0
0400
0600
0600
0A00
0A00
1210
2210
4218
81F0
ENDCHAR
STARTCHAR uni2F2B
ENCODING 12075
SWIDTH 1000 0
DWIDTH 14 0
BBX 13 13 0 -1
BITMAP
1010
1FF8
1010
1010
1010
1FF0
1010
1000
1000
2000
2000
4000
8000
ENDCHAR
STARTCHAR uni2F2C
ENCODING 12076
SWIDTH 1000 0
DWIDTH 14 0
BBX 12 13 0 -1
BITMAP
0200
0200
4210
4210
4210
4210
4210
7FF0
4210
0200
0400
1800
E000
ENDCHAR
STARTCHAR uni2F2D
ENCODING 12077
SWIDTH 1000 0
DWIDTH 14 0
BBX 11 13 1 -1
BITMAP
0400
0400
0400
8420
8420
8420
8420
8420
8420
8420
8420
FFE0
8020
ENDCHAR
STARTCHAR uni2F2E
ENCODING 12078
SWIDTH 1000 0
DWIDTH 14 0
BBX 12 13 1 -1
BITMAP
1110
1110
2220
2220
4440
4440
8880
4440
4440
2220
2220
1110
1110
ENDCHAR
STARTCHAR uni2F2F
ENCODING 12079
SWIDTH 1000 0
DWIDTH 14 0
BBX 13 11 0 0
BITMAP
0020
7FF0
0200
0200
0200
0200
0200
0200
0200
0210
FFF8
ENDCHAR
STARTCHAR uni2F30
ENCODING 12080
SWIDTH 1000 0
DWIDTH 14 0
BBX 13 13 0 -1
BITMAP
0040
FFE0
0040
0040
0040
7FC0
4040
4000
4000
4010
4010
4018
3FF0
ENDCHAR
STARTCHAR uni2F31
ENCODING 12081
SWIDTH 1000 0
DWIDTH 14 0
BBX 12 13 1 -1
BITMAP
0400
0400
8420
FFF0
8420
8420
8420
8420
8420
8420
85E0
8440
0400
ENDCHAR
STARTCHAR uni2F32
ENCODING 12082
SWIDTH 1000 0
DWIDTH 14 0
BBX 13 13 0 -1
BITMAP
0040
3FE0
0200
0200
0200
0210
FFF8
0200
0200
0200
0200
0200
0200
ENDCHAR
STARTCHAR uni2F33
ENCODING 12083
SWIDTH 1000 0
DWIDTH 14 0
BBX 11 13 1 -1
BITMAP
0400
0400
0800
10C0
2080
7F00
2200
0400
0880
1040
23E0
FC20
6020
ENDCHAR
STARTCHAR uni2F34
ENCODING 12084
SWIDTH 1000 0
DWIDTH 14 0
BBX 13 13 0 -1
BITMAP
0300
2110
3FF8
2000
2000
2000
2000
2000
2000
2000
2000
4000
8000
ENDCHAR
STARTCHAR uni2F35
ENCODING 12085
SWIDTH 1000 0
DWIDTH 14 0
BBX 13 13 0 -1
BITMAP
1000
F800
1000
1000
2000
3C00
0400
4400
4800
2800
1000
2C18
C3E0
ENDCHAR
STARTCHAR uni2F36
ENCODING 12086
SWIDTH 1000 0
DWIDTH 14 0
BBX 13 13 0 -1
BITMAP
0840
0840
0840
0840
0840
FFF8
0840
0840
0840
1040
1040
2040
C040
ENDCHAR
STARTCHAR uni2F37
ENCODING 12087
SWIDTH 1000 0
DWIDTH 14 0
BBX 12 13 1 -1
BITMAP
0400
0480
0440
0400
07F0
FC00
0400
0400
0200
0210
0110
0090
0070
ENDCHAR
STARTCHAR uni2F38
ENCODING 12088
SWIDTH 1000 0
DWIDTH 14 0
BBX 10 13 2 -1
BITMAP
0080
FFC0
0080
0080
7F80
4000
8000
FFC0
0040
0040
0040
0780
0100
ENDCHAR
STARTCHAR uni2F39
ENCODING 12089
SWIDTH 1000 0
DWIDTH 14 0
BBX 12 13 1 -1
BITMAP
0020
FFF0
0020
0020
0020
0020
7FE0
0020
0020
0020
0020
FFE0
0020
ENDCHAR
STARTCHAR uni2F3A
ENCODING 12090
SWIDTH 1000 0
DWIDTH 14 0
BBX 5 13 4 -1
BITMAP
18
10
20
40
98
10
20
40
98
10
20
40
80
ENDCHAR
STARTCHAR uni2F3B
ENCODING 12091
SWIDTH 1000 0
DWIDTH 14 0
BBX 6 13 3 -1
BITMAP
0C
08
10
24
48
10
30
50
90
10
10
10
10
ENDCHAR
STARTCHAR uni2F3C
ENCODING 12092
SWIDTH 1000 0
DWIDTH 14 0
BBX 13 13 0 -1
BITMAP
0200
0100
0080
0880
0800
2820
2810
2808
4808
8820
0820
0830
07E0
ENDCHAR
STARTCHAR uni2F3D
ENCODING 12093
SWIDTH 1000 0
DWIDTH 14 0
BBX 13 13 0 -1
BITMAP
0480
0440
0400
0438
0FC0
F400
0460
0440
0480
0308
0508
18C8
E038
ENDCHAR
STARTCHAR uni2F3E
ENCODING 12094
SWIDTH 1000 0
DWIDTH 14 0
BBX 13 13 0 -1
BITMAP
0070
1F80
1000
1010
1FF8
1010
1010
1FF0
1010
2000
2000
4000
8000
ENDCHAR
STARTCHAR uni2F3F
ENCODING 12095
SWIDTH 1000 0
DWIDTH 14 0
BBX 13 13 0 -1
BITMAP
00E0
7F00
0200
0240
3FE0
0200
0210
FFF8
0200
0200
1200
0E00
0400
ENDCHAR
STARTCHAR uni2F40
ENCODING 12096
SWIDTH 1000 0
DWIDTH 14 0
BBX 13 13 0 -1
BITMAP
0200
0210
FFF8
0200
0200
3FE0
0840
0840
0480
0300
0480
1860
E018
ENDCHAR
STARTCHAR uni2F41
ENCODING 12097
SWIDTH 1000 0
DWIDTH 14 0
BBX 13 13 0 -1
BITMAP
0200
0210
03F8
0200
0200
7FE0
0840
0840
0480
0300
0300
0CC0
F038
ENDCHAR
STARTCHAR uni2F42
ENCODING 12098
SWIDTH 1000 0
DWIDTH 14 0
BBX 13 13 0 -1
BITMAP
0400
0200
0210
FFF8
1040
1040
0880
0880
0500
0200
0D80
3060
C018
ENDCHAR
STARTCHAR uni2F43
ENCODING 12099
SWIDTH 1000 0
DWIDTH 14 0
BBX 13 13 0 -1
BITMAP
0080
1080
0C80
0480
2080
1880
0880
00F8
0F80
F080
0080
0080
0080
ENDCHAR
STARTCHAR uni2F44
ENCODING 12100
SWIDTH 1000 0
DWIDTH 14 0
BBX 13 13 0 -1
BITMAP
0040
10E0
1F00
1000
1010
1FF8
1080
1080
1080
2080
2080
4080
8080
ENDCHAR
STARTCHAR uni2F45
ENCODING 12101
SWIDTH 1000 0
DWIDTH 14 0
BBX 13 13 0 -1
BITMAP
0400
0200
0210
FFF8
0400
0420
07F0
0420
0420
0820
1220
21C0
C080
ENDCHAR
STARTCHAR uni2F46
ENCODING 12102
SWIDTH 1000 0
DWIDTH 14 0
BBX 13 13 0 -1
BITMAP
0020
7FF0
0200
0200
0210
FFF8
0500
0500
0900
0908
1108
2108
C0F8
ENDCHAR
STARTCHAR uni2F47
ENCODING 12103
SWIDTH 1000 0
DWIDTH 14 0
BBX 10 13 2 -1
BITMAP
8080
FFC0
8080
8080
8080
8080
FF80
8080
8080
8080
8080
FF80
8080
ENDCHAR
STARTCHAR uni2F48
ENCODING 12104
SWIDTH 1000 0
DWIDTH 14 0
BBX 11 11 2 0
BITMAP
8040
FFE0
8040
8040
8040
FFC0
8040
8040
8040
FFC0
8040
ENDCHAR
STARTCHAR uni2F49
ENCODING 12105
SWIDTH 1000 0
DWIDTH 14 0
BBX 11 13 1 -1
BITMAP
1040
1FE0
1040
1040
1FC0
1040
1040
1FC0
1040
2040
2240
41C0
8080
ENDCHAR
STARTCHAR uni2F4A
ENCODING 12106
SWIDTH 1000 0
DWIDTH 14 0
BBX 13 13 0 -1
BITMAP
0200
0200
0210
FFF8
0200
0A80
0A80
1240
1240
2220
2220
4210
8208
ENDCHAR
STARTCHAR uni2F4B
ENCODING 12107
SWIDTH 1000 0
DWIDTH 14 0
BBX 13 13 0 -1
BITMAP
0800
0810
0FF8
1010
2220
4200
8200
0200
0300
0480
0840
3038
C010
ENDCHAR
STARTCHAR uni2F4C
ENCODING 12108
SWIDTH 1000 0
DWIDTH 14 0
BBX 13 13 0 -1
BITMAP
0100
0100
0100
0100
1120
11F0
1100
1100
1100
1100
1100
1110
FFF8
ENDCHAR
STARTCHAR uni2F4D
ENCODING 12109
SWIDTH 1000 0
DWIDTH 14 0
BBX 13 13 0 -1
BITMAP
0010
FFF8
0400
0420
07F0
0820
1840
2440
4280
0100
0200
0C00
F000
ENDCHAR
STARTCHAR uni2F4E
ENCODING 12110
SWIDTH 1000 0
DWIDTH 14 0
BBX 13 13 0 -1
BITMAP
1080
1FC0
1080
1080
10F8
2000
DFE0
0840
0840
0480
0300
0CC0
F038
ENDCHAR
STARTCHAR uni2F4F
ENCODING 12111
SWIDTH 1000 0
DWIDTH 14 0
BBX 13 13 0 -1
BITMAP
2020
3FF0
2220
2220
2220
FFF8
4420
4420
4420
7FF8
0820
1020
E1C0
ENDCHAR
STARTCHAR uni2F50
ENCODING 12112
SWIDTH 1000 0
DWIDTH 14 0
BBX 13 13 0 -1
BITMAP
0200
4200
4230
4220
4240
7A80
4300
4200
4200
4A10
5210
E218
41F0
ENDCHAR
STARTCHAR uni2F51
ENCODING 12113
SWIDTH 1000 0
DWIDTH 14 0
BBX 13 13 0 -1
BITMAP
0080
01C0
7E00
0400
04E0
7F00
0400
04E0
FF00
0410
0410
0418
03F0
ENDCHAR
STARTCHAR uni2F52
ENCODING 12114
SWIDTH 1000 0
DWIDTH 14 0
BBX 12 13 1 -1
BITMAP
41C0
7E00
4200
4200
4240
7FE0
4200
4200
4200
4910
5090
E050
4030
ENDCHAR
STARTCHAR uni2F53
ENCODING 12115
SWIDTH 1000 0
DWIDTH 14 0
BBX 13 13 0 -1
BITMAP
1020
1FF0
2000
5FC0
8000
3FC0
0040
0040
0040
0048
0028
0018
0008
ENDCHAR
STARTCHAR uni2F54
ENCODING 12116
SWIDTH 1000 0
DWIDTH 14 0
BBX 13 13 0 -1
BITMAP
0200
0200
0230
0220
FA40
0A80
0B00
1280
1240
2220
3210
4E18
8408
ENDCHAR
STARTCHAR uni2F55
ENCODING 12117
SWIDTH 1000 0
DWIDTH 14 0
BBX 13 13 0 -1
BITMAP
0200
0200
0200
1230
1220
1240
3280
6300
0280
0440
0830
3018
C008
ENDCHAR
STARTCHAR uni2F56
ENCODING 12118
SWIDTH 1000 0
DWIDTH 14 0
BBX 13 13 0 -1
BITMAP
0020
1070
1FC0
1240
1240
1240
1240
1220
1220
2210
2210
4208
8208
ENDCHAR
STARTCHAR uni2F57
ENCODING 12119
SWIDTH 1000 0
DWIDTH 14 0
BBX 13 13 0 -1
BITMAP
0C40
1030
2018
4848
8840
0840
0480
0480
0300
0300
0480
1860
E018
ENDCHAR
STARTCHAR uni2F58
ENCODING 12120
SWIDTH 1000 0
DWIDTH 14 0
BBX 13 13 0 -1
BITMAP
2030
1040
0D80
0700
18C0
E038
0880
0880
0500
0200
0300
0CC0
F038
ENDCHAR
STARTCHAR uni2F59
ENCODING 12121
SWIDTH 1000 0
DWIDTH 14 0
BBX 11 13 0 -1
BITMAP
0040
1060
1040
1040
1FC0
0040
0040
7FC0
0840
0840
0840
3040
C040
ENDCHAR
STARTCHAR uni2F5A
ENCODING 12122
SWIDTH 1000 0
DWIDTH 14 0
BBX 13 13 0 -1
BITMAP
1080
1080
1080
1090
1FF8
1000
1000
1FC0
1040
1040
2040
4040
8040
ENDCHAR
STARTCHAR uni2F5B
ENCODING 12123
SWIDTH 1000 0
DWIDTH 14 0
BBX 13 13 0 -1
BITMAP
0010
7FF8
1080
1080
2090
7FF8
0280
0280
0480
0880
1480
2380
C100
ENDCHAR
STARTCHAR uni2F5C
ENCODING 12124
SWIDTH 1000 0
DWIDTH 14 0
BBX 13 13 0 -1
BITMAP
0200
2200
2220
3FF0
4200
8200
0210
FFF8
0200
0200
0200
0200
0200
ENDCHAR
STARTCHAR uni2F5D
ENCODING 12125
SWIDTH 1000 0
DWIDTH 14 0
BBX 13 13 0 -1
BITMAP
0240
0230
0210
0200
FFF8
0200
0200
0200
0500
0880
1040
2038
C010
ENDCHAR
STARTCHAR uni2F5E
ENCODING 12126
SWIDTH 1000 0
DWIDTH 14 0
BBX 13 13 0 -1
BITMAP
0600
0210
FFF8
0200
0400
08C0
1080
7F00
2200
0440
09E0
FE30
6010
ENDCHAR
STARTCHAR uni2F5F
ENCODING 12127
SWIDTH 1000 0
DWIDTH 14 0
BBX 13 12 0 0
BITMAP
0020
7FF0
0200
0200
0200
0240
3FE0
0200
0240
0220
0220
FFF8
ENDCHAR
STARTCHAR uni2F60
ENCODING 12128
SWIDTH 1000 0
DWIDTH 14 0
BBX 13 13 0 -1
BITMAP
1070
1FC0
1240
1240
1240
1240
1240
1220
1220
2290
22D0
4748
8248
ENDCHAR
STARTCHAR uni2F61
ENCODING 12129
SWIDTH 1000 0
DWIDTH 14 0
BBX 13 13 0 -1
BITMAP
0010
FFF8
0800
0800
0FC0
0840
1440
1280
1280
2080
2688
F888
4078
ENDCHAR
STARTCHAR uni2F62
ENCODING 12130
SWIDTH 1000 0
DWIDTH 14 0
BBX 13 13 0 -1
BITMAP
1040
1040
1040
FFF8
1040
1040
1040
1FC0
1040
1040
1040
1FC0
1040
ENDCHAR
STARTCHAR uni2F63
ENCODING 12131
SWIDTH 1000 0
DWIDTH 14 0
BBX 13 13 0 -1
BITMAP
0200
2200
2200
2210
3FF8
4200
8200
0220
3FF0
0200
0200
0210
FFF8
ENDCHAR
STARTCHAR uni2F64
ENCODING 12132
SWIDTH 1000 0
DWIDTH 14 0
BBX 13 13 0 -1
BITMAP
2010
3FF8
2210
2210
3FF0
2210
2210
3FF0
2210
2210
2290
4270
8220
ENDCHAR
STARTCHAR uni2F65
ENCODING 12133
SWIDTH 1000 0
DWIDTH 14 0
BBX 12 13 1 -1
BITMAP
8020
FFF0
8420
8420
8420
8420
FFE0
8420
8420
8420
8420
FFE0
8020
ENDCHAR
STARTCHAR uni2F66
ENCODING 12134
SWIDTH 1000 0
DWIDTH 14 0
BBX 13 13 0 -1
BITMAP
0010
7FF8
0210
0220
1200
1220
13F0
1200
1200
1200
2A00
4608
83F0
ENDCHAR
STARTCHAR uni2F67
ENCODING 12135
SWIDTH 1000 0
DWIDTH 14 0
BBX 13 13 0 -1
BITMAP
0180
1090
9FF8
5000
5000
1000
3000
5000
9000
1000
2000
4000
8000
ENDCHAR
STARTCHAR uni2F68
ENCODING 12136
SWIDTH 1000 0
DWIDTH 14 0
BBX 13 8 0 4
BITMAP
0220
7F40
4490
28A0
1040
2020
4018
8000
ENDCHAR
STARTCHAR uni2F69
ENCODING 12137
SWIDTH 1000 0
DWIDTH 14 0
BBX 11 13 2 -1
BITMAP
0800
0800
9040
FFE0
8040
8040
8040
FFC0
8040
8040
8040
FFC0
8040
ENDCHAR
STARTCHAR uni2F6A
ENCODING 12138
SWIDTH 1000 0
DWIDTH 14 0
BBX 13 13 0 -1
BITMAP
0100
2108
3FF8
2108
2110
2120
3FF0
2420
2420
2240
2180
4660
9818
ENDCHAR
STARTCHAR uni2F6B
ENCODING 12139
SWIDTH 1000 0
DWIDTH 14 0
BBX 13 13 0 -1
BITMAP
4020
7FF0
4920
4920
4920
4920
4920
4920
4920
4920
4920
4920
FFF8
ENDCHAR
STARTCHAR uni2F6C
ENCODING 12140
SWIDTH 1000 0
DWIDTH 14 0
BBX 10 13 2 -1
BITMAP
8080
FFC0
8080
8080
FF80
8080
8080
FF80
8080
8080
8080
FF80
8080
ENDCHAR
STARTCHAR uni2F6D
ENCODING 12141
SWIDTH 1000 0
DWIDTH 14 0
BBX 13 13 0 -1
BITMAP
0020
3FF0
0440
0280
0110
FFF8
0510
0520
0900
1100
2900
C700
0200
ENDCHAR
STARTCHAR uni2F6E
ENCODING 12142
SWIDTH 1000 0
DWIDTH 14 0
BBX 13 13 0 -1
BITMAP
1000
1020
1FF0
2200
4200
0210
FFF8
0200
0500
0880
1040
2038
C010
ENDCHAR
STARTCHAR uni2F6F
ENCODING 12143
SWIDTH 1000 0
DWIDTH 14 0
BBX 13 13 0 -1
BITMAP
0010
FFF8
0200
0400
0400
0810
1FF8
2810
4810
8810
0810
0FF0
0810
ENDCHAR
STARTCHAR uni2F70
ENCODING 12144
SWIDTH 1000 0
DWIDTH 14 0
BBX 13 13 0 -1
BITMAP
0040
3FE0
0000
0000
0010
FFF8
0200
1A80
1240
2230
4218
8E08
0400
ENDCHAR
STARTCHAR uni2F71
ENCODING 12145
SWIDTH 1000 0
DWIDTH 14 0
BBX 12 13 1 -1
BITMAP
0200
0200
8420
FFF0
8420
8820
8920
93A0
BCA0
80A0
8120
80E0
8040
ENDCHAR
STARTCHAR uni2F72
ENCODING 12146
SWIDTH 1000 0
DWIDTH 14 0
BBX 13 13 0 -1
BITMAP
0040
01E0
3E00
0200
0210
FFF8
0A80
0A80
1240
1240
2220
4218
8208
ENDCHAR
STARTCHAR uni2F73
ENCODING 12147
SWIDTH 1000 0
DWIDTH 14 0
BBX 13 13 0 -1
BITMAP
0600
4208
7FF8
4008
8110
0900
0900
0880
1080
1040
2030
4018
8008
ENDCHAR
STARTCHAR uni2F74
ENCODING 12148
SWIDTH 1000 0
DWIDTH 14 0
BBX 13 13 0 -1
BITMAP
0400
0200
0220
7FF0
0000
1040
0840
0880
0480
0480
0100
0110
FFF8
ENDCHAR
STARTCHAR uni2F75
ENCODING 12149
SWIDTH 1000 0
DWIDTH 14 0
BBX 13 13 0 -1
BITMAP
2080
2080
2080
3EF8
5120
9220
1020
1020
1020
1020
1120
10E0
1040
ENDCHAR
STARTCHAR uni2F76
ENCODING 12150
SWIDTH 1000 0
DWIDTH 14 0
BBX 13 13 0 -1
BITMAP
0200
2230
1220
1A40
0A90
FFF8
0200
0A80
0A80
1240
2230
4218
8208
ENDCHAR
STARTCHAR uni2F77
ENCODING 12151
SWIDTH 1000 0
DWIDTH 14 0
BBX 13 13 0 -1
BITMAP
0400
0400
08C0
1080
7F00
2420
08F0
FF10
4200
1A40
1230
2218
C208
ENDCHAR
STARTCHAR uni2F78
ENCODING 12152
SWIDTH 1000 0
DWIDTH 14 0
BBX 13 13 0 -1
BITMAP
2000
2020
3FF0
4200
8200
0210
FFF8
0200
4210
4210
4210
7FF0
4010
ENDCHAR
STARTCHAR uni2F79
ENCODING 12153
SWIDTH 1000 0
DWIDTH 14 0
BBX 13 13 0 -1
BITMAP
8010
FFF8
8010
8490
A690
9910
8890
9590
A250
8450
8010
80F0
8020
ENDCHAR
STARTCHAR uni2F7A
ENCODING 12154
SWIDTH 1000 0
DWIDTH 14 0
BBX 13 13 0 -1
BITMAP
1040
0840
0880
7FF0
0200
0200
3FE0
0200
0210
FFF8
0200
0200
0200
ENDCHAR
STARTCHAR uni2F7B
ENCODING 12155
SWIDTH 1000 0
DWIDTH 14 0
BBX 13 13 0 -1
BITMAP
0410
7FF8
0410
2490
1450
1450
0C30
1450
E790
4510
0410
1C70
0820
ENDCHAR
STARTCHAR uni2F7C
ENCODING 12156
SWIDTH 1000 0
DWIDTH 14 0
BBX 13 13 0 -1
BITMAP
0200
0210
3FA0
0240
0280
FFF8
0200
0400
08C0
3B10
CC10
0818
07F0
ENDCHAR
STARTCHAR uni2F7D
ENCODING 12157
SWIDTH 1000 0
DWIDTH 14 0
BBX 13 13 0 -1
BITMAP
0010
FFF8
0200
0400
7FF0
4890
4890
4890
4890
4890
4890
48F0
4020
ENDCHAR
STARTCHAR uni2F7E
ENCODING 12158
SWIDTH 1000 0
DWIDTH 14 0
BBX 13 13 0 -1
BITMAP
0200
0200
7FF0
0200
3FE0
0200
FFF8
0A80
0A80
1240
2220
4218
8208
ENDCHAR
STARTCHAR uni2F7F
ENCODING 12159
SWIDTH 1000 0
DWIDTH 14 0
BBX 13 13 0 -1
BITMAP
0020
7FF0
1040
1040
1FC0
1040
1040
1FC0
1040
1050
13F8
FC40
6040
ENDCHAR
STARTCHAR uni2F80
ENCODING 12160
SWIDTH 1000 0
DWIDTH 14 0
BBX 13 13 0 -1
BITMAP
0220
3FF0
0220
FFF8
0220
3FE0
0200
7FF0
0200
FFF8
0200
0200
0200
ENDCHAR
STARTCHAR uni2F81
ENCODING 12161
SWIDTH 1000 0
DWIDTH 14 0
BBX 12 13 1 -1
BITMAP
0400
8420
FFF0
8420
8620
8920
90A0
A420
8620
8920
90A0
A0E0
8040
ENDCHAR
STARTCHAR uni2F82
ENCODING 12162
SWIDTH 1000 0
DWIDTH 14 0
BBX 12 13 1 -1
BITMAP
8040
FFE0
8400
8440
FFE0
8040
8040
8040
FFC0
8440
8400
8420
FFF0
ENDCHAR
STARTCHAR uni2F83
ENCODING 12163
SWIDTH 1000 0
DWIDTH 14 0
BBX 10 13 2 -1
BITMAP
1800
9080
FFC0
8080
8080
FF80
8080
8080
FF80
8080
8080
FF80
8080
ENDCHAR
STARTCHAR uni2F84
ENCODING 12164
SWIDTH 1000 0
DWIDTH 14 0
BBX 13 13 0 -1
BITMAP
0010
FFF8
0400
0840
1020
7FF0
2210
0200
3FF0
0200
0200
0210
FFF8
ENDCHAR
STARTCHAR uni2F85
ENCODING 12165
SWIDTH 1000 0
DWIDTH 14 0
BBX 12 13 1 -1
BITMAP
0800
9C20
E3F0
8020
8020
8020
FBE0
8020
8020
8020
8020
FFE0
8020
ENDCHAR
STARTCHAR uni2F86
ENCODING 12166
SWIDTH 1000 0
DWIDTH 14 0
BBX 13 13 0 -1
BITMAP
00E0
3F00
0200
0210
FFF8
0200
0200
3FE0
2020
2020
2020
3FE0
2020
ENDCHAR
STARTCHAR uni2F87
ENCODING 12167
SWIDTH 1000 0
DWIDTH 14 0
BBX 13 13 0 -1
BITMAP
1820
1020
1020
1FF8
2220
22A0
54A0
9520
09F8
0820
1020
2020
C020
ENDCHAR
STARTCHAR uni2F88
ENCODING 12168
SWIDTH 1000 0
DWIDTH 14 0
BBX 13 13 0 -1
BITMAP
0600
1420
1FF0
1220
1120
1120
FFF8
1020
1220
1120
1120
20E0
C040
ENDCHAR
STARTCHAR uni2F89
ENCODING 12169
SWIDTH 1000 0
DWIDTH 14 0
BBX 12 13 1 -1
BITMAP
4040
7FE0
4040
7FC0
4040
7FC0
4840
4820
4440
4A80
5180
E070
4020
ENDCHAR
STARTCHAR uni2F8A
ENCODING 12170
SWIDTH 1000 0
DWIDTH 14 0
BBX 13 13 0 -1
BITMAP
1080
1FC0
1080
2100
7FE0
A220
2220
2220
3FE0
2010
2010
2018
1FF0
ENDCHAR
STARTCHAR uni2F8B
ENCODING 12171
SWIDTH 1000 0
DWIDTH 14 0
BBX 13 13 0 -1
BITMAP
0820
0820
4AA8
4AA8
4AA8
4AA8
4AA8
7EF8
4AA8
0820
1020
2020
C020
ENDCHAR
STARTCHAR uni2F8C
ENCODING 12172
SWIDTH 1000 0
DWIDTH 14 0
BBX 13 13 0 -1
BITMAP
0200
03F0
2200
3FF8
2008
2210
2260
2380
3E00
2200
2208
4208
81F8
ENDCHAR
STARTCHAR uni2F8D
ENCODING 12173
SWIDTH 1000 0
DWIDTH 14 0
BBX 13 13 0 -1
BITMAP
0200
0200
2220
3FF0
2220
2220
2220
3FE0
2220
0240
0220
FFD8
6008
ENDCHAR
STARTCHAR uni2F8E
ENCODING 12174
SWIDTH 1000 0
DWIDTH 14 0
BBX 13 13 0 -1
BITMAP
0200
0200
2420
3FF0
24A0
24A0
24A0
24A0
24A0
24A0
24A0
24A0
FFF8
ENDCHAR
STARTCHAR uni2F8F
ENCODING 12175
SWIDTH 1000 0
DWIDTH 14 0
BBX 13 13 0 -1
BITMAP
1820
13F0
2000
4800
0810
17F8
3020
5020
9020
1020
1120
10E0
1040
ENDCHAR
STARTCHAR uni2F90
ENCODING 12176
SWIDTH 1000 0
DWIDTH 14 0
BBX 13 13 0 -1
BITMAP
0600
0210
FFF8
0200
0210
0520
0940
1880
2880
4940
8A30
0C18
3808
ENDCHAR
STARTCHAR uni2F91
ENCODING 12177
SWIDTH 1000 0
DWIDTH 14 0
BBX 13 13 0 -1
BITMAP
0010
FFF8
0880
0880
7FF0
4890
4890
4890
4F90
4890
4010
4010
4010
ENDCHAR
STARTCHAR uni2F92
ENCODING 12178
SWIDTH 1000 0
DWIDTH 14 0
BBX 13 13 0 -1
BITMAP
2040
3FE0
2040
3FC0
2040
3FC0
2040
3FC0
2940
0910
1110
2118
C0F0
ENDCHAR
STARTCHAR uni2F93
ENCODING 12179
SWIDTH 1000 0
DWIDTH 14 0
BBX 13 13 0 -1
BITMAP
0880
0FC0
1080
3FF8
5108
9108
1FF8
1108
1FF8
1108
2108
4178
8110
ENDCHAR
STARTCHAR uni2F94
ENCODING 12180
SWIDTH 1000 0
DWIDTH 14 0
BBX 13 13 1 -1
BITMAP
0400
0210
FFF8
0000
3FC0
0000
3FC0
0000
3FC0
2040
2040
3FC0
2040
ENDCHAR
STARTCHAR uni2F95
ENCODING 12181
SWIDTH 1000 0
DWIDTH 14 0
BBX 13 13 0 -1
BITMAP
1840
2030
4218
8708
0880
1040
2038
FFF0
2020
2020
2020
3FE0
2020
ENDCHAR
STARTCHAR uni2F96
ENCODING 12182
SWIDTH 1000 0
DWIDTH 14 0
BBX 13 13 0 -1
BITMAP
0020
7FF0
0000
2020
3FF0
2020
2020
3FE0
0000
2060
1840
0890
FFF8
ENDCHAR
STARTCHAR uni2F97
ENCODING 12183
SWIDTH 1000 0
DWIDTH 14 0
BBX 13 13 0 -1
BITMAP
0010
FFF8
0400
0830
3420
C640
0980
3300
C580
0940
3130
C918
0608
ENDCHAR
STARTCHAR uni2F98
ENCODING 12184
SWIDTH 1000 0
DWIDTH 14 0
BBX 9 13 2 -1
BITMAP
0400
0800
3480
D500
1200
0E00
3500
C900
1300
E500
1900
E900
0600
ENDCHAR
STARTCHAR uni2F99
ENCODING 12185
SWIDTH 1000 0
DWIDTH 14 0
BBX 13 13 0 -1
BITMAP
2020
3FF0
2020
3FE0
2020
2020
3FE0
2020
3FE0
2020
0C80
3060
C018
ENDCHAR
STARTCHAR uni2F9A
ENCODING 12186
SWIDTH 1000 0
DWIDTH 14 0
BBX 13 13 0 -1
BITMAP
0200
0200
7FF0
0200
0200
FFF8
0880
28A0
2890
4890
8C88
3388
C100
ENDCHAR
STARTCHAR uni2F9B
ENCODING 12187
SWIDTH 1000 0
DWIDTH 14 0
BBX 13 13 0 -1
BITMAP
0200
0240
3FE0
0200
0210
FFF8
0200
1220
13F0
1200
2A00
4600
81F8
ENDCHAR
STARTCHAR uni2F9C
ENCODING 12188
SWIDTH 1000 0
DWIDTH 14 0
BBX 13 13 0 -1
BITMAP
1020
1FF0
1020
1020
1FE0
1120
0100
1100
11F0
1100
2900
4518
83E0
ENDCHAR
STARTCHAR uni2F9D
ENCODING 12189
SWIDTH 1000 0
DWIDTH 14 0
BBX 13 13 0 -1
BITMAP
0200
1FE0
1020
1FE0
1028
1FE8
1030
7FE0
0120
0220
0D20
30E0
C040
ENDCHAR
STARTCHAR uni2F9E
ENCODING 12190
SWIDTH 1000 0
DWIDTH 14 0
BBX 13 13 0 -1
BITMAP
0200
0220
7FF0
0200
3FE0
2220
3FE0
2220
3FE0
0200
FFF8
0200
0200
ENDCHAR
STARTCHAR uni2F9F
ENCODING 12191
SWIDTH 1000 0
DWIDTH 14 0
BBX 13 13 0 -1
BITMAP
0600
0220
7FF0
1040
0840
0480
FFF8
0200
0220
7FF0
0200
0200
0200
ENDCHAR
STARTCHAR uni2FA0
ENCODING 12192
SWIDTH 1000 0
DWIDTH 14 0
BBX 13 13 0 -1
BITMAP
0010
3FF8
2000
2FE0
2000
3FF8
2500
2510
24E0
24C0
4520
4618
8000
ENDCHAR
STARTCHAR uni2FA1
ENCODING 12193
SWIDTH 1000 0
DWIDTH 14 0
BBX 13 13 0 -1
BITMAP
00C0
0300
1CE0
0300
1CE0
0300
3D00
0100
11F0
1100
2900
4700
81F8
ENDCHAR
STARTCHAR uni2FA2
ENCODING 12194
SWIDTH 1000 0
DWIDTH 14 0
BBX 12 13 1 -1
BITMAP
4100
7F80
4100
7F00
0000
FFC0
8440
8440
FFC0
8020
8020
8030
7FE0
ENDCHAR
STARTCHAR uni2FA3
ENCODING 12195
SWIDTH 1000 0
DWIDTH 14 0
BBX 13 13 0 -1
BITMAP
0010
FFF8
0880
4890
7FF8
4890
4890
70F0
4010
7FF0
4010
7FF0
4010
ENDCHAR
STARTCHAR uni2FA4
ENCODING 12196
SWIDTH 1000 0
DWIDTH 14 0
BBX 13 13 0 -1
BITMAP
0060
3F80
0220
2220
1240
1290
FFF8
0200
0A80
1240
2230
4218
8208
ENDCHAR
STARTCHAR uni2FA5
ENCODING 12197
SWIDTH 1000 0
DWIDTH 14 0
BBX 13 13 0 -1
BITMAP
2020
3FF0
2220
2220
3FE0
2220
3FE0
2220
0200
7FF0
0200
0200
FFF8
ENDCHAR
STARTCHAR uni2FA6
ENCODING 12198
SWIDTH 1000 0
DWIDTH 14 0
BBX 13 13 0 -1
BITMAP
0200
0500
0880
3060
C018
1FC0
0200
0200
3FE0
2220
1240
0A80
FFF8
ENDCHAR
STARTCHAR uni2FA7
ENCODING 12199
SWIDTH 1000 0
DWIDTH 14 0
BBX 13 13 0 -1
BITMAP
1020
1FF0
1000
1FE0
1000
1FE0
1000
FFF8
1110
10A0
1040
1338
7C10
ENDCHAR
STARTCHAR uni2FA8
ENCODING 12200
SWIDTH 1000 0
DWIDTH 14 0
BBX 13 13 0 -1
BITMAP
8910
FDF8
8910
F9F0
8910
F9F0
8010
8010
8010
8010
8090
8070
8020
ENDCHAR
STARTCHAR uni2FA9
ENCODING 12201
SWIDTH 1000 0
DWIDTH 14 0
BBX 13 13 0 -1
BITMAP
0400
3FE0
2020
3FE0
2000
3FF0
2010
3FF0
2110
0100
FFF8
0100
0100
ENDCHAR
STARTCHAR uni2FAA
ENCODING 12202
SWIDTH 1000 0
DWIDTH 14 0
BBX 13 13 0 -1
BITMAP
0200
7FE0
0220
FFF8
0220
7FE0
0228
2210
1720
0AC0
3240
CE38
0410
ENDCHAR
STARTCHAR uni2FAB
ENCODING 12203
SWIDTH 1000 0
DWIDTH 14 0
BBX 13 13 0 -1
BITMAP
1100
1080
1090
3FF8
2100
6120
BFF0
2100
2120
3FF0
2100
2110
3FF8
ENDCHAR
STARTCHAR uni2FAC
ENCODING 12204
SWIDTH 1000 0
DWIDTH 14 0
BBX 13 13 0 -1
BITMAP
0010
FFF8
0200
7FF0
4210
5290
4A50
4A50
4210
5290
4A50
4A70
4220
ENDCHAR
STARTCHAR uni2FAD
ENCODING 12205
SWIDTH 1000 0
DWIDTH 14 0
BBX 13 13 0 -1
BITMAP
0200
FFF8
0200
3FE0
0200
FFF8
0000
3FE0
2220
3FE0
2020
21E0
2040
ENDCHAR
STARTCHAR uni2FAE
ENCODING 12206
SWIDTH 1000 0
DWIDTH 14 0
BBX 13 13 0 -1
BITMAP
0880
0880
F8F8
0880
0880
0880
78F0
0880
0880
0880
F8F8
0880
0880
ENDCHAR
STARTCHAR uni2FAF
ENCODING 12207
SWIDTH 1000 0
DWIDTH 14 0
BBX 13 13 0 -1
BITMAP
0010
FFF8
0200
7FF0
4890
4890
4F90
4890
4F90
4890
4890
7FF0
4010
ENDCHAR
STARTCHAR uni2FB0
ENCODING 12208
SWIDTH 1000 0
DWIDTH 14 0
BBX 13 13 0 -1
BITMAP
0880
7FF0
0880
0F80
0200
3FE0
2220
3FE0
2220
0200
FFF8
0200
0200
ENDCHAR
STARTCHAR uni2FB1
ENCODING 12209
SWIDTH 1000 0
DWIDTH 14 0
BBX 13 13 0 -1
BITMAP
0440
3FE0
0840
FFF8
0000
3FE0
2020
3FE0
0100
FFF0
1100
7FF8
0100
ENDCHAR
STARTCHAR uni2FB2
ENCODING 12210
SWIDTH 1000 0
DWIDTH 14 0
BBX 13 13 0 -1
BITMAP
0880
0880
0880
F8F8
0880
0880
78F0
0880
0880
F8F8
0880
0880
FFF8
ENDCHAR
STARTCHAR uni2FB3
ENCODING 12211
SWIDTH 1000 0
DWIDTH 14 0
BBX 13 13 0 -1
BITMAP
0600
0200
7FF0
1040
0880
FFF8
0000
3FE0
2020
3FE0
2020
3FE0
2020
ENDCHAR
STARTCHAR uni2FB4
ENCODING 12212
SWIDTH 1000 0
DWIDTH 14 0
BBX 13 13 0 -1
BITMAP
0010
FFF8
0200
3FE0
2020
3FE0
2020
3FE0
2020
3FE0
2020
18C0
E038
ENDCHAR
STARTCHAR uni2FB5
ENCODING 12213
SWIDTH 1000 0
DWIDTH 14 0
BBX 13 13 0 -1
BITMAP
2020
3FF0
20A0
3F20
2220
2FA0
2AA0
2FA0
2AA0
22A8
23A8
5E58
8848
ENDCHAR
STARTCHAR uni2FB6
ENCODING 12214
SWIDTH 1000 0
DWIDTH 14 0
BBX 13 13 0 -1
BITMAP
7F90
00A0
1AC0
72B0
1288
1248
FFB8
12A0
12C0
12B0
2288
4248
8238
ENDCHAR
STARTCHAR uni2FB7
ENCODING 12215
SWIDTH 1000 0
DWIDTH 14 0
BBX 13 13 0 -1
BITMAP
0200
0500
0A80
3260
DFD8
1040
1FC0
1040
1FD0
1220
11C0
1660
7818
ENDCHAR
STARTCHAR uni2FB8
ENCODING 12216
SWIDTH 1000 0
DWIDTH 14 0
BBX 13 13 0 -1
BITMAP
10C0
0880
FFF8
0200
0400
3FE0
2020
3FE0
2020
3FE0
2020
3FE0
2020
ENDCHAR
STARTCHAR uni2FB9
ENCODING 12217
SWIDTH 1000 0
DWIDTH 14 0
BBX 13 13 0 -1
BITMAP
0060
3F80
0210
FFF8
0A80
3260
C218
3FE0
2020
3FE0
2020
3FE0
2020
ENDCHAR
STARTCHAR uni2FBA
ENCODING 12218
SWIDTH 1000 0
DWIDTH 14 0
BBX 13 13 0 -1
BITMAP
4020
7FF0
4200
7FE0
4200
7FE0
4200
7FF8
0008
1288
4948
4948
8030
ENDCHAR
STARTCHAR uni2FBB
ENCODING 12219
SWIDTH 1000 0
DWIDTH 14 0
BBX 13 13 0 -1
BITMAP
1FC0
1040
13C0
1240
7FF8
4008
9FD0
1040
1FC0
1040
1FC0
1040
11C0
ENDCHAR
STARTCHAR uni2FBC
ENCODING 12220
SWIDTH 1000 0
DWIDTH 14 0
BBX 13 13 0 -1
BITMAP
0200
FFF8
0000
1FC0
1040
1FC0
0000
7FF0
4010
4F90
4890
4F90
4070
ENDCHAR
STARTCHAR uni2FBD
ENCODING 12221
SWIDTH 1000 0
DWIDTH 14 0
BBX 13 13 0 -1
BITMAP
2200
3F10
2020
3E40
2088
3E10
2020
FF48
1090
2420
4E40
F280
0100
ENDCHAR
STARTCHAR uni2FBE
ENCODING 12222
SWIDTH 1000 0
DWIDTH 14 0
BBX 13 13 0 -1
BITMAP
FDF8
9048
B8E8
9048
FDF8
8008
8008
8008
8008
8008
8048
8038
8010
ENDCHAR
STARTCHAR uni2FBF
ENCODING 12223
SWIDTH 1000 0
DWIDTH 14 0
BBX 12 13 1 -1
BITMAP
0400
92A0
C920
A6A0
8960
92A0
FFE0
0020
8180
8E20
F020
8030
7FE0
ENDCHAR
STARTCHAR uni2FC0
ENCODING 12224
SWIDTH 1000 0
DWIDTH 14 0
BBX 13 13 0 -1
BITMAP
FFF8
0000
3FE0
2020
3FE0
0000
FFF8
9048
8888
BFE8
8208
8278
8210
ENDCHAR
STARTCHAR uni2FC1
ENCODING 12225
SWIDTH 1000 0
DWIDTH 14 0
BBX 13 13 0 -1
BITMAP
0600
2420
3FF0
2220
3FE0
2220
3FE0
2520
0520
0550
09F0
3108
C0F8
ENDCHAR
STARTCHAR uni2FC2
ENCODING 12226
SWIDTH 1000 0
DWIDTH 14 0
BBX 13 13 0 -1
BITMAP
0840
0FE0
1040
3FF0
5110
9110
1FF0
1110
1110
1FF0
5110
4888
8888
ENDCHAR
STARTCHAR uni2FC3
ENCODING 12227
SWIDTH 1000 0
DWIDTH 14 0
BBX 13 13 0 -1
BITMAP
0400
3FC0
2040
3FC0
2040
3FC0
2000
3FF0
2000
3FF8
5248
4928
8930
ENDCHAR
STARTCHAR uni2FC4
ENCODING 12228
SWIDTH 1000 0
DWIDTH 14 0
BBX 12 13 1 -1
BITMAP
0400
07F0
0400
FFE0
A820
94A0
8920
A6A0
9660
8920
94A0
A220
FFE0
ENDCHAR
STARTCHAR uni2FC5
ENCODING 12229
SWIDTH 1000 0
DWIDTH 14 0
BBX 13 13 0 -1
BITMAP
0100
3FF8
2000
2440
3FF8
2448
3FF8
2840
2F48
2870
2948
4A48
8C78
ENDCHAR
STARTCHAR uni2FC6
ENCODING 12230
SWIDTH 1000 0
DWIDTH 14 0
BBX 13 13 0 -1
BITMAP
0200
FFF8
2220
2220
5250
8F88
3260
C818
0FE0
3880
C700
18C0
E038
ENDCHAR
STARTCHAR uni2FC7
ENCODING 12231
SWIDTH 1000 0
DWIDTH 14 0
BBX 13 13 0 -1
BITMAP
0600
4210
7FF8
4440
7FF8
4440
56D0
56D0
5550
5550
5550
6558
8440
ENDCHAR
STARTCHAR uni2FC8
ENCODING 12232
SWIDTH 1000 0
DWIDTH 14 0
BBX 13 13 0 -1
BITMAP
0890
FFF8
0880
0F80
0010
FFF8
2220
3FE0
2220
3FE0
0000
18C0
E038
ENDCHAR
STARTCHAR uni2FC9
ENCODING 12233
SWIDTH 1000 0
DWIDTH 14 0
BBX 13 13 0 -1
BITMAP
00C0
3F00
0210
FFF8
1240
2220
C518
1AC0
EAB8
0700
0A80
3260
C618
ENDCHAR
STARTCHAR uni2FCA
ENCODING 12234
SWIDTH 1000 0
DWIDTH 14 0
BBX 13 13 0 -1
BITMAP
7FF0
4210
5250
4A90
7FF0
4210
0200
7FF0
0200
FFF8
4910
4488
8488
ENDCHAR
STARTCHAR uni2FCB
ENCODING 12235
SWIDTH 1000 0
DWIDTH 14 0
BBX 13 13 0 -1
BITMAP
4890
2890
28A0
FFF8
2220
4210
FFF8
4210
4710
4A90
5250
6270
4220
ENDCHAR
STARTCHAR uni2FCC
ENCODING 12236
SWIDTH 1000 0
DWIDTH 14 0
BBX 13 13 0 -1
BITMAP
FFF0
8910
8910
F9F0
0900
F9F0
8910
F9F0
8910
F9F0
0908
0908
07F8
ENDCHAR
STARTCHAR uni2FCD
ENCODING 12237
SWIDTH 1000 0
DWIDTH 14 0
BBX 13 13 0 -1
BITMAP
1FC0
5050
5FD0
5050
5FD0
5050
5FD0
78F0
0880
F8F8
4890
4890
8890
ENDCHAR
STARTCHAR uni2FCE
ENCODING 12238
SWIDTH 1000 0
DWIDTH 14 0
BBX 13 13 0 -1
BITMAP
1040
FE40
11F8
1040
7C40
01F0
7D10
4510
7CA0
4440
28A0
FD18
4208
ENDCHAR
STARTCHAR uni2FCF
ENCODING 12239
SWIDTH 1000 0
DWIDTH 14 0
BBX 13 13 0 -1
BITMAP
4820
71F0
4020
7DE0
4020
7FE0
1280
4A60
4220
52A0
4A68
52A8
E318
ENDCHAR
STARTCHAR uni2FD0
ENCODING 12240
SWIDTH 1000 0
DWIDTH 14 0
BBX 13 13 0 -1
BITMAP
0200
3FE0
2020
3FE0
2020
7FF0
4210
7FF0
4210
FFF8
1040
2040
C040
ENDCHAR
STARTCHAR uni2FD1
ENCODING 12241
SWIDTH 1000 0
DWIDTH 14 0
BBX 13 13 0 -1
BITMAP
0200
FFF8
0510
FDE0
2AA0
2A90
52C8
9020
1FE0
1020
1FE0
2020
C020
ENDCHAR
STARTCHAR uni2FD2
ENCODING 12242
SWIDTH 1000 0
DWIDTH 14 0
BBX 13 13 0 -1
BITMAP
0200
23F0
2200
FFF8
4890
4890
5550
7FF0
4890
4890
5550
7FF0
4010
ENDCHAR
STARTCHAR uni2FD3
ENCODING 12243
SWIDTH 1000 0
DWIDTH 14 0
BBX 13 13 0 -1
BITMAP
30F8
1080
7EF8
2408
FFF8
0080
7EF8
4280
7EF8
4280
7EF8
4288
4E78
ENDCHAR
STARTCHAR uni2FD4
ENCODING 12244
SWIDTH 1000 0
DWIDTH 14 0
BBX 13 13 0 -1
BITMAP
1F80
2110
FFF8
2290
FEF0
0A90
FED0
0AB0
FAD0
0A90
FEF8
0A08
F9F8
ENDCHAR
STARTCHAR uni2FD5
ENCODING 12245
SWIDTH 1000 0
DWIDTH 14 0
BBX 13 13 0 -1
BITMAP
0200
0D80
3760
C018
F778
9548
F778
0000
FFF8
8888
FFF8
8888
88B8
ENDCHAR
STARTCHAR uni3000
ENCODING 12288
SWIDTH 1000 0
DWIDTH 14 0
BBX 1 1 0 0
BITMAP
00
ENDCHAR
STARTCHAR uni3001
ENCODING 12289
SWIDTH 1000 0
DWIDTH 14 0
BBX 3 3 6 4
BITMAP
80
60
20
ENDCHAR
STARTCHAR uni3002
ENCODING 12290
SWIDTH 1000 0
DWIDTH 14 0
BBX 4 4 5 3
BITMAP
60
90
90
60
ENDCHAR
STARTCHAR uni3003
ENCODING 12291
SWIDTH 1000 0
DWIDTH 14 0
BBX 6 6 3 2
BITMAP
6C
48
48
48
90
90
ENDCHAR
STARTCHAR uni3005
ENCODING 12293
SWIDTH 1000 0
DWIDTH 14 0
BBX 11 11 1 0
BITMAP
0800
1020
1FC0
1040
2080
2080
4100
8200
0600
0100
0080
ENDCHAR
STARTCHAR uni3008
ENCODING 12296
SWIDTH 1000 0
DWIDTH 14 0
BBX 4 13 8 -1
BITMAP
10
10
20
20
40
40
80
80
40
40
20
20
10
ENDCHAR
STARTCHAR uni3009
ENCODING 12297
SWIDTH 1000 0
DWIDTH 14 0
BBX 4 13 2 -1
BITMAP
80
80
40
40
20
20
10
20
20
40
40
80
80
ENDCHAR
STARTCHAR uni300A
ENCODING 12298
SWIDTH 1000 0
DWIDTH 14 0
BBX 6 13 7 -1
BITMAP
10
14
28
28
50
50
A0
90
50
48
28
24
10
ENDCHAR
STARTCHAR uni300B
ENCODING 12299
SWIDTH 1000 0
DWIDTH 14 0
BBX 6 13 1 -1
BITMAP
20
A0
90
50
48
28
24
28
28
50
50
A0
20
ENDCHAR
STARTCHAR uni300C
ENCODING 12300
SWIDTH 1000 0
DWIDTH 14 0
BBX 5 10 8 2
BITMAP
F8
80
80
80
80
80
80
80
80
80
ENDCHAR
STARTCHAR uni300D
ENCODING 12301
SWIDTH 1000 0
DWIDTH 14 0
BBX 5 10 1 -1
BITMAP
08
08
08
08
08
08
08
08
08
F8
ENDCHAR
STARTCHAR uni300E
ENCODING 12302
SWIDTH 1000 0
DWIDTH 14 0
BBX 5 10 7 2
BITMAP
F8
88
B8
A0
A0
A0
A0
A0
A0
E0
ENDCHAR
STARTCHAR uni300F
ENCODING 12303
SWIDTH 1000 0
DWIDTH 14 0
BBX 6 10 1 -1
BITMAP
1C
14
14
14
14
14
14
F4
84
FC
ENDCHAR
STARTCHAR uni3010
ENCODING 12304
SWIDTH 1000 0
DWIDTH 14 0
BBX 3 13 8 -1
BITMAP
E0
C0
C0
80
80
80
80
80
80
80
C0
C0
E0
ENDCHAR
STARTCHAR uni3011
ENCODING 12305
SWIDTH 1000 0
DWIDTH 14 0
BBX 4 14 2 -2
BITMAP
70
30
30
10
10
10
10
10
10
10
30
30
70
F0
ENDCHAR
STARTCHAR uni3012
ENCODING 12306
SWIDTH 1000 0
DWIDTH 14 0
BBX 12 11 1 0
BITMAP
FFF0
0000
0000
FFF0
0400
0400
0400
0400
0400
0400
0400
ENDCHAR
STARTCHAR uni3013
ENCODING 12307
SWIDTH 1000 0
DWIDTH 14 0
BBX 11 11 2 0
BITMAP
FFE0
FFE0
FFE0
FFE0
0000
0000
0000
FFE0
FFE0
FFE0
FFE0
ENDCHAR
STARTCHAR uni3014
ENCODING 12308
SWIDTH 1000 0
DWIDTH 14 0
BBX 3 13 8 -1
BITMAP
20
40
80
80
80
80
80
80
80
80
80
40
20
ENDCHAR
STARTCHAR uni3015
ENCODING 12309
SWIDTH 1000 0
DWIDTH 14 0
BBX 3 13 3 -1
BITMAP
80
40
20
20
20
20
20
20
20
20
20
40
80
ENDCHAR
STARTCHAR uni3016
ENCODING 12310
SWIDTH 1000 0
DWIDTH 14 0
BBX 4 15 9 -2
BITMAP
F0
90
A0
A0
C0
C0
C0
C0
C0
C0
C0
A0
A0
90
F0
ENDCHAR
STARTCHAR uni3017
ENCODING 12311
SWIDTH 1000 0
DWIDTH 14 0
BBX 4 15 1 -2
BITMAP
F0
90
50
50
30
30
30
30
30
30
30
50
50
90
F0
ENDCHAR
STARTCHAR uni301D
ENCODING 12317
SWIDTH 1000 0
DWIDTH 14 0
BBX 5 2 8 9
BITMAP
A0
58
ENDCHAR
STARTCHAR uni301E
ENCODING 12318
SWIDTH 1000 0
DWIDTH 14 0
BBX 4 2 1 9
BITMAP
50
80
ENDCHAR
STARTCHAR uni3021
ENCODING 12321
SWIDTH 1000 0
DWIDTH 14 0
BBX 1 12 6 -1
BITMAP
80
80
80
80
80
80
80
80
80
80
80
80
ENDCHAR
STARTCHAR uni3022
ENCODING 12322
SWIDTH 1000 0
DWIDTH 14 0
BBX 6 12 3 -1
BITMAP
04
84
84
84
84
84
84
84
84
04
04
04
ENDCHAR
STARTCHAR uni3023
ENCODING 12323
SWIDTH 1000 0
DWIDTH 14 0
BBX 10 12 2 -1
BITMAP
8040
8840
8840
8840
8840
8840
8840
8840
8840
8840
8040
0040
ENDCHAR
STARTCHAR uni3024
ENCODING 12324
SWIDTH 1000 0
DWIDTH 14 0
BBX 9 10 3 0
BITMAP
0200
C200
2400
1400
0800
0C00
1200
2100
4080
8080
ENDCHAR
STARTCHAR uni3025
ENCODING 12325
SWIDTH 1000 0
DWIDTH 14 0
BBX 9 13 3 -1
BITMAP
0100
2180
4300
4600
3800
2400
4200
8100
8100
8100
8300
4600
3800
ENDCHAR
STARTCHAR uni3026
ENCODING 12326
SWIDTH 1000 0
DWIDTH 14 0
BBX 12 3 1 6
BITMAP
0400
0200
FFF0
ENDCHAR
STARTCHAR uni3027
ENCODING 12327
SWIDTH 1000 0
DWIDTH 14 0
BBX 12 8 1 3
BITMAP
0400
0200
0210
FFF0
0000
0000
0000
3FE0
ENDCHAR
STARTCHAR uni3028
ENCODING 12328
SWIDTH 1000 0
DWIDTH 14 0
BBX 12 11 1 0
BITMAP
0400
0200
FFF0
0000
0000
0000
3FE0
0000
0000
0010
FFF0
ENDCHAR
STARTCHAR uni3029
ENCODING 12329
SWIDTH 1000 0
DWIDTH 14 0
BBX 11 13 2 -2
BITMAP
0800
0400
FFC0
4080
2100
2100
1200
1200
0C00
0C00
1300
60E0
8000
ENDCHAR
STARTCHAR uni3041
ENCODING 12353
SWIDTH 1000 0
DWIDTH 14 0
BBX 10 11 2 -2
BITMAP
1000
0800
4E00
3800
1200
1F80
3440
5840
9840
A880
4300
ENDCHAR
STARTCHAR uni3042
ENCODING 12354
SWIDTH 1000 0
DWIDTH 14 0
BBX 11 13 2 -1
BITMAP
1000
0800
0B00
7C00
1200
1200
1F80
3440
5420
8820
9820
A840
4180
ENDCHAR
STARTCHAR uni3043
ENCODING 12355
SWIDTH 1000 0
DWIDTH 14 0
BBX 9 7 3 -1
BITMAP
8200
8100
8080
8180
5000
6000
2000
ENDCHAR
STARTCHAR uni3044
ENCODING 12356
SWIDTH 1000 0
DWIDTH 14 0
BBX 12 9 1 0
BITMAP
8000
40C0
4020
4010
4410
4830
2810
3000
1000
ENDCHAR
STARTCHAR uni3045
ENCODING 12357
SWIDTH 1000 0
DWIDTH 14 0
BBX 7 10 3 -2
BITMAP
10
0C
00
9C
62
02
02
02
04
18
ENDCHAR
STARTCHAR uni3046
ENCODING 12358
SWIDTH 1000 0
DWIDTH 14 0
BBX 8 14 3 -2
BITMAP
10
0E
00
00
1E
E1
01
01
01
01
02
02
04
08
ENDCHAR
STARTCHAR uni3047
ENCODING 12359
SWIDTH 1000 0
DWIDTH 14 0
BBX 9 10 3 -2
BITMAP
1000
0C00
0000
0E00
7400
0800
1000
3800
4800
8780
ENDCHAR
STARTCHAR uni3048
ENCODING 12360
SWIDTH 1000 0
DWIDTH 14 0
BBX 11 13 2 -1
BITMAP
1000
0E00
0000
0000
4700
3A00
0400
0800
1000
3800
4400
8400
83E0
ENDCHAR
STARTCHAR uni3049
ENCODING 12361
SWIDTH 1000 0
DWIDTH 14 0
BBX 10 10 2 -2
BITMAP
4100
20C0
3080
E000
2F00
3080
6080
A080
6300
2000
ENDCHAR
STARTCHAR uni304A
ENCODING 12362
SWIDTH 1000 0
DWIDTH 14 0
BBX 12 12 1 -1
BITMAP
2000
10C0
1420
1830
7000
1180
1640
1820
3020
D220
31C0
1000
ENDCHAR
STARTCHAR uni304B
ENCODING 12363
SWIDTH 1000 0
DWIDTH 14 0
BBX 12 12 1 -1
BITMAP
1000
0800
08C0
8E20
7910
1130
1100
1100
2100
2200
4A00
4400
ENDCHAR
STARTCHAR uni304C
ENCODING 12364
SWIDTH 1000 0
DWIDTH 14 0
BBX 13 13 0 -1
BITMAP
0010
1048
0820
0880
8E40
7920
1110
1130
1100
2100
2200
4A00
4400
ENDCHAR
STARTCHAR uni304D
ENCODING 12365
SWIDTH 1000 0
DWIDTH 14 0
BBX 9 14 2 -2
BITMAP
1000
0800
0B00
7C00
0400
0780
FA00
0100
0100
3F80
4080
4000
3000
0E00
ENDCHAR
STARTCHAR uni304E
ENCODING 12366
SWIDTH 1000 0
DWIDTH 14 0
BBX 12 14 1 -2
BITMAP
1020
0890
0B40
7C00
0400
0780
FA00
0100
0100
3F80
4080
4000
3000
0E00
ENDCHAR
STARTCHAR uni304F
ENCODING 12367
SWIDTH 1000 0
DWIDTH 14 0
BBX 6 14 4 -2
BITMAP
08
04
04
08
10
60
80
80
40
20
10
08
04
04
ENDCHAR
STARTCHAR uni3050
ENCODING 12368
SWIDTH 1000 0
DWIDTH 14 0
BBX 10 14 3 -2
BITMAP
0800
0400
0400
0880
1240
6100
8000
8000
4000
2000
1000
0800
0400
0400
ENDCHAR
STARTCHAR uni3051
ENCODING 12369
SWIDTH 1000 0
DWIDTH 14 0
BBX 12 14 1 -2
BITMAP
0200
8100
4080
4080
40F0
8F80
8080
8080
8080
8080
6080
4100
4100
0200
ENDCHAR
STARTCHAR uni3052
ENCODING 12370
SWIDTH 1000 0
DWIDTH 14 0
BBX 13 14 0 -2
BITMAP
0210
8148
40A0
4080
40F0
8F80
8080
8080
8080
8080
6080
4100
4100
0200
ENDCHAR
STARTCHAR uni3053
ENCODING 12371
SWIDTH 1000 0
DWIDTH 14 0
BBX 10 12 2 -1
BITMAP
2000
1F80
0200
0400
0000
0000
0000
0000
8000
8000
4040
3F80
ENDCHAR
STARTCHAR uni3054
ENCODING 12372
SWIDTH 1000 0
DWIDTH 14 0
BBX 12 13 1 -1
BITMAP
0020
2010
1FC0
0220
0400
0000
0000
0000
0000
8000
8000
4040
3F80
ENDCHAR
STARTCHAR uni3055
ENCODING 12373
SWIDTH 1000 0
DWIDTH 14 0
BBX 10 13 2 -1
BITMAP
1000
0800
04C0
8700
7A00
0100
0100
1F80
2080
4000
4000
3000
0F00
ENDCHAR
STARTCHAR uni3056
ENCODING 12374
SWIDTH 1000 0
DWIDTH 14 0
BBX 12 13 1 -1
BITMAP
1020
0810
04C0
8720
7A00
0100
0100
1F80
2080
4000
4000
3000
0F00
ENDCHAR
STARTCHAR uni3057
ENCODING 12375
SWIDTH 1000 0
DWIDTH 14 0
BBX 10 12 2 -1
BITMAP
8000
4000
4000
4000
4000
4000
4000
4000
4040
4080
2300
1C00
ENDCHAR
STARTCHAR uni3058
ENCODING 12376
SWIDTH 1000 0
DWIDTH 14 0
BBX 10 12 2 -1
BITMAP
8100
4480
4200
4000
4000
4000
4000
4000
4040
4080
2300
1C00
ENDCHAR
STARTCHAR uni3059
ENCODING 12377
SWIDTH 1000 0
DWIDTH 14 0
BBX 12 14 1 -2
BITMAP
0200
0100
81F0
7F00
0100
0700
0980
0880
0780
0080
0100
0100
0200
0400
ENDCHAR
STARTCHAR uni305A
ENCODING 12378
SWIDTH 1000 0
DWIDTH 14 0
BBX 13 14 0 -2
BITMAP
0250
0128
81F0
7F00
0100
0700
0980
0880
0780
0080
0100
0100
0200
0400
ENDCHAR
STARTCHAR uni305B
ENCODING 12379
SWIDTH 1000 0
DWIDTH 14 0
BBX 12 12 1 -1
BITMAP
0100
2080
1080
10F0
9780
7880
1080
1080
1180
1080
0800
07C0
ENDCHAR
STARTCHAR uni305C
ENCODING 12380
SWIDTH 1000 0
DWIDTH 14 0
BBX 13 13 0 -1
BITMAP
0010
0108
20A0
1090
10F0
9780
7880
1080
1080
1180
1080
0800
07C0
ENDCHAR
STARTCHAR uni305D
ENCODING 12381
SWIDTH 1000 0
DWIDTH 14 0
BBX 11 13 1 -2
BITMAP
2700
1900
0200
0400
08E0
1F00
E200
0400
0800
0800
0800
0400
0380
ENDCHAR
STARTCHAR uni305E
ENCODING 12382
SWIDTH 1000 0
DWIDTH 14 0
BBX 12 13 1 -2
BITMAP
2720
1990
0240
0400
08E0
1F00
E200
0400
0800
0800
0800
0400
0380
ENDCHAR
STARTCHAR uni305F
ENCODING 12383
SWIDTH 1000 0
DWIDTH 14 0
BBX 11 12 1 -1
BITMAP
2000
1200
1C00
F000
23C0
2060
2080
4000
4000
4400
8400
83E0
ENDCHAR
STARTCHAR uni3060
ENCODING 12384
SWIDTH 1000 0
DWIDTH 14 0
BBX 12 13 1 -1
BITMAP
0020
2090
1240
1C00
F000
23C0
2060
2080
4000
4000
4400
8400
83E0
ENDCHAR
STARTCHAR uni3061
ENCODING 12385
SWIDTH 1000 0
DWIDTH 14 0
BBX 11 14 1 -2
BITMAP
1000
0800
0980
8E00
7800
1000
1180
1640
3820
2020
0020
0040
0180
0E00
ENDCHAR
STARTCHAR uni3062
ENCODING 12386
SWIDTH 1000 0
DWIDTH 14 0
BBX 13 14 0 -2
BITMAP
1000
0810
0988
8E20
7810
1000
1180
1640
3820
2020
0020
0040
0180
0E00
ENDCHAR
STARTCHAR uni3063
ENCODING 12387
SWIDTH 1000 0
DWIDTH 14 0
BBX 10 8 2 -2
BITMAP
0700
1880
E040
0040
0040
0080
0300
1C00
ENDCHAR
STARTCHAR uni3064
ENCODING 12388
SWIDTH 1000 0
DWIDTH 14 0
BBX 12 9 1 0
BITMAP
07C0
9820
6010
0010
0010
0010
0020
00C0
0700
ENDCHAR
STARTCHAR uni3065
ENCODING 12389
SWIDTH 1000 0
DWIDTH 14 0
BBX 13 12 0 0
BITMAP
0010
0048
0020
07C0
9820
6010
0010
0010
0010
0020
00C0
0700
ENDCHAR
STARTCHAR uni3066
ENCODING 12390
SWIDTH 1000 0
DWIDTH 14 0
BBX 12 12 1 -1
BITMAP
0070
8780
7900
0200
0200
0400
0400
0400
0400
0400
0200
01C0
ENDCHAR
STARTCHAR uni3067
ENCODING 12391
SWIDTH 1000 0
DWIDTH 14 0
BBX 13 12 0 -1
BITMAP
0070
8780
7910
0248
0220
0400
0400
0400
0400
0400
0200
01C0
ENDCHAR
STARTCHAR uni3068
ENCODING 12392
SWIDTH 1000 0
DWIDTH 14 0
BBX 9 12 3 -1
BITMAP
2000
1000
1000
1000
1380
1C00
3000
4000
8000
8000
4000
3F80
ENDCHAR
STARTCHAR uni3069
ENCODING 12393
SWIDTH 1000 0
DWIDTH 14 0
BBX 11 12 2 -1
BITMAP
2040
1120
1080
1000
1380
1C00
3000
4000
8000
8000
4000
3F80
ENDCHAR
STARTCHAR uni306A
ENCODING 12394
SWIDTH 1000 0
DWIDTH 14 0
BBX 11 14 1 -2
BITMAP
1000
0800
0A00
FC00
11C0
2060
2080
4100
4100
8100
0F00
1180
1140
0E00
ENDCHAR
STARTCHAR uni306B
ENCODING 12395
SWIDTH 1000 0
DWIDTH 14 0
BBX 11 13 1 -2
BITMAP
8000
4000
43C0
4C60
8080
8000
8000
8000
8800
A800
47E0
4000
4000
ENDCHAR
STARTCHAR uni306C
ENCODING 12396
SWIDTH 1000 0
DWIDTH 14 0
BBX 12 12 1 -1
BITMAP
0200
0100
0100
27C0
2A20
3210
2410
5410
9810
98D0
A920
40D0
ENDCHAR
STARTCHAR uni306D
ENCODING 12397
SWIDTH 1000 0
DWIDTH 14 0
BBX 12 13 1 -1
BITMAP
2000
1000
1000
1000
99C0
7E20
1820
1020
3020
3020
51E0
B230
11C0
ENDCHAR
STARTCHAR uni306E
ENCODING 12398
SWIDTH 1000 0
DWIDTH 14 0
BBX 11 11 1 -1
BITMAP
0F00
3480
4440
4420
8820
8820
9020
9040
A040
4180
0600
ENDCHAR
STARTCHAR uni306F
ENCODING 12399
SWIDTH 1000 0
DWIDTH 14 0
BBX 11 13 1 -1
BITMAP
0100
8080
4080
50E0
4F80
8080
8080
8080
8080
A780
48C0
48A0
4700
ENDCHAR
STARTCHAR uni3070
ENCODING 12400
SWIDTH 1000 0
DWIDTH 14 0
BBX 13 13 0 -1
BITMAP
0110
8088
40A0
50F0
4F80
8080
8080
8080
8080
A780
48C0
48A0
4700
ENDCHAR
STARTCHAR uni3071
ENCODING 12401
SWIDTH 1000 0
DWIDTH 14 0
BBX 13 13 0 -1
BITMAP
0130
80C8
40C8
50F0
4F80
8080
8080
8080
8080
A780
48C0
48A0
4700
ENDCHAR
STARTCHAR uni3072
ENCODING 12402
SWIDTH 1000 0
DWIDTH 14 0
BBX 11 12 2 -1
BITMAP
0100
1100
F080
2080
20C0
40A0
4080
4080
4100
4100
2200
1C00
ENDCHAR
STARTCHAR uni3073
ENCODING 12403
SWIDTH 1000 0
DWIDTH 14 0
BBX 12 13 1 -1
BITMAP
0020
0110
1140
F0A0
2080
20C0
40A0
4080
4080
4100
4100
2200
1C00
ENDCHAR
STARTCHAR uni3074
ENCODING 12404
SWIDTH 1000 0
DWIDTH 14 0
BBX 11 13 1 -1
BITMAP
00C0
0120
1120
F0C0
2080
20C0
40A0
4080
4080
4100
4100
2200
1C00
ENDCHAR
STARTCHAR uni3075
ENCODING 12405
SWIDTH 1000 0
DWIDTH 14 0
BBX 13 12 0 -1
BITMAP
0800
0700
0100
0200
0400
0400
0200
0560
9910
7138
4900
0600
ENDCHAR
STARTCHAR uni3076
ENCODING 12406
SWIDTH 1000 0
DWIDTH 14 0
BBX 13 12 0 -1
BITMAP
0800
0710
0148
0220
0400
0400
0200
0560
9910
7138
4900
0600
ENDCHAR
STARTCHAR uni3077
ENCODING 12407
SWIDTH 1000 0
DWIDTH 14 0
BBX 13 12 0 -1
BITMAP
0800
0730
0148
0248
0430
0400
0200
0560
9910
7138
4900
0600
ENDCHAR
STARTCHAR uni3078
ENCODING 12408
SWIDTH 1000 0
DWIDTH 14 0
BBX 13 6 0 2
BITMAP
0C00
1200
A100
4080
0060
0018
ENDCHAR
STARTCHAR uni3079
ENCODING 12409
SWIDTH 1000 0
DWIDTH 14 0
BBX 13 8 0 2
BITMAP
0020
0090
0C40
1200
A100
4080
0060
0018
ENDCHAR
STARTCHAR uni307A
ENCODING 12410
SWIDTH 1000 0
DWIDTH 14 0
BBX 13 9 0 2
BITMAP
0060
0090
0090
0C60
1200
A100
4080
0060
0018
ENDCHAR
STARTCHAR uni307B
ENCODING 12411
SWIDTH 1000 0
DWIDTH 14 0
BBX 11 12 1 -1
BITMAP
88C0
4700
4100
40E0
8F80
8080
8080
8080
A780
48C0
48A0
4700
ENDCHAR
STARTCHAR uni307C
ENCODING 12412
SWIDTH 1000 0
DWIDTH 14 0
BBX 13 12 0 -1
BITMAP
88D0
4708
4120
40F0
8F80
8080
8080
8080
A780
48C0
48A0
4700
ENDCHAR
STARTCHAR uni307D
ENCODING 12413
SWIDTH 1000 0
DWIDTH 14 0
BBX 13 13 0 -1
BITMAP
0030
88C8
4748
4130
40E0
8F80
8080
8080
8080
A780
48C0
48A0
4700
ENDCHAR
STARTCHAR uni307E
ENCODING 12414
SWIDTH 1000 0
DWIDTH 14 0
BBX 9 13 2 -1
BITMAP
0800
0400
8780
7C00
0400
8700
7C00
0400
0400
7C00
8700
8480
7800
ENDCHAR
STARTCHAR uni307F
ENCODING 12415
SWIDTH 1000 0
DWIDTH 14 0
BBX 13 12 0 -1
BITMAP
1100
0F00
0200
0200
0440
0420
1FE0
6830
8848
9040
6080
0100
ENDCHAR
STARTCHAR uni3080
ENCODING 12416
SWIDTH 1000 0
DWIDTH 14 0
BBX 12 13 1 -1
BITMAP
2000
1000
9C00
70C0
1020
7030
9000
9000
B080
6040
2040
2040
1F80
ENDCHAR
STARTCHAR uni3081
ENCODING 12417
SWIDTH 1000 0
DWIDTH 14 0
BBX 12 12 1 -1
BITMAP
0200
0100
2100
2780
3940
2220
5210
5410
8C10
8810
9420
60C0
ENDCHAR
STARTCHAR uni3082
ENCODING 12418
SWIDTH 1000 0
DWIDTH 14 0
BBX 10 14 1 -2
BITMAP
0800
0400
4400
3800
0E00
4800
9080
7080
1C40
1040
1040
1040
0880
0700
ENDCHAR
STARTCHAR uni3083
ENCODING 12419
SWIDTH 1000 0
DWIDTH 14 0
BBX 10 10 2 -2
BITMAP
0400
2200
2780
3840
F040
1180
0800
0800
0400
0400
ENDCHAR
STARTCHAR uni3084
ENCODING 12420
SWIDTH 1000 0
DWIDTH 14 0
BBX 12 14 1 -2
BITMAP
0200
0100
0380
3000
21E0
1610
9810
6810
04E0
0400
0200
0200
0100
0100
ENDCHAR
STARTCHAR uni3085
ENCODING 12421
SWIDTH 1000 0
DWIDTH 14 0
BBX 10 10 2 -2
BITMAP
0800
0400
8780
9C40
A440
C440
8C80
8700
0400
0800
ENDCHAR
STARTCHAR uni3086
ENCODING 12422
SWIDTH 1000 0
DWIDTH 14 0
BBX 12 13 1 -2
BITMAP
0600
8100
43C0
4520
4910
5110
6110
6910
4520
43C0
0100
0200
0400
ENDCHAR
STARTCHAR uni3087
ENCODING 12423
SWIDTH 1000 0
DWIDTH 14 0
BBX 8 11 3 -2
BITMAP
10
08
09
0E
08
08
08
78
8E
89
70
ENDCHAR
STARTCHAR uni3088
ENCODING 12424
SWIDTH 1000 0
DWIDTH 14 0
BBX 10 13 2 -1
BITMAP
0800
0400
0400
04C0
0700
0400
0400
0400
0400
7E00
8580
8440
7800
ENDCHAR
STARTCHAR uni3089
ENCODING 12425
SWIDTH 1000 0
DWIDTH 14 0
BBX 8 14 3 -2
BITMAP
20
10
1C
60
80
80
80
9E
E1
81
81
02
0C
30
ENDCHAR
STARTCHAR uni308A
ENCODING 12426
SWIDTH 1000 0
DWIDTH 14 0
BBX 8 14 2 -2
BITMAP
80
4C
52
61
61
41
41
41
41
02
02
04
08
10
ENDCHAR
STARTCHAR uni308B
ENCODING 12427
SWIDTH 1000 0
DWIDTH 14 0
BBX 10 13 1 -2
BITMAP
2300
1D00
0200
0400
0800
1F00
3080
4040
8040
0E40
1180
1100
0E00
ENDCHAR
STARTCHAR uni308C
ENCODING 12428
SWIDTH 1000 0
DWIDTH 14 0
BBX 13 13 0 -2
BITMAP
2000
1000
1380
1440
3840
D840
1040
3040
3040
5040
9048
3030
1000
ENDCHAR
STARTCHAR uni308D
ENCODING 12429
SWIDTH 1000 0
DWIDTH 14 0
BBX 10 13 2 -2
BITMAP
4600
3A00
0400
0800
1000
3F00
2080
4040
8040
0040
0080
0300
1C00
ENDCHAR
STARTCHAR uni308E
ENCODING 12430
SWIDTH 1000 0
DWIDTH 14 0
BBX 9 10 3 -2
BITMAP
4000
2000
2000
3700
E880
3080
6080
6080
A100
2200
ENDCHAR
STARTCHAR uni308F
ENCODING 12431
SWIDTH 1000 0
DWIDTH 14 0
BBX 12 14 1 -2
BITMAP
2000
1000
1000
1000
99C0
7E20
1810
1010
3010
3010
5020
9040
3180
1000
ENDCHAR
STARTCHAR uni3090
ENCODING 12432
SWIDTH 1000 0
DWIDTH 14 0
BBX 11 12 2 -1
BITMAP
2600
1A00
0400
0400
0F80
3840
4820
9020
9020
A320
64C0
4380
ENDCHAR
STARTCHAR uni3091
ENCODING 12433
SWIDTH 1000 0
DWIDTH 14 0
BBX 12 13 1 -2
BITMAP
1300
0E00
0400
0F80
1040
2040
0C40
1380
0E00
1000
39C0
4620
8070
ENDCHAR
STARTCHAR uni3092
ENCODING 12434
SWIDTH 1000 0
DWIDTH 14 0
BBX 11 14 2 -2
BITMAP
1000
0800
4B00
3C00
1000
1080
3CE0
6300
8600
0A00
1200
2000
2000
1F80
ENDCHAR
STARTCHAR uni3093
ENCODING 12435
SWIDTH 1000 0
DWIDTH 14 0
BBX 11 13 2 -1
BITMAP
0800
0400
0400
0800
0800
1000
1000
3C00
2200
4200
4220
8240
8180
ENDCHAR
STARTCHAR uni30A1
ENCODING 12449
SWIDTH 1000 0
DWIDTH 14 0
BBX 9 8 2 -2
BITMAP
8780
7880
0900
0600
0400
0400
0800
1000
ENDCHAR
STARTCHAR uni30A2
ENCODING 12450
SWIDTH 1000 0
DWIDTH 14 0
BBX 10 12 2 -2
BITMAP
87C0
7840
0080
0900
0600
0400
0400
0400
0800
0800
1000
2000
ENDCHAR
STARTCHAR uni30A3
ENCODING 12451
SWIDTH 1000 0
DWIDTH 14 0
BBX 8 10 2 -2
BITMAP
01
02
04
1C
E4
04
04
04
04
04
ENDCHAR
STARTCHAR uni30A4
ENCODING 12452
SWIDTH 1000 0
DWIDTH 14 0
BBX 9 13 2 -2
BITMAP
0080
0080
0100
0200
0C00
3400
C200
0200
0200
0200
0200
0200
0200
ENDCHAR
STARTCHAR uni30A5
ENCODING 12453
SWIDTH 1000 0
DWIDTH 14 0
BBX 8 10 2 -2
BITMAP
10
08
0F
F1
41
42
02
04
08
10
ENDCHAR
STARTCHAR uni30A6
ENCODING 12454
SWIDTH 1000 0
DWIDTH 14 0
BBX 10 13 2 -2
BITMAP
0800
0400
0400
07C0
F840
4040
4080
2080
2100
0100
0200
0400
0800
ENDCHAR
STARTCHAR uni30A7
ENCODING 12455
SWIDTH 1000 0
DWIDTH 14 0
BBX 9 7 2 -1
BITMAP
0700
7800
0800
0800
0800
0F00
F080
ENDCHAR
STARTCHAR uni30A8
ENCODING 12456
SWIDTH 1000 0
DWIDTH 14 0
BBX 11 9 1 0
BITMAP
01C0
7E00
0800
0400
0400
0400
0400
0FC0
F020
ENDCHAR
STARTCHAR uni30A9
ENCODING 12457
SWIDTH 1000 0
DWIDTH 14 0
BBX 8 10 3 -2
BITMAP
08
04
87
7C
0C
14
24
44
8C
04
ENDCHAR
STARTCHAR uni30AA
ENCODING 12458
SWIDTH 1000 0
DWIDTH 14 0
BBX 11 13 1 -2
BITMAP
0200
0100
0100
81E0
7F00
0300
0500
0900
1100
2100
4100
0300
0100
ENDCHAR
STARTCHAR uni30AB
ENCODING 12459
SWIDTH 1000 0
DWIDTH 14 0
BBX 10 13 2 -2
BITMAP
0800
0400
0400
87C0
7C40
0840
0840
1080
1080
2080
4500
8300
0200
ENDCHAR
STARTCHAR uni30AC
ENCODING 12460
SWIDTH 1000 0
DWIDTH 14 0
BBX 12 14 1 -2
BITMAP
0020
0890
0450
0440
87C0
7C40
0840
0840
1080
1080
2080
4500
8300
0200
ENDCHAR
STARTCHAR uni30AD
ENCODING 12461
SWIDTH 1000 0
DWIDTH 14 0
BBX 11 13 1 -2
BITMAP
1000
0800
09C0
0E00
7400
0400
05E0
0E00
F200
0200
0100
0100
0100
ENDCHAR
STARTCHAR uni30AE
ENCODING 12462
SWIDTH 1000 0
DWIDTH 14 0
BBX 12 14 1 -2
BITMAP
0020
1090
0850
09C0
0E00
7400
0400
05E0
0E00
F200
0200
0100
0100
0100
ENDCHAR
STARTCHAR uni30AF
ENCODING 12463
SWIDTH 1000 0
DWIDTH 14 0
BBX 9 13 2 -2
BITMAP
2000
1380
1C80
1100
2100
2200
4200
8400
0400
0800
1000
2000
4000
ENDCHAR
STARTCHAR uni30B0
ENCODING 12464
SWIDTH 1000 0
DWIDTH 14 0
BBX 12 14 1 -2
BITMAP
0020
2090
1350
1D40
1100
2100
2200
4200
8400
0400
0800
1000
2000
4000
ENDCHAR
STARTCHAR uni30B1
ENCODING 12465
SWIDTH 1000 0
DWIDTH 14 0
BBX 11 13 1 -2
BITMAP
2000
1000
1000
10E0
3F00
2400
4200
8200
0200
0400
0400
0800
1000
ENDCHAR
STARTCHAR uni30B2
ENCODING 12466
SWIDTH 1000 0
DWIDTH 14 0
BBX 12 14 1 -2
BITMAP
0020
2090
1050
1040
10E0
3F00
2400
4200
8200
0200
0400
0400
0800
1000
ENDCHAR
STARTCHAR uni30B3
ENCODING 12467
SWIDTH 1000 0
DWIDTH 14 0
BBX 10 9 2 0
BITMAP
87C0
7840
0040
0040
0040
0080
0080
0F80
7080
ENDCHAR
STARTCHAR uni30B4
ENCODING 12468
SWIDTH 1000 0
DWIDTH 14 0
BBX 12 12 1 0
BITMAP
0020
0090
0050
87C0
7880
0080
0080
0080
0100
0100
0F00
7100
ENDCHAR
STARTCHAR uni30B5
ENCODING 12469
SWIDTH 1000 0
DWIDTH 14 0
BBX 11 13 1 -2
BITMAP
0200
2100
1100
1100
93E0
7D00
1100
1100
1100
0200
0200
0400
0800
ENDCHAR
STARTCHAR uni30B6
ENCODING 12470
SWIDTH 1000 0
DWIDTH 14 0
BBX 12 14 1 -2
BITMAP
0020
0290
2150
1140
1100
93E0
7D00
1100
1100
1100
0200
0200
0400
0800
ENDCHAR
STARTCHAR uni30B7
ENCODING 12471
SWIDTH 1000 0
DWIDTH 14 0
BBX 10 11 2 -1
BITMAP
6000
1000
0000
C000
2040
0080
0100
0200
0400
9800
6000
ENDCHAR
STARTCHAR uni30B8
ENCODING 12472
SWIDTH 1000 0
DWIDTH 14 0
BBX 11 12 2 -1
BITMAP
0040
6120
10A0
0080
C000
2040
0080
0100
0200
0400
9800
6000
ENDCHAR
STARTCHAR uni30B9
ENCODING 12473
SWIDTH 1000 0
DWIDTH 14 0
BBX 10 10 2 0
BITMAP
4380
3C80
0100
0100
0200
0200
0500
0880
3040
C040
ENDCHAR
STARTCHAR uni30BA
ENCODING 12474
SWIDTH 1000 0
DWIDTH 14 0
BBX 13 12 0 0
BITMAP
0010
0048
43A8
3CA0
0100
0100
0200
0200
0500
0880
3040
C040
ENDCHAR
STARTCHAR uni30BB
ENCODING 12475
SWIDTH 1000 0
DWIDTH 14 0
BBX 11 12 1 -1
BITMAP
2000
1000
1000
11E0
1620
9840
7080
1100
1000
1000
0800
07C0
ENDCHAR
STARTCHAR uni30BC
ENCODING 12476
SWIDTH 1000 0
DWIDTH 14 0
BBX 12 13 1 -1
BITMAP
0020
2090
1050
1040
11E0
1620
9840
7080
1100
1000
1000
0800
07E0
ENDCHAR
STARTCHAR uni30BD
ENCODING 12477
SWIDTH 1000 0
DWIDTH 14 0
BBX 9 13 2 -2
BITMAP
0100
8080
4080
2080
2100
2100
0200
0200
0400
0400
0800
1000
2000
ENDCHAR
STARTCHAR uni30BE
ENCODING 12478
SWIDTH 1000 0
DWIDTH 14 0
BBX 12 14 1 -2
BITMAP
0020
0290
8150
4140
2100
2100
2100
0200
0200
0400
0400
0800
1000
2000
ENDCHAR
STARTCHAR uni30BF
ENCODING 12479
SWIDTH 1000 0
DWIDTH 14 0
BBX 10 13 1 -2
BITMAP
0800
0400
07C0
0840
0880
1480
2300
4100
0200
0400
0800
3000
C000
ENDCHAR
STARTCHAR uni30C0
ENCODING 12480
SWIDTH 1000 0
DWIDTH 14 0
BBX 13 14 0 -2
BITMAP
0010
0848
0428
07E0
0840
0840
1480
2280
4100
0200
0400
0800
3000
C000
ENDCHAR
STARTCHAR uni30C1
ENCODING 12481
SWIDTH 1000 0
DWIDTH 14 0
BBX 11 13 1 -2
BITMAP
0100
0600
7800
0400
03E0
8E00
7200
0200
0200
0400
0400
0800
1000
ENDCHAR
STARTCHAR uni30C2
ENCODING 12482
SWIDTH 1000 0
DWIDTH 14 0
BBX 12 14 1 -2
BITMAP
0020
0190
0650
7840
0400
03E0
8E00
7200
0200
0200
0400
0400
0800
1000
ENDCHAR
STARTCHAR uni30C3
ENCODING 12483
SWIDTH 1000 0
DWIDTH 14 0
BBX 8 8 3 -2
BITMAP
22
91
51
42
02
04
08
10
ENDCHAR
STARTCHAR uni30C4
ENCODING 12484
SWIDTH 1000 0
DWIDTH 14 0
BBX 11 11 1 -1
BITMAP
1040
8820
4420
2440
2040
0080
0080
0100
0200
0400
0800
ENDCHAR
STARTCHAR uni30C5
ENCODING 12485
SWIDTH 1000 0
DWIDTH 14 0
BBX 13 13 0 -1
BITMAP
0010
0048
2128
10A0
8880
4880
2080
2100
0100
0200
0400
0800
1000
ENDCHAR
STARTCHAR uni30C6
ENCODING 12486
SWIDTH 1000 0
DWIDTH 14 0
BBX 11 12 2 -2
BITMAP
4780
3800
0000
01E0
8E00
7200
0200
0400
0400
0800
1000
2000
ENDCHAR
STARTCHAR uni30C7
ENCODING 12487
SWIDTH 1000 0
DWIDTH 14 0
BBX 12 14 1 -2
BITMAP
0020
0090
4750
3840
0000
83C0
7C00
0200
0200
0400
0400
0800
1000
2000
ENDCHAR
STARTCHAR uni30C8
ENCODING 12488
SWIDTH 1000 0
DWIDTH 14 0
BBX 7 13 4 -2
BITMAP
80
40
40
40
40
70
4C
42
40
40
40
40
40
ENDCHAR
STARTCHAR uni30C9
ENCODING 12489
SWIDTH 1000 0
DWIDTH 14 0
BBX 9 14 3 -2
BITMAP
0100
8480
4280
4200
4000
4000
7000
4C00
4200
4000
4000
4000
4000
4000
ENDCHAR
STARTCHAR uni30CA
ENCODING 12490
SWIDTH 1000 0
DWIDTH 14 0
BBX 11 13 1 -2
BITMAP
0400
0200
0200
83E0
7E00
0200
0200
0200
0400
0400
0800
1000
2000
ENDCHAR
STARTCHAR uni30CB
ENCODING 12491
SWIDTH 1000 0
DWIDTH 14 0
BBX 11 8 2 1
BITMAP
0380
7C00
0000
0000
0000
0000
07C0
F820
ENDCHAR
STARTCHAR uni30CC
ENCODING 12492
SWIDTH 1000 0
DWIDTH 14 0
BBX 10 11 2 -1
BITMAP
43C0
3C40
0080
0080
3900
0700
0300
0480
0840
3040
C000
ENDCHAR
STARTCHAR uni30CD
ENCODING 12493
SWIDTH 1000 0
DWIDTH 14 0
BBX 11 13 1 -2
BITMAP
0800
0400
0780
7880
0100
0200
0400
0D00
34C0
C420
0400
0400
0400
ENDCHAR
STARTCHAR uni30CE
ENCODING 12494
SWIDTH 1000 0
DWIDTH 14 0
BBX 8 13 3 -2
BITMAP
02
01
01
01
02
02
04
04
08
10
20
40
80
ENDCHAR
STARTCHAR uni30CF
ENCODING 12495
SWIDTH 1000 0
DWIDTH 14 0
BBX 12 8 1 0
BITMAP
1100
0880
0840
1020
1020
2010
4010
8010
ENDCHAR
STARTCHAR uni30D0
ENCODING 12496
SWIDTH 1000 0
DWIDTH 14 0
BBX 13 11 0 0
BITMAP
0010
0048
0028
1120
0880
0840
1020
1020
2010
4010
8010
ENDCHAR
STARTCHAR uni30D1
ENCODING 12497
SWIDTH 1000 0
DWIDTH 14 0
BBX 13 12 0 0
BITMAP
0030
0048
0048
0030
1100
0880
0840
1020
1020
2010
4010
8010
ENDCHAR
STARTCHAR uni30D2
ENCODING 12498
SWIDTH 1000 0
DWIDTH 14 0
BBX 9 11 3 -1
BITMAP
8000
4000
4000
4700
7800
4000
4000
4000
4000
2000
1F80
ENDCHAR
STARTCHAR uni30D3
ENCODING 12499
SWIDTH 1000 0
DWIDTH 14 0
BBX 10 12 2 -1
BITMAP
0080
8240
4140
4100
4000
4700
7800
4000
4000
4000
2000
1F80
ENDCHAR
STARTCHAR uni30D4
ENCODING 12500
SWIDTH 1000 0
DWIDTH 14 0
BBX 10 12 2 -1
BITMAP
0180
8240
4240
4180
4000
4700
7800
4000
4000
4000
2000
1F80
ENDCHAR
STARTCHAR uni30D5
ENCODING 12501
SWIDTH 1000 0
DWIDTH 14 0
BBX 9 11 2 -1
BITMAP
8780
7880
0080
0100
0100
0200
0200
0400
0800
1000
2000
ENDCHAR
STARTCHAR uni30D6
ENCODING 12502
SWIDTH 1000 0
DWIDTH 14 0
BBX 12 13 1 -1
BITMAP
0020
0090
8F50
7140
0100
0200
0200
0400
0400
0800
1000
2000
4000
ENDCHAR
STARTCHAR uni30D7
ENCODING 12503
SWIDTH 1000 0
DWIDTH 14 0
BBX 12 13 1 -1
BITMAP
0060
0090
8F90
7160
0100
0200
0200
0400
0400
0800
1000
2000
4000
ENDCHAR
STARTCHAR uni30D8
ENCODING 12504
SWIDTH 1000 0
DWIDTH 14 0
BBX 13 6 0 2
BITMAP
0400
0A00
9100
6080
0060
0018
ENDCHAR
STARTCHAR uni30D9
ENCODING 12505
SWIDTH 1000 0
DWIDTH 14 0
BBX 13 9 0 2
BITMAP
0040
0120
00A0
0480
0A00
9100
6080
0060
0018
ENDCHAR
STARTCHAR uni30DA
ENCODING 12506
SWIDTH 1000 0
DWIDTH 14 0
BBX 13 9 0 2
BITMAP
00C0
0120
0120
04C0
0A00
9100
6080
0060
0018
ENDCHAR
STARTCHAR uni30DB
ENCODING 12507
SWIDTH 1000 0
DWIDTH 14 0
BBX 10 13 2 -2
BITMAP
0800
0400
0400
87C0
7C00
0400
0500
2480
2440
4440
8400
0C00
0400
ENDCHAR
STARTCHAR uni30DC
ENCODING 12508
SWIDTH 1000 0
DWIDTH 14 0
BBX 12 14 1 -2
BITMAP
0020
0890
0450
0440
87C0
7C00
0400
0500
2480
2440
4440
8400
0C00
0400
ENDCHAR
STARTCHAR uni30DD
ENCODING 12509
SWIDTH 1000 0
DWIDTH 14 0
BBX 12 14 1 -2
BITMAP
0060
0890
0490
0460
87C0
7C00
0400
0500
2480
2440
4440
8400
0C00
0400
ENDCHAR
STARTCHAR uni30DE
ENCODING 12510
SWIDTH 1000 0
DWIDTH 14 0
BBX 11 9 1 0
BITMAP
83C0
7C20
0040
0080
0100
3200
0C00
0200
0100
ENDCHAR
STARTCHAR uni30DF
ENCODING 12511
SWIDTH 1000 0
DWIDTH 14 0
BBX 8 13 3 -2
BITMAP
20
18
06
01
40
30
0C
02
80
60
18
06
01
ENDCHAR
STARTCHAR uni30E0
ENCODING 12512
SWIDTH 1000 0
DWIDTH 14 0
BBX 11 11 1 0
BITMAP
0800
0400
0400
0400
0800
0800
0900
1080
10C0
A720
7820
ENDCHAR
STARTCHAR uni30E1
ENCODING 12513
SWIDTH 1000 0
DWIDTH 14 0
BBX 10 13 2 -2
BITMAP
0100
0080
0080
0080
1880
0700
0100
0280
0240
0400
0800
3000
C000
ENDCHAR
STARTCHAR uni30E2
ENCODING 12514
SWIDTH 1000 0
DWIDTH 14 0
BBX 11 10 2 0
BITMAP
4380
3C00
0800
0800
8FE0
7800
0800
0800
0800
07C0
ENDCHAR
STARTCHAR uni30E3
ENCODING 12515
SWIDTH 1000 0
DWIDTH 14 0
BBX 9 9 2 -2
BITMAP
2000
1380
1C80
F100
0A00
0800
0400
0400
0400
ENDCHAR
STARTCHAR uni30E4
ENCODING 12516
SWIDTH 1000 0
DWIDTH 14 0
BBX 11 12 1 -1
BITMAP
2000
1000
11E0
0E20
9840
6880
0500
0400
0400
0200
0200
0200
ENDCHAR
STARTCHAR uni30E5
ENCODING 12517
SWIDTH 1000 0
DWIDTH 14 0
BBX 9 6 2 0
BITMAP
0E00
7200
0200
0400
0F00
F080
ENDCHAR
STARTCHAR uni30E6
ENCODING 12518
SWIDTH 1000 0
DWIDTH 14 0
BBX 11 7 1 1
BITMAP
4700
3900
0100
0200
0200
07C0
F820
ENDCHAR
STARTCHAR uni30E7
ENCODING 12519
SWIDTH 1000 0
DWIDTH 14 0
BBX 7 8 3 -1
BITMAP
1E
E2
02
1E
E4
04
1C
E2
ENDCHAR
STARTCHAR uni30E8
ENCODING 12520
SWIDTH 1000 0
DWIDTH 14 0
BBX 9 11 2 -1
BITMAP
0F80
F080
0080
0080
0F00
7100
0100
0100
0100
0F00
7080
ENDCHAR
STARTCHAR uni30E9
ENCODING 12521
SWIDTH 1000 0
DWIDTH 14 0
BBX 10 12 2 -2
BITMAP
4700
3800
01C0
8E40
7040
0040
0080
0080
0100
0200
0C00
3000
ENDCHAR
STARTCHAR uni30EA
ENCODING 12522
SWIDTH 1000 0
DWIDTH 14 0
BBX 7 13 3 -2
BITMAP
04
82
42
42
42
42
42
42
04
04
08
10
20
ENDCHAR
STARTCHAR uni30EB
ENCODING 12523
SWIDTH 1000 0
DWIDTH 14 0
BBX 11 11 1 -1
BITMAP
0400
2200
1200
1200
1220
1220
1240
2240
2280
4300
8200
ENDCHAR
STARTCHAR uni30EC
ENCODING 12524
SWIDTH 1000 0
DWIDTH 14 0
BBX 9 12 3 -1
BITMAP
8000
4000
4000
4000
4000
4000
4080
4100
4200
4400
5800
6000
ENDCHAR
STARTCHAR uni30ED
ENCODING 12525
SWIDTH 1000 0
DWIDTH 14 0
BBX 10 9 2 0
BITMAP
87C0
7840
4040
4040
2080
2080
2780
3840
2000
ENDCHAR
STARTCHAR uni30EE
ENCODING 12526
SWIDTH 1000 0
DWIDTH 14 0
BBX 9 8 2 -2
BITMAP
8780
7880
4100
2100
2200
0200
0400
0800
ENDCHAR
STARTCHAR uni30EF
ENCODING 12527
SWIDTH 1000 0
DWIDTH 14 0
BBX 10 12 2 -2
BITMAP
87C0
7840
4040
2040
2080
2080
0100
0100
0200
0400
0800
1000
ENDCHAR
STARTCHAR uni30F0
ENCODING 12528
SWIDTH 1000 0
DWIDTH 14 0
BBX 11 13 1 -2
BITMAP
0400
0200
0200
07C0
7A00
2200
1200
17C0
FA20
0200
0200
0200
0200
ENDCHAR
STARTCHAR uni30F1
ENCODING 12529
SWIDTH 1000 0
DWIDTH 14 0
BBX 11 8 2 1
BITMAP
0780
7880
0900
0600
0400
0400
07C0
F820
ENDCHAR
STARTCHAR uni30F2
ENCODING 12530
SWIDTH 1000 0
DWIDTH 14 0
BBX 9 12 2 -2
BITMAP
0F80
F080
0080
0100
0F00
7100
0200
0200
0400
0800
3000
C000
ENDCHAR
STARTCHAR uni30F3
ENCODING 12531
SWIDTH 1000 0
DWIDTH 14 0
BBX 10 10 2 -1
BITMAP
C000
2040
1040
0080
0080
0100
0200
0400
9800
6000
ENDCHAR
STARTCHAR uni30F4
ENCODING 12532
SWIDTH 1000 0
DWIDTH 14 0
BBX 12 14 1 -2
BITMAP
0020
0890
0450
0440
87C0
7840
4040
2080
2080
0100
0100
0200
0400
0800
ENDCHAR
STARTCHAR uni30F5
ENCODING 12533
SWIDTH 1000 0
DWIDTH 14 0
BBX 8 9 3 -2
BITMAP
10
08
8F
71
11
11
21
46
82
ENDCHAR
STARTCHAR uni30F6
ENCODING 12534
SWIDTH 1000 0
DWIDTH 14 0
BBX 8 9 3 -2
BITMAP
40
20
23
3C
44
84
08
10
20
ENDCHAR
STARTCHAR uni3105
ENCODING 12549
SWIDTH 1000 0
DWIDTH 14 0
BBX 9 11 2 0
BITMAP
1000
2000
4F80
F080
0080
0080
0080
0100
0100
1A00
0C00
ENDCHAR
STARTCHAR uni3106
ENCODING 12550
SWIDTH 1000 0
DWIDTH 14 0
BBX 11 12 1 -1
BITMAP
0200
0600
0400
0BC0
14C0
0080
0900
0600
0580
08C0
3060
C020
ENDCHAR
STARTCHAR uni3107
ENCODING 12551
SWIDTH 1000 0
DWIDTH 14 0
BBX 10 10 2 1
BITMAP
00C0
FF40
4040
4040
4040
4040
4040
4040
4040
4040
ENDCHAR
STARTCHAR uni3108
ENCODING 12552
SWIDTH 1000 0
DWIDTH 14 0
BBX 10 9 2 1
BITMAP
8080
FFC0
4000
4000
4000
4000
4000
4000
3FC0
ENDCHAR
STARTCHAR uni3109
ENCODING 12553
SWIDTH 1000 0
DWIDTH 14 0
BBX 10 12 2 -1
BITMAP
1800
1000
20C0
7FC0
C840
0840
1080
3080
2080
4500
8300
0200
ENDCHAR
STARTCHAR uni310A
ENCODING 12554
SWIDTH 1000 0
DWIDTH 14 0
BBX 12 11 1 0
BITMAP
0200
0200
0200
0200
FFF0
6400
0400
0900
0880
11C0
1E40
ENDCHAR
STARTCHAR uni310B
ENCODING 12555
SWIDTH 1000 0
DWIDTH 14 0
BBX 8 11 3 0
BITMAP
06
FA
04
04
0F
01
01
02
02
24
18
ENDCHAR
STARTCHAR uni310C
ENCODING 12556
SWIDTH 1000 0
DWIDTH 14 0
BBX 9 11 3 0
BITMAP
0C00
8800
4900
FF80
9080
1100
2100
2100
4100
8200
0600
ENDCHAR
STARTCHAR uni310D
ENCODING 12557
SWIDTH 1000 0
DWIDTH 14 0
BBX 9 11 3 0
BITMAP
3180
3180
2100
4200
4200
8400
8800
8400
4200
2100
3100
ENDCHAR
STARTCHAR uni310E
ENCODING 12558
SWIDTH 1000 0
DWIDTH 14 0
BBX 12 10 1 0
BITMAP
FFF0
0400
0800
1FC0
0040
0040
0080
0080
0580
0300
ENDCHAR
STARTCHAR uni310F
ENCODING 12559
SWIDTH 1000 0
DWIDTH 14 0
BBX 12 11 1 0
BITMAP
01F0
1E00
1000
1000
1000
1000
2000
2000
4000
4000
8000
ENDCHAR
STARTCHAR uni3110
ENCODING 12560
SWIDTH 1000 0
DWIDTH 14 0
BBX 7 13 3 -1
BITMAP
04
02
02
42
42
42
46
5A
E2
02
02
02
02
ENDCHAR
STARTCHAR uni3111
ENCODING 12561
SWIDTH 1000 0
DWIDTH 14 0
BBX 8 11 3 0
BITMAP
02
07
0C
18
20
C0
60
18
04
02
01
ENDCHAR
STARTCHAR uni3112
ENCODING 12562
SWIDTH 1000 0
DWIDTH 14 0
BBX 11 11 2 -1
BITMAP
FFE0
0400
0400
0400
0400
0400
0400
0400
0400
0400
0400
ENDCHAR
STARTCHAR uni3113
ENCODING 12563
SWIDTH 1000 0
DWIDTH 14 0
BBX 11 10 1 0
BITMAP
0400
0400
2440
2440
2440
3FC0
2400
0400
FFE0
4000
ENDCHAR
STARTCHAR uni3114
ENCODING 12564
SWIDTH 1000 0
DWIDTH 14 0
BBX 7 13 4 -1
BITMAP
04
0C
18
22
C6
08
10
68
88
08
08
08
08
ENDCHAR
STARTCHAR uni3115
ENCODING 12565
SWIDTH 1000 0
DWIDTH 14 0
BBX 11 11 2 0
BITMAP
3FE0
0040
0040
2180
1E00
1000
2000
2000
2000
4000
8000
ENDCHAR
STARTCHAR uni3116
ENCODING 12566
SWIDTH 1000 0
DWIDTH 14 0
BBX 9 9 3 1
BITMAP
FF80
8100
8100
A100
9900
8900
8100
8100
FE00
ENDCHAR
STARTCHAR uni3117
ENCODING 12567
SWIDTH 1000 0
DWIDTH 14 0
BBX 10 12 2 -1
BITMAP
03C0
FC40
0840
0840
0840
08C0
0B80
0980
0800
0800
0800
0800
ENDCHAR
STARTCHAR uni3118
ENCODING 12568
SWIDTH 1000 0
DWIDTH 14 0
BBX 12 12 1 0
BITMAP
0400
0200
0200
0400
FFF0
0400
0400
0800
0FC0
0080
0100
0200
ENDCHAR
STARTCHAR uni3119
ENCODING 12569
SWIDTH 1000 0
DWIDTH 14 0
BBX 10 10 2 0
BITMAP
0C00
0C00
0800
1800
1000
2000
4100
8080
FF40
8040
ENDCHAR
STARTCHAR uni311A
ENCODING 12570
SWIDTH 1000 0
DWIDTH 14 0
BBX 10 10 1 0
BITMAP
E0C0
3180
0B00
0400
0400
0400
0400
0400
0400
0400
ENDCHAR
STARTCHAR uni311B
ENCODING 12571
SWIDTH 1000 0
DWIDTH 14 0
BBX 10 9 3 1
BITMAP
3FC0
C400
0400
0400
7C00
8000
8000
C080
3F00
ENDCHAR
STARTCHAR uni311C
ENCODING 12572
SWIDTH 1000 0
DWIDTH 14 0
BBX 11 12 2 -1
BITMAP
0400
0400
0200
0FE0
F200
0200
3E00
4000
4000
4000
2040
1F80
ENDCHAR
STARTCHAR uni311D
ENCODING 12573
SWIDTH 1000 0
DWIDTH 14 0
BBX 12 10 1 0
BITMAP
3180
1180
1100
13F0
3D00
D100
1200
1000
1000
0F80
ENDCHAR
STARTCHAR uni311E
ENCODING 12574
SWIDTH 1000 0
DWIDTH 14 0
BBX 10 11 2 0
BITMAP
FFC0
4400
6400
4400
FF80
0880
1080
1100
2100
4200
0200
ENDCHAR
STARTCHAR uni311F
ENCODING 12575
SWIDTH 1000 0
DWIDTH 14 0
BBX 10 10 2 0
BITMAP
0C00
1400
E400
0400
0400
0200
0200
0100
00C0
0040
ENDCHAR
STARTCHAR uni3120
ENCODING 12576
SWIDTH 1000 0
DWIDTH 14 0
BBX 10 12 2 -1
BITMAP
0800
0C00
0800
1080
1180
2100
7E00
8400
0900
1180
7E80
0040
ENDCHAR
STARTCHAR uni3121
ENCODING 12577
SWIDTH 1000 0
DWIDTH 14 0
BBX 12 11 1 0
BITMAP
00C0
3FC0
00C0
0080
0D00
0200
0580
08C0
1060
2030
C000
ENDCHAR
STARTCHAR uni3122
ENCODING 12578
SWIDTH 1000 0
DWIDTH 14 0
BBX 10 11 2 0
BITMAP
0300
7D80
0100
2200
4400
7FC0
80C0
0080
0100
0100
0200
ENDCHAR
STARTCHAR uni3123
ENCODING 12579
SWIDTH 1000 0
DWIDTH 14 0
BBX 10 11 2 0
BITMAP
2000
2000
2000
4000
4000
9FC0
E040
0040
0080
0080
0100
ENDCHAR
STARTCHAR uni3124
ENCODING 12580
SWIDTH 1000 0
DWIDTH 14 0
BBX 12 12 1 -1
BITMAP
0600
0200
0200
0400
0FE0
3600
0A00
0A00
1200
1200
6200
81F0
ENDCHAR
STARTCHAR uni3125
ENCODING 12581
SWIDTH 1000 0
DWIDTH 14 0
BBX 12 10 1 1
BITMAP
0400
0300
0200
0400
0400
0800
1000
3000
2000
FFF0
ENDCHAR
STARTCHAR uni3126
ENCODING 12582
SWIDTH 1000 0
DWIDTH 14 0
BBX 11 11 2 0
BITMAP
0400
2600
2600
2400
2400
2400
2400
4400
4400
8400
03E0
ENDCHAR
STARTCHAR uni3127
ENCODING 12583
SWIDTH 1000 0
DWIDTH 14 0
BBX 12 2 1 4
BITMAP
FFF0
4000
ENDCHAR
STARTCHAR uni3128
ENCODING 12584
SWIDTH 1000 0
DWIDTH 14 0
BBX 9 11 3 0
BITMAP
0100
0180
4300
2200
1400
0800
0C00
1200
2300
4180
8080
ENDCHAR
STARTCHAR uni3129
ENCODING 12585
SWIDTH 1000 0
DWIDTH 14 0
BBX 9 10 2 0
BITMAP
4180
4080
4080
4080
4080
4080
4080
8080
FF80
4080
ENDCHAR
STARTCHAR uni3220
ENCODING 12832
SWIDTH 1000 0
DWIDTH 14 0
BBX 13 13 0 -1
BITMAP
2020
4010
8008
8008
8008
8048
BFE8
8008
8008
8008
8008
4010
2020
ENDCHAR
STARTCHAR uni3221
ENCODING 12833
SWIDTH 1000 0
DWIDTH 14 0
BBX 13 13 0 -1
BITMAP
2020
4010
8088
9FC8
8008
8008
8008
8008
8048
BFE8
8008
4010
2020
ENDCHAR
STARTCHAR uni3222
ENCODING 12834
SWIDTH 1000 0
DWIDTH 14 0
BBX 13 13 0 -1
BITMAP
2020
4010
4010
9FC8
8008
8008
8F88
8008
8008
BFE8
4010
4010
2020
ENDCHAR
STARTCHAR uni3223
ENCODING 12835
SWIDTH 1000 0
DWIDTH 14 0
BBX 13 13 0 -1
BITMAP
2020
4010
BFE8
A528
A528
A528
A528
A8E8
A028
BFE8
8008
4010
2020
ENDCHAR
STARTCHAR uni3224
ENCODING 12836
SWIDTH 1000 0
DWIDTH 14 0
BBX 14 12 0 0
BITMAP
2010
4010
5FE8
8208
8208
9FC4
8444
8444
8444
8848
BFF8
4010
ENDCHAR
STARTCHAR uni3225
ENCODING 12837
SWIDTH 1000 0
DWIDTH 14 0
BBX 13 11 0 0
BITMAP
4010
8210
8208
BFE8
8008
8088
8848
9048
9028
A030
4010
ENDCHAR
STARTCHAR uni3226
ENCODING 12838
SWIDTH 1000 0
DWIDTH 14 0
BBX 13 11 0 0
BITMAP
4010
8810
8808
8828
9FC8
A808
8808
8808
8828
87D0
8010
ENDCHAR
STARTCHAR uni3227
ENCODING 12839
SWIDTH 1000 0
DWIDTH 14 0
BBX 14 13 0 -1
BITMAP
2010
4010
4388
4088
8484
8484
8484
8844
8844
9024
4038
4008
2000
ENDCHAR
STARTCHAR uni3228
ENCODING 12840
SWIDTH 1000 0
DWIDTH 14 0
BBX 13 11 0 0
BITMAP
4410
4410
8408
9F88
8488
8488
8488
8888
8888
90F8
4010
ENDCHAR
STARTCHAR uni3229
ENCODING 12841
SWIDTH 1000 0
DWIDTH 14 0
BBX 13 11 0 0
BITMAP
4210
8210
8208
8208
BFF8
8208
8208
8208
8208
8210
8210
ENDCHAR
STARTCHAR uni32A3
ENCODING 12963
SWIDTH 1000 0
DWIDTH 14 0
BBX 13 13 0 -1
BITMAP
0F80
3060
4010
7FF0
8208
8208
93C8
9208
9208
7FF0
4010
3060
0F80
ENDCHAR
STARTCHAR uni338E
ENCODING 13198
SWIDTH 1000 0
DWIDTH 14 0
BBX 12 8 1 -1
BITMAP
F9F0
AA40
AA20
A9C0
AA00
A9C0
AA20
03E0
ENDCHAR
STARTCHAR uni338F
ENCODING 13199
SWIDTH 1000 0
DWIDTH 14 0
BBX 12 12 1 -1
BITMAP
C000
4000
4000
5800
50D0
6120
6120
50C0
4900
EDE0
0210
03E0
ENDCHAR
STARTCHAR uni339C
ENCODING 13212
SWIDTH 1000 0
DWIDTH 14 0
BBX 12 7 1 1
BITMAP
D2A0
ABD0
AA90
AA90
AA90
AA90
AA90
ENDCHAR
STARTCHAR uni339D
ENCODING 13213
SWIDTH 1000 0
DWIDTH 14 0
BBX 12 8 1 0
BITMAP
32A0
4BD0
8290
8290
8290
8290
4A90
3000
ENDCHAR
STARTCHAR uni339E
ENCODING 13214
SWIDTH 1000 0
DWIDTH 14 0
BBX 12 10 1 1
BITMAP
C000
4000
4000
5AA0
5350
6250
6250
5250
4A50
EE50
ENDCHAR
STARTCHAR uni33A1
ENCODING 13217
SWIDTH 1000 0
DWIDTH 14 0
BBX 13 11 0 1
BITMAP
0010
0028
0008
0010
99B8
6640
4440
4440
4440
4440
EEE0
ENDCHAR
STARTCHAR uni33C4
ENCODING 13252
SWIDTH 1000 0
DWIDTH 14 0
BBX 11 8 1 0
BITMAP
30C0
4920
8200
8200
8200
8200
4920
30C0
ENDCHAR
STARTCHAR uni33CE
ENCODING 13262
SWIDTH 1000 0
DWIDTH 14 0
BBX 13 10 0 1
BITMAP
C718
4510
4910
51B0
6150
6150
5150
5150
4950
CF18
ENDCHAR
STARTCHAR uni33D1
ENCODING 13265
SWIDTH 1000 0
DWIDTH 14 0
BBX 11 10 2 1
BITMAP
C000
4000
4000
4580
4E40
4440
4440
4440
4440
EEE0
ENDCHAR
STARTCHAR uni33D2
ENCODING 13266
SWIDTH 1000 0
DWIDTH 14 0
BBX 13 12 0 -1
BITMAP
4000
C000
4000
4C00
5268
5290
5290
5290
5260
5290
ED08
00F0
ENDCHAR
STARTCHAR uni33D5
ENCODING 13269
SWIDTH 1000 0
DWIDTH 14 0
BBX 13 10 0 1
BITMAP
00B0
0090
0010
A890
5590
5490
5490
5490
5490
55F8
ENDCHAR
STARTCHAR uni4E00
ENCODING 19968
SWIDTH 1000 0
DWIDTH 14 0
BBX 12 2 1 5
BITMAP
0020
FFF0
ENDCHAR
STARTCHAR uni4E01
ENCODING 19969
SWIDTH 1000 0
DWIDTH 14 0
BBX 12 13 1 -1
BITMAP
0020
FFF0
0200
0200
0200
0200
0200
0200
0200
0200
1200
0E00
0400
ENDCHAR
STARTCHAR uni4E03
ENCODING 19971
SWIDTH 1000 0
DWIDTH 14 0
BBX 13 13 0 -1
BITMAP
0400
0400
0400
0430
04C0
0F00
F400
4400
0400
0410
0410
0418
03F0
ENDCHAR
STARTCHAR uni4E07
ENCODING 19975
SWIDTH 1000 0
DWIDTH 14 0
BBX 12 13 1 -1
BITMAP
0020
FFF0
0800
0800
0840
0FE0
0840
0840
1040
1040
2440
4380
8100
ENDCHAR
STARTCHAR uni4E08
ENCODING 19976
SWIDTH 1000 0
DWIDTH 14 0
BBX 13 13 0 -1
BITMAP
0100
0100
0110
FFF8
0100
0100
1100
0900
0500
0200
0500
18C0
E038
ENDCHAR
STARTCHAR uni4E09
ENCODING 19977
SWIDTH 1000 0
DWIDTH 14 0
BBX 12 12 1 0
BITMAP
0040
7FE0
0000
0000
0000
0080
3FC0
0000
0000
0000
0020
FFF0
ENDCHAR
STARTCHAR uni4E0A
ENCODING 19978
SWIDTH 1000 0
DWIDTH 14 0
BBX 12 13 1 -1
BITMAP
0400
0400
0400
0400
0440
07E0
0400
0400
0400
0400
0400
0420
FFF0
ENDCHAR
STARTCHAR uni4E0B
ENCODING 19979
SWIDTH 1000 0
DWIDTH 14 0
BBX 12 13 1 -1
BITMAP
0020
FFF0
0400
0400
0600
0580
04C0
0440
0400
0400
0400
0400
0400
ENDCHAR
STARTCHAR uni4E0C
ENCODING 19980
SWIDTH 1000 0
DWIDTH 14 0
BBX 12 13 1 -1
BITMAP
0020
FFF0
1080
1080
1080
1080
1080
1080
1080
2080
2080
4080
8080
ENDCHAR
STARTCHAR uni4E0D
ENCODING 19981
SWIDTH 1000 0
DWIDTH 14 0
BBX 12 13 1 -1
BITMAP
0020
FFF0
0200
0200
0400
0C80
1440
2420
4430
8410
0400
0400
0400
ENDCHAR
STARTCHAR uni4E0E
ENCODING 19982
SWIDTH 1000 0
DWIDTH 14 0
BBX 12 13 1 -1
BITMAP
1000
1020
1FF0
2000
2000
7FE0
0020
0220
FF20
0020
0220
01C0
0080
ENDCHAR
STARTCHAR uni4E0F
ENCODING 19983
SWIDTH 1000 0
DWIDTH 14 0
BBX 12 13 1 -1
BITMAP
0020
FFF0
0400
2440
27E0
4440
4440
FFC0
0040
0040
0440
0380
0100
ENDCHAR
STARTCHAR uni4E10
ENCODING 19984
SWIDTH 1000 0
DWIDTH 14 0
BBX 12 13 1 -1
BITMAP
0020
FFF0
0400
2440
27E0
4400
4400
FFE0
0020
0020
0220
01C0
0080
ENDCHAR
STARTCHAR uni4E11
ENCODING 19985
SWIDTH 1000 0
DWIDTH 14 0
BBX 12 13 1 -1
BITMAP
0040
7FE0
0440
0440
0440
0440
7FC0
0840
0840
0840
1040
1040
FFF0
ENDCHAR
STARTCHAR uni4E13
ENCODING 19987
SWIDTH 1000 0
DWIDTH 14 0
BBX 12 13 1 -1
BITMAP
0400
0400
7FE0
0800
0800
FFF0
1000
3FC0
0080
0900
0600
0180
0080
ENDCHAR
STARTCHAR uni4E14
ENCODING 19988
SWIDTH 1000 0
DWIDTH 14 0
BBX 13 13 0 -1
BITMAP
1040
1FE0
1040
1040
1FC0
1040
1040
1040
1FC0
1040
1040
1040
FFF8
ENDCHAR
STARTCHAR uni4E15
ENCODING 19989
SWIDTH 1000 0
DWIDTH 14 0
BBX 12 13 1 -1
BITMAP
0040
7FE0
0200
0200
0400
0D00
14C0
2460
4420
8400
0400
0020
FFF0
ENDCHAR
STARTCHAR uni4E16
ENCODING 19990
SWIDTH 1000 0
DWIDTH 14 0
BBX 13 13 0 -1
BITMAP
0440
2440
2440
2440
FFF8
2440
2440
2440
27C0
2440
2000
2010
3FF8
ENDCHAR
STARTCHAR uni4E18
ENCODING 19992
SWIDTH 1000 0
DWIDTH 14 0
BBX 13 13 0 -1
BITMAP
0040
10E0
1F00
1000
1000
1FF0
1080
1080
1080
1080
1080
1080
FFF8
ENDCHAR
STARTCHAR uni4E19
ENCODING 19993
SWIDTH 1000 0
DWIDTH 14 0
BBX 12 13 1 -1
BITMAP
0020
FFF0
0400
0420
7FF0
4420
4620
4520
48A0
50A0
6020
4020
40E0
ENDCHAR
STARTCHAR uni4E1A
ENCODING 19994
SWIDTH 1000 0
DWIDTH 14 0
BBX 12 13 1 -1
BITMAP
0900
0900
0900
0900
8920
4920
4940
2940
2980
2900
0900
0900
FFF0
ENDCHAR
STARTCHAR uni4E1B
ENCODING 19995
SWIDTH 1000 0
DWIDTH 14 0
BBX 12 13 1 -1
BITMAP
0100
1100
1100
1100
1100
1900
1500
2580
2240
4420
8810
0000
FFF0
ENDCHAR
STARTCHAR uni4E1C
ENCODING 19996
SWIDTH 1000 0
DWIDTH 14 0
BBX 12 13 1 -1
BITMAP
0800
0820
FFF0
1000
1200
2240
7FE0
0200
1280
2260
4230
8E10
0400
ENDCHAR
STARTCHAR uni4E1D
ENCODING 19997
SWIDTH 1000 0
DWIDTH 14 0
BBX 12 13 1 -1
BITMAP
1040
1040
2080
2490
4920
F3C0
1040
2080
4D30
F3C0
4100
0000
FFF0
ENDCHAR
STARTCHAR uni4E1E
ENCODING 19998
SWIDTH 1000 0
DWIDTH 14 0
BBX 12 13 1 -1
BITMAP
0040
7FE0
0080
0310
FA20
1340
1280
1240
2220
4E30
8410
0000
FFF0
ENDCHAR
STARTCHAR uni4E1F
ENCODING 19999
SWIDTH 1000 0
DWIDTH 14 0
BBX 13 13 0 -1
BITMAP
0020
7FF0
0200
0200
3FE0
0200
0200
FFF8
0600
0820
11F0
FE08
6008
ENDCHAR
STARTCHAR uni4E22
ENCODING 20002
SWIDTH 1000 0
DWIDTH 14 0
BBX 12 13 1 -1
BITMAP
0080
01C0
7E00
0400
7FC0
0400
0400
FFF0
0400
0840
13E0
FC10
4010
ENDCHAR
STARTCHAR uni4E24
ENCODING 20004
SWIDTH 1000 0
DWIDTH 14 0
BBX 13 13 0 -1
BITMAP
0010
FFF8
0880
0880
7FF0
4890
4890
4CD0
5330
6210
4410
4010
4070
ENDCHAR
STARTCHAR uni4E25
ENCODING 20005
SWIDTH 1000 0
DWIDTH 14 0
BBX 13 13 0 -1
BITMAP
0010
3FF8
1290
0AA0
0280
3FF8
2000
2000
2000
2000
2000
4000
8000
ENDCHAR
STARTCHAR uni4E26
ENCODING 20006
SWIDTH 1000 0
DWIDTH 14 0
BBX 12 13 1 -1
BITMAP
20C0
1880
0900
7FE0
0900
0900
4920
4920
2940
2940
0900
0900
FFF0
ENDCHAR
STARTCHAR uni4E27
ENCODING 20007
SWIDTH 1000 0
DWIDTH 14 0
BBX 12 13 1 -1
BITMAP
0200
0200
7FE0
2240
1280
0200
FFF0
2220
2240
2180
2480
2870
7020
ENDCHAR
STARTCHAR uni4E28
ENCODING 20008
SWIDTH 1000 0
DWIDTH 14 0
BBX 2 13 7 -1
BITMAP
80
C0
80
80
80
80
80
80
80
80
80
80
80
ENDCHAR
STARTCHAR uni4E2A
ENCODING 20010
SWIDTH 1000 0
DWIDTH 14 0
BBX 13 13 0 -1
BITMAP
0200
0200
0500
0880
3060
C218
0200
0200
0200
0200
0200
0200
0200
ENDCHAR
STARTCHAR uni4E2B
ENCODING 20011
SWIDTH 1000 0
DWIDTH 14 0
BBX 10 13 2 -1
BITMAP
80C0
4080
3100
1200
0400
0800
0800
0800
0800
0800
0800
0800
0800
ENDCHAR
STARTCHAR uni4E2C
ENCODING 20012
SWIDTH 1000 0
DWIDTH 14 0
BBX 6 13 2 -1
BITMAP
04
04
24
14
14
04
0C
14
E4
44
04
04
04
ENDCHAR
STARTCHAR uni4E2D
ENCODING 20013
SWIDTH 1000 0
DWIDTH 14 0
BBX 12 13 1 -1
BITMAP
0400
0400
8420
FFF0
8420
8420
8420
FFE0
8420
0400
0400
0400
0400
ENDCHAR
STARTCHAR uni4E2E
ENCODING 20014
SWIDTH 1000 0
DWIDTH 14 0
BBX 12 13 1 -1
BITMAP
0040
FFE0
0840
0840
7F40
0840
0840
FF40
0850
1050
2050
4030
8010
ENDCHAR
STARTCHAR uni4E30
ENCODING 20016
SWIDTH 1000 0
DWIDTH 14 0
BBX 12 13 1 -1
BITMAP
0400
0440
7FE0
0400
0480
3FC0
0400
0420
FFF0
0400
0400
0400
0400
ENDCHAR
STARTCHAR uni4E31
ENCODING 20017
SWIDTH 1000 0
DWIDTH 14 0
BBX 11 13 1 -1
BITMAP
0900
0900
4920
4920
4920
4920
4920
79E0
0920
0900
1100
2100
C100
ENDCHAR
STARTCHAR uni4E32
ENCODING 20018
SWIDTH 1000 0
DWIDTH 14 0
BBX 12 13 1 -1
BITMAP
0400
4440
7FE0
4440
7FC0
0400
8420
FFF0
8420
FFE0
8420
0400
0400
ENDCHAR
STARTCHAR uni4E33
ENCODING 20019
SWIDTH 1000 0
DWIDTH 14 0
BBX 12 13 1 -1
BITMAP
0900
4940
7FE0
4940
7FC0
0900
8920
FFF0
8920
FFE0
9120
2100
C100
ENDCHAR
STARTCHAR uni4E34
ENCODING 20020
SWIDTH 1000 0
DWIDTH 14 0
BBX 13 13 0 -1
BITMAP
1100
1110
11F8
9200
9480
9040
93F8
9248
9248
9248
1248
13F8
1208
ENDCHAR
STARTCHAR uni4E36
ENCODING 20022
SWIDTH 1000 0
DWIDTH 14 0
BBX 4 5 5 3
BITMAP
80
40
20
30
10
ENDCHAR
STARTCHAR uni4E38
ENCODING 20024
SWIDTH 1000 0
DWIDTH 14 0
BBX 13 13 0 -1
BITMAP
0800
0800
0880
FFC0
0880
0880
2880
1880
0C80
1690
2290
4098
8070
ENDCHAR
STARTCHAR uni4E39
ENCODING 20025
SWIDTH 1000 0
DWIDTH 14 0
BBX 12 13 1 -1
BITMAP
1040
1FE0
1040
1440
1240
1240
FFF0
1040
1040
1040
2240
41C0
8080
ENDCHAR
STARTCHAR uni4E3A
ENCODING 20026
SWIDTH 1000 0
DWIDTH 14 0
BBX 12 13 1 -1
BITMAP
0400
2600
1400
0420
FFF0
0420
0420
0520
08A0
0820
1120
20E0
C040
ENDCHAR
STARTCHAR uni4E3B
ENCODING 20027
SWIDTH 1000 0
DWIDTH 14 0
BBX 13 13 0 -1
BITMAP
0400
0200
0220
7FF0
0200
0200
0240
3FE0
0200
0200
0200
0210
FFF8
ENDCHAR
STARTCHAR uni4E3C
ENCODING 20028
SWIDTH 1000 0
DWIDTH 14 0
BBX 12 13 1 -1
BITMAP
1080
1080
1080
7FE0
1480
1280
1280
FFF0
1080
1080
2080
4080
8080
ENDCHAR
STARTCHAR uni4E3D
ENCODING 20029
SWIDTH 1000 0
DWIDTH 14 0
BBX 13 13 0 -1
BITMAP
0010
FFF8
0000
7DF0
4510
4510
6590
5550
5550
4510
4510
5D70
4920
ENDCHAR
STARTCHAR uni4E3E
ENCODING 20030
SWIDTH 1000 0
DWIDTH 14 0
BBX 13 13 0 -1
BITMAP
0420
2220
1240
1080
7FF8
1040
2220
DFD8
0200
7FF0
0200
0200
0200
ENDCHAR
STARTCHAR uni4E3F
ENCODING 20031
SWIDTH 1000 0
DWIDTH 14 0
BBX 5 13 1 -1
BITMAP
08
08
08
08
08
08
08
08
10
10
20
40
80
ENDCHAR
STARTCHAR uni4E42
ENCODING 20034
SWIDTH 1000 0
DWIDTH 14 0
BBX 12 12 1 -1
BITMAP
2080
2080
2080
2080
1080
1100
0900
0600
0600
0900
30C0
C030
ENDCHAR
STARTCHAR uni4E43
ENCODING 20035
SWIDTH 1000 0
DWIDTH 14 0
BBX 12 13 1 -1
BITMAP
0080
7FC0
0880
0880
0900
09F0
0810
0810
1010
1010
2110
40E0
8040
ENDCHAR
STARTCHAR uni4E45
ENCODING 20037
SWIDTH 1000 0
DWIDTH 14 0
BBX 12 13 1 -1
BITMAP
0800
0800
0900
0F80
1100
2100
4200
0200
0500
0880
1060
2030
C010
ENDCHAR
STARTCHAR uni4E47
ENCODING 20039
SWIDTH 1000 0
DWIDTH 14 0
BBX 13 13 0 -1
BITMAP
0080
01C0
7E00
0400
0400
0470
0780
FC00
0400
0410
0410
0418
03F0
ENDCHAR
STARTCHAR uni4E48
ENCODING 20040
SWIDTH 1000 0
DWIDTH 14 0
BBX 12 13 1 -1
BITMAP
0800
0800
0800
1100
1100
2200
4200
8400
0440
0820
11F0
7E10
2010
ENDCHAR
STARTCHAR uni4E49
ENCODING 20041
SWIDTH 1000 0
DWIDTH 14 0
BBX 12 13 1 -1
BITMAP
0800
4440
4640
2240
2080
1080
1100
0900
0600
0600
0900
30C0
C030
ENDCHAR
STARTCHAR uni4E4B
ENCODING 20043
SWIDTH 1000 0
DWIDTH 14 0
BBX 12 13 1 -1
BITMAP
0800
0400
0480
FFC0
0080
0100
0200
0400
0800
1000
2000
D830
87C0
ENDCHAR
STARTCHAR uni4E4C
ENCODING 20044
SWIDTH 1000 0
DWIDTH 14 0
BBX 12 13 1 -1
BITMAP
0C00
0880
3FC0
2080
2480
2300
2000
3FF0
0010
FF90
0010
00E0
0040
ENDCHAR
STARTCHAR uni4E4D
ENCODING 20045
SWIDTH 1000 0
DWIDTH 14 0
BBX 13 13 0 -1
BITMAP
0800
0810
0FF8
1200
2200
4220
83F0
0200
0210
03F8
0200
0200
0200
ENDCHAR
STARTCHAR uni4E4E
ENCODING 20046
SWIDTH 1000 0
DWIDTH 14 0
BBX 12 13 1 -1
BITMAP
0080
01C0
7E00
2220
1240
1280
0200
FFF0
0200
0200
1200
0E00
0400
ENDCHAR
STARTCHAR uni4E4F
ENCODING 20047
SWIDTH 1000 0
DWIDTH 14 0
BBX 12 13 1 -1
BITMAP
0080
01C0
7E00
0400
0200
7FC0
0080
0300
0400
1800
3000
CC30
83C0
ENDCHAR
STARTCHAR uni4E50
ENCODING 20048
SWIDTH 1000 0
DWIDTH 14 0
BBX 13 13 0 -1
BITMAP
0040
10E0
1F00
1000
2100
2110
7FF8
0100
0940
1120
2910
4718
8208
ENDCHAR
STARTCHAR uni4E52
ENCODING 20050
SWIDTH 1000 0
DWIDTH 14 0
BBX 13 13 0 -1
BITMAP
0040
10E0
1F00
1000
1FF0
1080
1080
1080
FFF8
0000
0C00
3000
C000
ENDCHAR
STARTCHAR uni4E53
ENCODING 20051
SWIDTH 1000 0
DWIDTH 14 0
BBX 13 13 0 -1
BITMAP
0040
10E0
1F00
1000
1FF0
1080
1080
1080
FFF8
0000
0180
0060
0018
ENDCHAR
STARTCHAR uni4E54
ENCODING 20052
SWIDTH 1000 0
DWIDTH 14 0
BBX 12 13 1 -1
BITMAP
01C0
7E00
0420
FFF0
0900
1080
2040
D0B0
1080
1080
1080
2080
C080
ENDCHAR
STARTCHAR uni4E56
ENCODING 20054
SWIDTH 1000 0
DWIDTH 14 0
BBX 13 13 0 -1
BITMAP
00E0
3F00
0210
FFF8
0200
1248
7250
1260
1240
F248
1238
0200
0200
ENDCHAR
STARTCHAR uni4E58
ENCODING 20056
SWIDTH 1000 0
DWIDTH 14 0
BBX 13 13 0 -1
BITMAP
00E0
3F00
0200
FFF8
1248
F250
1260
3248
D738
0A80
1240
2238
C210
ENDCHAR
STARTCHAR uni4E59
ENCODING 20057
SWIDTH 1000 0
DWIDTH 14 0
BBX 12 12 1 0
BITMAP
0100
7F80
0100
0200
0400
0800
1000
2000
4020
8020
8030
7FE0
ENDCHAR
STARTCHAR uni4E5C
ENCODING 20060
SWIDTH 1000 0
DWIDTH 14 0
BBX 13 13 0 -1
BITMAP
2000
2000
2040
20E0
2740
3840
E040
2040
2240
2190
2010
2018
1FF0
ENDCHAR
STARTCHAR uni4E5D
ENCODING 20061
SWIDTH 1000 0
DWIDTH 14 0
BBX 13 13 0 -1
BITMAP
0800
0800
0880
FFC0
0880
0880
0880
0880
1080
1090
2090
4098
8070
ENDCHAR
STARTCHAR uni4E5E
ENCODING 20062
SWIDTH 1000 0
DWIDTH 14 0
BBX 13 13 0 -1
BITMAP
1000
1020
1FF0
2000
4000
BF00
0200
0400
0800
1010
2010
2018
1FF0
ENDCHAR
STARTCHAR uni4E5F
ENCODING 20063
SWIDTH 1000 0
DWIDTH 14 0
BBX 13 13 0 -1
BITMAP
0200
0200
2220
22F0
2720
3A20
E220
2220
22C0
2210
2010
2018
1FF0
ENDCHAR
STARTCHAR uni4E60
ENCODING 20064
SWIDTH 1000 0
DWIDTH 14 0
BBX 11 13 2 -1
BITMAP
0040
FFE0
0040
2040
1040
1040
0040
0640
1840
E040
4440
0380
0100
ENDCHAR
STARTCHAR uni4E61
ENCODING 20065
SWIDTH 1000 0
DWIDTH 14 0
BBX 11 13 1 -1
BITMAP
0C00
0800
1180
2100
7E00
0460
0840
1380
7D00
0200
0400
1800
E000
ENDCHAR
STARTCHAR uni4E66
ENCODING 20070
SWIDTH 1000 0
DWIDTH 14 0
BBX 12 13 1 -1
BITMAP
0440
0430
0410
7FC0
0440
0440
FFF0
0410
0410
0490
0460
0400
0400
ENDCHAR
STARTCHAR uni4E69
ENCODING 20073
SWIDTH 1000 0
DWIDTH 14 0
BBX 13 13 0 -1
BITMAP
2100
2100
2500
3F00
2100
2100
FD00
8500
8500
8510
8510
FD18
84F0
ENDCHAR
STARTCHAR uni4E70
ENCODING 20080
SWIDTH 1000 0
DWIDTH 14 0
BBX 12 13 1 -1
BITMAP
0020
FFF0
1020
0A40
4A00
2200
2220
FFF0
0200
0500
08C0
3060
C020
ENDCHAR
STARTCHAR uni4E71
ENCODING 20081
SWIDTH 1000 0
DWIDTH 14 0
BBX 13 13 0 -1
BITMAP
0D00
F100
1100
1100
FF00
1100
1100
FD00
8500
8510
8510
FD18
84F0
ENDCHAR
STARTCHAR uni4E73
ENCODING 20083
SWIDTH 1000 0
DWIDTH 14 0
BBX 13 13 0 -1
BITMAP
0C80
F080
2280
9480
4880
FC80
0880
1080
3C80
D090
1090
F098
2070
ENDCHAR
STARTCHAR uni4E7E
ENCODING 20094
SWIDTH 1000 0
DWIDTH 14 0
BBX 13 13 0 -1
BITMAP
1080
1080
FEF8
1100
7E00
45F0
7C10
4420
7C40
1048
FE88
1088
1078
ENDCHAR
STARTCHAR uni4E7F
ENCODING 20095
SWIDTH 1000 0
DWIDTH 14 0
BBX 13 13 0 -1
BITMAP
0640
F940
4940
2A40
1040
2440
7840
1240
FD40
2A48
2A48
4948
9938
ENDCHAR
STARTCHAR uni4E82
ENCODING 20098
SWIDTH 1000 0
DWIDTH 14 0
BBX 13 13 0 -1
BITMAP
0740
F940
2A40
7F40
1440
7F40
5540
7B40
4140
7D48
5548
4948
7738
ENDCHAR
STARTCHAR uni4E83
ENCODING 20099
SWIDTH 1000 0
DWIDTH 14 0
BBX 13 13 0 -1
BITMAP
0840
4940
2A40
FFC0
2A40
C9C0
2240
3FC0
5640
BA48
1FC8
2248
C238
ENDCHAR
STARTCHAR uni4E84
ENCODING 20100
SWIDTH 1000 0
DWIDTH 14 0
BBX 13 13 0 -1
BITMAP
0840
7F40
0840
3E40
0040
7FC0
8140
7F40
2240
3E48
2248
1448
FF38
ENDCHAR
STARTCHAR uni4E85
ENCODING 20101
SWIDTH 1000 0
DWIDTH 14 0
BBX 4 13 5 -1
BITMAP
10
10
10
10
10
10
10
10
10
10
90
70
20
ENDCHAR
STARTCHAR uni4E86
ENCODING 20102
SWIDTH 1000 0
DWIDTH 14 0
BBX 11 13 1 -1
BITMAP
0040
FFE0
0080
0100
0600
0400
0400
0400
0400
0400
2400
1C00
0800
ENDCHAR
STARTCHAR uni4E88
ENCODING 20104
SWIDTH 1000 0
DWIDTH 14 0
BBX 12 13 1 -1
BITMAP
0040
7FE0
0080
0D00
0220
FFF0
0220
0240
0200
0200
1200
0E00
0400
ENDCHAR
STARTCHAR uni4E89
ENCODING 20105
SWIDTH 1000 0
DWIDTH 14 0
BBX 12 13 1 -1
BITMAP
1000
1F00
2200
4400
FFC0
0440
FFF0
0440
7FC0
0440
2400
1C00
0800
ENDCHAR
STARTCHAR uni4E8B
ENCODING 20107
SWIDTH 1000 0
DWIDTH 14 0
BBX 13 13 0 -1
BITMAP
0200
FFF8
1220
1FE0
0200
3FE0
0220
7FF8
0220
3FE0
0220
1E00
0400
ENDCHAR
STARTCHAR uni4E8C
ENCODING 20108
SWIDTH 1000 0
DWIDTH 14 0
BBX 12 11 1 0
BITMAP
0040
7FE0
0000
0000
0000
0000
0000
0000
0000
0020
FFF0
ENDCHAR
STARTCHAR uni4E8D
ENCODING 20109
SWIDTH 1000 0
DWIDTH 14 0
BBX 12 13 1 -1
BITMAP
0040
7FE0
0000
0000
0020
FFF0
0200
0200
0200
0200
1200
0E00
0400
ENDCHAR
STARTCHAR uni4E8E
ENCODING 20110
SWIDTH 1000 0
DWIDTH 14 0
BBX 13 13 0 -1
BITMAP
0020
3FF0
0200
0200
0210
FFF8
0200
0200
0200
0200
1200
0E00
0400
ENDCHAR
STARTCHAR uni4E8F
ENCODING 20111
SWIDTH 1000 0
DWIDTH 14 0
BBX 12 13 1 -1
BITMAP
0080
3FC0
0000
0020
FFF0
0800
1000
3FC0
0040
0040
0440
0380
0100
ENDCHAR
STARTCHAR uni4E91
ENCODING 20113
SWIDTH 1000 0
DWIDTH 14 0
BBX 12 13 1 -1
BITMAP
0080
3FC0
0000
0000
0020
FFF0
0400
0400
0880
1040
21E0
FE20
4020
ENDCHAR
STARTCHAR uni4E92
ENCODING 20114
SWIDTH 1000 0
DWIDTH 14 0
BBX 12 13 1 -1
BITMAP
0020
FFF0
1000
1080
1FC0
1080
2080
2080
7F00
0100
0100
0120
FFF0
ENDCHAR
STARTCHAR uni4E93
ENCODING 20115
SWIDTH 1000 0
DWIDTH 14 0
BBX 12 13 1 -1
BITMAP
0040
7FE0
0000
0020
FFF0
1080
1080
1080
1080
1080
2080
4080
8080
ENDCHAR
STARTCHAR uni4E94
ENCODING 20116
SWIDTH 1000 0
DWIDTH 14 0
BBX 12 13 1 -1
BITMAP
0040
7FE0
0400
0400
0800
0880
7FC0
0880
0880
0880
1080
1080
FFF0
ENDCHAR
STARTCHAR uni4E95
ENCODING 20117
SWIDTH 1000 0
DWIDTH 14 0
BBX 13 13 0 -1
BITMAP
0880
0880
0880
7FF0
0880
0880
0880
FFF8
0880
0880
1080
2080
4080
ENDCHAR
STARTCHAR uni4E98
ENCODING 20120
SWIDTH 1000 0
DWIDTH 14 0
BBX 12 13 1 -1
BITMAP
0020
FFF0
0000
3FC0
2040
2040
3FC0
2040
2040
3FC0
2040
0020
FFF0
ENDCHAR
STARTCHAR uni4E99
ENCODING 20121
SWIDTH 1000 0
DWIDTH 14 0
BBX 12 13 1 -1
BITMAP
0020
FFF0
1000
1080
1FC0
1080
2480
2280
4900
4500
0200
0220
FFF0
ENDCHAR
STARTCHAR uni4E9A
ENCODING 20122
SWIDTH 1000 0
DWIDTH 14 0
BBX 12 12 1 0
BITMAP
0020
FFF0
0900
0900
0900
4920
4920
2940
2940
0900
0900
FFF0
ENDCHAR
STARTCHAR uni4E9B
ENCODING 20123
SWIDTH 1000 0
DWIDTH 14 0
BBX 13 13 0 -1
BITMAP
0880
0880
2890
2EA0
28C8
2888
2E88
F078
4000
1FE0
0000
0010
7FF8
ENDCHAR
STARTCHAR uni4E9E
ENCODING 20126
SWIDTH 1000 0
DWIDTH 14 0
BBX 12 13 1 -1
BITMAP
0020
FFF0
0900
0900
79E0
4020
4020
4020
79E0
4920
0900
0900
FFF0
ENDCHAR
STARTCHAR uni4E9F
ENCODING 20127
SWIDTH 1000 0
DWIDTH 14 0
BBX 12 13 1 -1
BITMAP
0040
FFE0
0800
1E00
03E0
F220
9320
92A0
F240
92A0
0F20
0400
FFF0
ENDCHAR
STARTCHAR uni4EA0
ENCODING 20128
SWIDTH 1000 0
DWIDTH 14 0
BBX 12 4 1 5
BITMAP
0800
0600
0220
FFF0
ENDCHAR
STARTCHAR uni4EA1
ENCODING 20129
SWIDTH 1000 0
DWIDTH 14 0
BBX 12 13 1 -1
BITMAP
0400
0200
0220
FFF0
2000
2000
2000
2000
2000
2000
2020
3FF0
2000
ENDCHAR
STARTCHAR uni4EA2
ENCODING 20130
SWIDTH 1000 0
DWIDTH 14 0
BBX 13 13 0 -1
BITMAP
0600
0220
FFF0
0000
0000
1F00
1100
1100
1100
1110
2110
4118
80F0
ENDCHAR
STARTCHAR uni4EA4
ENCODING 20132
SWIDTH 1000 0
DWIDTH 14 0
BBX 12 13 1 -1
BITMAP
0600
0220
FFF0
1080
1040
2120
D120
1200
0A00
0400
0A00
3180
C070
ENDCHAR
STARTCHAR uni4EA5
ENCODING 20133
SWIDTH 1000 0
DWIDTH 14 0
BBX 12 13 1 -1
BITMAP
0600
0220
FFF0
0800
1080
2100
7E20
0440
1880
E100
0680
1860
E020
ENDCHAR
STARTCHAR uni4EA6
ENCODING 20134
SWIDTH 1000 0
DWIDTH 14 0
BBX 12 13 1 -1
BITMAP
0400
0200
0220
FFF0
0900
2900
2940
4920
8930
1110
1900
2700
C200
ENDCHAR
STARTCHAR uni4EA7
ENCODING 20135
SWIDTH 1000 0
DWIDTH 14 0
BBX 13 13 0 -1
BITMAP
0300
0110
3FF8
0840
0480
3FF8
2000
2000
2000
2000
2000
4000
8000
ENDCHAR
STARTCHAR uni4EA8
ENCODING 20136
SWIDTH 1000 0
DWIDTH 14 0
BBX 12 13 1 -1
BITMAP
0400
FFF0
0000
3FC0
2040
3FC0
0000
7FE0
0100
0200
0200
1E00
0400
ENDCHAR
STARTCHAR uni4EA9
ENCODING 20137
SWIDTH 1000 0
DWIDTH 14 0
BBX 13 13 0 -1
BITMAP
0600
0210
FFF8
0000
2020
3FF0
2220
2220
3FE0
2220
2220
3FE0
2020
ENDCHAR
STARTCHAR uni4EAB
ENCODING 20139
SWIDTH 1000 0
DWIDTH 14 0
BBX 12 13 1 -1
BITMAP
0400
FFF0
0000
3FC0
2040
3FC0
0000
7FE0
0100
FFF0
0200
1E00
0400
ENDCHAR
STARTCHAR uni4EAC
ENCODING 20140
SWIDTH 1000 0
DWIDTH 14 0
BBX 13 13 0 -1
BITMAP
0300
0110
7FF8
0000
1FE0
1020
1020
1FE0
0100
0940
1120
2718
C208
ENDCHAR
STARTCHAR uni4EAD
ENCODING 20141
SWIDTH 1000 0
DWIDTH 14 0
BBX 12 13 1 -1
BITMAP
0C00
0420
FFF0
0000
3F80
2080
FFF0
8020
7FC0
0200
1200
0E00
0400
ENDCHAR
STARTCHAR uni4EAE
ENCODING 20142
SWIDTH 1000 0
DWIDTH 14 0
BBX 12 13 1 -1
BITMAP
0600
0220
FFF0
0000
1F80
1080
7FF0
4020
9F40
1110
1110
2110
C0F0
ENDCHAR
STARTCHAR uni4EB2
ENCODING 20146
SWIDTH 1000 0
DWIDTH 14 0
BBX 13 13 0 -1
BITMAP
0600
0200
7FF0
1040
0880
FFF8
0200
3FE0
0200
0A80
1240
2E38
C410
ENDCHAR
STARTCHAR uni4EB3
ENCODING 20147
SWIDTH 1000 0
DWIDTH 14 0
BBX 13 13 0 -1
BITMAP
0300
0110
7FF8
0000
0FE0
0820
7FF8
4048
BF90
0260
7F88
0208
01F8
ENDCHAR
STARTCHAR uni4EB5
ENCODING 20149
SWIDTH 1000 0
DWIDTH 14 0
BBX 12 13 1 -1
BITMAP
0420
FFF0
2080
FBC0
2140
3B50
E2D0
2E30
E620
0940
F080
1670
3820
ENDCHAR
STARTCHAR uni4EB6
ENCODING 20150
SWIDTH 1000 0
DWIDTH 14 0
BBX 12 13 1 -1
BITMAP
0600
0200
FFF0
28A0
2FA0
2020
3FE0
1040
1FC0
1040
1FC0
0000
FFF0
ENDCHAR
STARTCHAR uni4EB9
ENCODING 20153
SWIDTH 1000 0
DWIDTH 14 0
BBX 13 13 0 -1
BITMAP
0210
FFF8
4890
7FB0
4890
7FB0
4A90
FFF8
8848
8F48
0BC0
0840
7FF8
ENDCHAR
STARTCHAR uni4EBA
ENCODING 20154
SWIDTH 1000 0
DWIDTH 14 0
BBX 13 13 0 -1
BITMAP
0200
0200
0200
0200
0200
0200
0200
0500
0480
0840
1030
2018
C008
ENDCHAR
STARTCHAR uni4EBB
ENCODING 20155
SWIDTH 1000 0
DWIDTH 14 0
BBX 4 13 4 -1
BITMAP
10
10
20
20
20
60
A0
20
20
20
20
20
20
ENDCHAR
STARTCHAR uni4EBF
ENCODING 20159
SWIDTH 1000 0
DWIDTH 14 0
BBX 13 13 0 -1
BITMAP
1000
1020
17F0
2020
2040
6080
A100
2100
2200
2208
2408
2408
23F8
ENDCHAR
STARTCHAR uni4EC0
ENCODING 20160
SWIDTH 1000 0
DWIDTH 14 0
BBX 13 13 0 -1
BITMAP
1080
1080
1080
2080
2080
6FF8
A080
2080
2080
2080
2080
2080
2080
ENDCHAR
STARTCHAR uni4EC1
ENCODING 20161
SWIDTH 1000 0
DWIDTH 14 0
BBX 13 13 0 -1
BITMAP
1000
1000
1020
27F0
2000
6000
A000
2000
2000
2000
2010
2FF8
2000
ENDCHAR
STARTCHAR uni4EC2
ENCODING 20162
SWIDTH 1000 0
DWIDTH 14 0
BBX 13 13 0 -1
BITMAP
1080
1080
1080
2080
27F8
6088
A088
2088
2108
2108
2288
2470
2820
ENDCHAR
STARTCHAR uni4EC3
ENCODING 20163
SWIDTH 1000 0
DWIDTH 14 0
BBX 13 13 0 -1
BITMAP
1000
1010
17F8
2040
2040
6040
A040
2040
2040
2040
2240
21C0
2080
ENDCHAR
STARTCHAR uni4EC4
ENCODING 20164
SWIDTH 1000 0
DWIDTH 14 0
BBX 13 13 0 -1
BITMAP
2010
3FF8
2000
2100
2100
2100
2100
2100
2280
2240
4420
4810
B008
ENDCHAR
STARTCHAR uni4EC5
ENCODING 20165
SWIDTH 1000 0
DWIDTH 14 0
BBX 13 13 0 -1
BITMAP
1010
17F8
1210
2210
2210
6120
A120
2120
20C0
20C0
2120
2210
2C08
ENDCHAR
STARTCHAR uni4EC6
ENCODING 20166
SWIDTH 1000 0
DWIDTH 14 0
BBX 13 13 0 -1
BITMAP
1080
1080
1080
2080
20C0
60A0
A098
2088
2080
2080
2080
2080
2080
ENDCHAR
STARTCHAR uni4EC7
ENCODING 20167
SWIDTH 1000 0
DWIDTH 14 0
BBX 13 13 0 -1
BITMAP
1200
1200
1200
2240
2FE0
6240
A240
2240
2240
2448
2448
2848
3038
ENDCHAR
STARTCHAR uni4EC8
ENCODING 20168
SWIDTH 1000 0
DWIDTH 14 0
BBX 13 13 0 -1
BITMAP
1040
1040
1240
2240
2240
6240
A220
2220
2420
2410
2810
2808
3008
ENDCHAR
STARTCHAR uni4EC9
ENCODING 20169
SWIDTH 1000 0
DWIDTH 14 0
BBX 13 13 0 -1
BITMAP
1240
13E0
1240
2240
2240
6240
A240
2240
2240
2448
2448
2848
3038
ENDCHAR
STARTCHAR uni4ECA
ENCODING 20170
SWIDTH 1000 0
DWIDTH 14 0
BBX 13 13 0 -1
BITMAP
0200
0300
0480
0840
3238
C110
0100
3FE0
0040
0040
0080
0080
0100
ENDCHAR
STARTCHAR uni4ECB
ENCODING 20171
SWIDTH 1000 0
DWIDTH 14 0
BBX 13 13 0 -1
BITMAP
0200
0300
0480
0840
3038
C850
0840
0840
0840
0840
1040
2040
4040
ENDCHAR
STARTCHAR uni4ECD
ENCODING 20173
SWIDTH 1000 0
DWIDTH 14 0
BBX 13 13 0 -1
BITMAP
1010
17F8
1110
2120
2120
6178
A108
2108
2108
2208
2288
2470
2820
ENDCHAR
STARTCHAR uni4ECE
ENCODING 20174
SWIDTH 1000 0
DWIDTH 14 0
BBX 13 13 0 -1
BITMAP
0080
0880
0880
0880
0880
0880
0C80
0A80
1280
1140
2230
4418
8808
ENDCHAR
STARTCHAR uni4ED1
ENCODING 20177
SWIDTH 1000 0
DWIDTH 14 0
BBX 13 13 0 -1
BITMAP
0100
0300
0480
0840
3038
C810
0840
0980
0E00
0810
0810
0818
07F0
ENDCHAR
STARTCHAR uni4ED3
ENCODING 20179
SWIDTH 1000 0
DWIDTH 14 0
BBX 13 13 0 -1
BITMAP
0100
0300
0480
0840
3038
CFD0
0840
0840
0BC0
0890
0810
0818
07F0
ENDCHAR
STARTCHAR uni4ED4
ENCODING 20180
SWIDTH 1000 0
DWIDTH 14 0
BBX 13 13 0 -1
BITMAP
1020
17F0
1020
2040
2080
6090
AFF8
2080
2080
2080
2480
2380
2100
ENDCHAR
STARTCHAR uni4ED5
ENCODING 20181
SWIDTH 1000 0
DWIDTH 14 0
BBX 13 13 0 -1
BITMAP
1080
1080
1080
2080
2090
6FF8
A080
2080
2080
2080
2080
27F0
2000
ENDCHAR
STARTCHAR uni4ED6
ENCODING 20182
SWIDTH 1000 0
DWIDTH 14 0
BBX 13 13 0 -1
BITMAP
1080
1080
1490
24B8
25D0
6690
BC90
2490
24A0
2488
2408
2408
23F8
ENDCHAR
STARTCHAR uni4ED7
ENCODING 20183
SWIDTH 1000 0
DWIDTH 14 0
BBX 13 13 0 -1
BITMAP
1040
1040
1040
2FF8
2040
6240
A240
2140
2140
2080
2140
2238
2C10
ENDCHAR
STARTCHAR uni4ED8
ENCODING 20184
SWIDTH 1000 0
DWIDTH 14 0
BBX 13 13 0 -1
BITMAP
1020
1020
1020
27F8
2020
6020
A220
2120
2120
2020
2120
20E0
2040
ENDCHAR
STARTCHAR uni4ED9
ENCODING 20185
SWIDTH 1000 0
DWIDTH 14 0
BBX 13 13 0 -1
BITMAP
1080
1080
1080
2488
2488
6488
A488
2488
2488
2488
2488
27F8
2408
ENDCHAR
STARTCHAR uni4EDA
ENCODING 20186
SWIDTH 1000 0
DWIDTH 14 0
BBX 13 13 0 -1
BITMAP
0200
0300
0480
0840
3038
C210
0200
2220
2220
2220
2220
3FE0
2020
ENDCHAR
STARTCHAR uni4EDC
ENCODING 20188
SWIDTH 1000 0
DWIDTH 14 0
BBX 13 13 0 -1
BITMAP
1000
1020
17F0
2080
2080
6080
A080
2080
2080
2080
2090
2FF8
2000
ENDCHAR
STARTCHAR uni4EDD
ENCODING 20189
SWIDTH 1000 0
DWIDTH 14 0
BBX 13 13 0 -1
BITMAP
0200
0300
0480
0840
3038
C010
1FE0
0200
0200
0200
0200
0210
7FF8
ENDCHAR
STARTCHAR uni4EDE
ENCODING 20190
SWIDTH 1000 0
DWIDTH 14 0
BBX 13 13 0 -1
BITMAP
1000
17F8
1088
2088
2288
6288
A288
2488
2088
2108
2108
2270
2C20
ENDCHAR
STARTCHAR uni4EDF
ENCODING 20191
SWIDTH 1000 0
DWIDTH 14 0
BBX 13 13 0 -1
BITMAP
1020
1070
1780
2080
2080
6090
AFF8
2080
2080
2080
2080
2080
2080
ENDCHAR
STARTCHAR uni4EE1
ENCODING 20193
SWIDTH 1000 0
DWIDTH 14 0
BBX 13 13 0 -1
BITMAP
1100
1100
1210
23F8
2400
6BE0
A040
2080
2100
2208
2408
2408
23F8
ENDCHAR
STARTCHAR uni4EE3
ENCODING 20195
SWIDTH 1000 0
DWIDTH 14 0
BBX 13 13 0 -1
BITMAP
1120
1110
1110
2100
21F8
6F00
A100
2100
2080
2088
2048
2028
2018
ENDCHAR
STARTCHAR uni4EE4
ENCODING 20196
SWIDTH 1000 0
DWIDTH 14 0
BBX 13 13 0 -1
BITMAP
0200
0300
0480
0840
3238
C110
0000
1FE0
0040
0080
0D00
0300
00C0
ENDCHAR
STARTCHAR uni4EE5
ENCODING 20197
SWIDTH 1000 0
DWIDTH 14 0
BBX 12 13 1 -1
BITMAP
0040
4840
4440
4640
4240
4040
4040
4040
4680
58C0
E120
4630
1810
ENDCHAR
STARTCHAR uni4EE8
ENCODING 20200
SWIDTH 1000 0
DWIDTH 14 0
BBX 13 13 0 -1
BITMAP
1000
1010
17F8
2000
2000
6000
A020
23F0
2000
2000
2000
2010
2FF8
ENDCHAR
STARTCHAR uni4EE9
ENCODING 20201
SWIDTH 1000 0
DWIDTH 14 0
BBX 13 13 0 -1
BITMAP
1100
1100
1100
2100
2120
61F0
A100
2100
2100
2100
2100
2110
2FF8
ENDCHAR
STARTCHAR uni4EEA
ENCODING 20202
SWIDTH 1000 0
DWIDTH 14 0
BBX 13 13 0 -1
BITMAP
1000
1110
1490
2490
2410
6220
A220
2140
2080
2140
2220
2410
2808
ENDCHAR
STARTCHAR uni4EEB
ENCODING 20203
SWIDTH 1000 0
DWIDTH 14 0
BBX 13 13 0 -1
BITMAP
1080
1080
1100
2100
2240
6440
A880
2080
2120
2210
2478
2F88
2408
ENDCHAR
STARTCHAR uni4EEC
ENCODING 20204
SWIDTH 1000 0
DWIDTH 14 0
BBX 13 13 0 -1
BITMAP
1400
12F8
1008
2408
2408
6408
A408
2408
2408
2408
2448
2438
2410
ENDCHAR
STARTCHAR uni4EF0
ENCODING 20208
SWIDTH 1000 0
DWIDTH 14 0
BBX 13 13 0 -1
BITMAP
1100
1678
1448
2448
2448
6448
A448
2448
2548
2E78
2450
2040
2040
ENDCHAR
STARTCHAR uni4EF1
ENCODING 20209
SWIDTH 1000 0
DWIDTH 14 0
BBX 13 13 0 -1
BITMAP
1080
1080
1140
2220
2510
6888
A000
27F0
2020
2020
2040
2040
2080
ENDCHAR
STARTCHAR uni4EF2
ENCODING 20210
SWIDTH 1000 0
DWIDTH 14 0
BBX 13 13 0 -1
BITMAP
1080
1080
1490
27F8
2490
6490
A490
27F0
2490
2080
2080
2080
2080
ENDCHAR
STARTCHAR uni4EF3
ENCODING 20211
SWIDTH 1000 0
DWIDTH 14 0
BBX 13 13 0 -1
BITMAP
1040
1440
1440
2448
2450
6760
A440
2440
2440
2440
2548
2E48
2438
ENDCHAR
STARTCHAR uni4EF4
ENCODING 20212
SWIDTH 1000 0
DWIDTH 14 0
BBX 13 13 0 -1
BITMAP
1210
13F8
1210
2210
23F0
6210
A210
23F0
2210
2210
2290
2470
2820
ENDCHAR
STARTCHAR uni4EF5
ENCODING 20213
SWIDTH 1000 0
DWIDTH 14 0
BBX 13 13 0 -1
BITMAP
1100
1100
11F0
2240
2440
6040
A040
27F8
2040
2040
2040
2040
2040
ENDCHAR
STARTCHAR uni4EF6
ENCODING 20214
SWIDTH 1000 0
DWIDTH 14 0
BBX 13 13 0 -1
BITMAP
1080
1480
1480
27F0
2880
6080
A080
3FF8
2080
2080
2080
2080
2080
ENDCHAR
STARTCHAR uni4EF7
ENCODING 20215
SWIDTH 1000 0
DWIDTH 14 0
BBX 13 13 0 -1
BITMAP
1080
1080
1140
2220
2410
6A28
A220
2220
2220
2220
2220
2420
2820
ENDCHAR
STARTCHAR uni4EFB
ENCODING 20219
SWIDTH 1000 0
DWIDTH 14 0
BBX 13 13 0 -1
BITMAP
1020
1070
1780
2080
2080
6090
AFF8
2080
2080
2080
2080
2080
27F0
ENDCHAR
STARTCHAR uni4EFD
ENCODING 20221
SWIDTH 1000 0
DWIDTH 14 0
BBX 13 13 0 -1
BITMAP
1040
1240
1240
2220
2410
6808
B7E0
2120
2120
2120
2220
24E0
2840
ENDCHAR
STARTCHAR uni4EFF
ENCODING 20223
SWIDTH 1000 0
DWIDTH 14 0
BBX 13 13 0 -1
BITMAP
1100
1080
1090
2FF8
2100
6110
A1F8
2110
2110
2210
2290
2470
2820
ENDCHAR
STARTCHAR uni4F00
ENCODING 20224
SWIDTH 1000 0
DWIDTH 14 0
BBX 13 13 0 -1
BITMAP
1040
1040
1240
2240
2420
64A0
A890
3108
2100
2240
2420
2FD0
2410
ENDCHAR
STARTCHAR uni4F01
ENCODING 20225
SWIDTH 1000 0
DWIDTH 14 0
BBX 13 13 0 -1
BITMAP
0100
0300
0480
0840
3138
C110
0100
1100
11E0
1100
1100
1110
FFF8
ENDCHAR
STARTCHAR uni4F02
ENCODING 20226
SWIDTH 1000 0
DWIDTH 14 0
BBX 13 13 0 -1
BITMAP
1080
1080
1FF8
2080
2490
67F8
A490
2490
2490
2490
24B0
2080
2080
ENDCHAR
STARTCHAR uni4F04
ENCODING 20228
SWIDTH 1000 0
DWIDTH 14 0
BBX 13 13 0 -1
BITMAP
1010
17F8
1090
2090
27F0
6490
A480
2FF8
2088
2088
2088
20B0
2080
ENDCHAR
STARTCHAR uni4F05
ENCODING 20229
SWIDTH 1000 0
DWIDTH 14 0
BBX 13 13 0 -1
BITMAP
1080
1080
1FF8
2080
2490
6490
A490
27F0
2490
2080
2088
2088
2078
ENDCHAR
STARTCHAR uni4F08
ENCODING 20232
SWIDTH 1000 0
DWIDTH 14 0
BBX 13 13 0 -1
BITMAP
1000
1040
1020
2120
2100
6100
A510
2508
2508
2910
2110
2118
20F0
ENDCHAR
STARTCHAR uni4F09
ENCODING 20233
SWIDTH 1000 0
DWIDTH 14 0
BBX 13 13 0 -1
BITMAP
1100
1080
1090
2FF8
2000
63E0
A220
2220
2220
2220
2228
2428
2818
ENDCHAR
STARTCHAR uni4F0A
ENCODING 20234
SWIDTH 1000 0
DWIDTH 14 0
BBX 13 13 0 -1
BITMAP
1010
17F8
1110
2110
2FF8
6110
A110
27F0
2110
2100
2200
2400
2800
ENDCHAR
STARTCHAR uni4F0B
ENCODING 20235
SWIDTH 1000 0
DWIDTH 14 0
BBX 13 13 0 -1
BITMAP
1020
17F0
1120
2120
2140
6178
A110
2110
2190
2260
2460
2890
3708
ENDCHAR
STARTCHAR uni4F0D
ENCODING 20237
SWIDTH 1000 0
DWIDTH 14 0
BBX 13 13 0 -1
BITMAP
1010
1FF8
1080
2080
2080
67F0
A090
2090
2110
2110
2110
2110
2FF8
ENDCHAR
STARTCHAR uni4F0E
ENCODING 20238
SWIDTH 1000 0
DWIDTH 14 0
BBX 13 13 0 -1
BITMAP
1080
1080
1090
2FF8
2080
67F0
A220
2220
2140
2080
2140
2238
2C10
ENDCHAR
STARTCHAR uni4F0F
ENCODING 20239
SWIDTH 1000 0
DWIDTH 14 0
BBX 13 13 0 -1
BITMAP
1080
10A0
1090
2080
2FF8
6080
A080
2080
2140
2140
2220
2410
2808
ENDCHAR
STARTCHAR uni4F10
ENCODING 20240
SWIDTH 1000 0
DWIDTH 14 0
BBX 13 13 0 -1
BITMAP
1140
1120
1120
2118
21E0
6F00
A110
2110
2120
20C8
20C8
2128
2618
ENDCHAR
STARTCHAR uni4F11
ENCODING 20241
SWIDTH 1000 0
DWIDTH 14 0
BBX 13 13 0 -1
BITMAP
1080
1080
1090
2FF8
2080
61C0
A1C0
22A0
22A0
2490
2490
2888
2888
ENDCHAR
STARTCHAR uni4F12
ENCODING 20242
SWIDTH 1000 0
DWIDTH 14 0
BBX 13 13 0 -1
BITMAP
1020
1270
1380
2200
2200
63F8
A220
2220
2220
2220
2420
2420
2820
ENDCHAR
STARTCHAR uni4F13
ENCODING 20243
SWIDTH 1000 0
DWIDTH 14 0
BBX 13 13 0 -1
BITMAP
1010
17F8
1040
2040
2080
61A0
A290
2498
2888
2080
2080
2080
2080
ENDCHAR
STARTCHAR uni4F14
ENCODING 20244
SWIDTH 1000 0
DWIDTH 14 0
BBX 13 13 0 -1
BITMAP
1000
17F8
1408
2810
23C0
6240
A240
2240
2240
2248
2448
2448
2838
ENDCHAR
STARTCHAR uni4F15
ENCODING 20245
SWIDTH 1000 0
DWIDTH 14 0
BBX 13 13 0 -1
BITMAP
1080
1080
1080
27F0
2080
6090
AFF8
2080
2080
2140
2220
2410
2808
ENDCHAR
STARTCHAR uni4F17
ENCODING 20247
SWIDTH 1000 0
DWIDTH 14 0
BBX 13 13 0 -1
BITMAP
0200
0300
0480
0840
3038
C850
0840
0840
0840
1440
22A0
4110
8208
ENDCHAR
STARTCHAR uni4F18
ENCODING 20248
SWIDTH 1000 0
DWIDTH 14 0
BBX 13 13 0 -1
BITMAP
1140
1120
1100
2FF8
2100
6140
A140
2140
2140
2248
2248
2448
2838
ENDCHAR
STARTCHAR uni4F19
ENCODING 20249
SWIDTH 1000 0
DWIDTH 14 0
BBX 13 13 0 -1
BITMAP
1080
1080
1080
2080
2290
62A0
A4C0
2080
2140
2140
2220
2410
2808
ENDCHAR
STARTCHAR uni4F1A
ENCODING 20250
SWIDTH 1000 0
DWIDTH 14 0
BBX 13 13 0 -1
BITMAP
0200
0300
0480
0840
3038
CF90
0000
7FF0
0200
0440
0820
3FD0
1010
ENDCHAR
STARTCHAR uni4F1B
ENCODING 20251
SWIDTH 1000 0
DWIDTH 14 0
BBX 13 13 0 -1
BITMAP
1410
17F8
1400
2410
2510
64A0
A440
2460
2490
2510
2400
2410
27F8
ENDCHAR
STARTCHAR uni4F1D
ENCODING 20253
SWIDTH 1000 0
DWIDTH 14 0
BBX 13 13 0 -1
BITMAP
1040
13E0
1000
2000
2010
6FF8
A180
2100
2100
2220
2410
2FE8
2408
ENDCHAR
STARTCHAR uni4F1E
ENCODING 20254
SWIDTH 1000 0
DWIDTH 14 0
BBX 13 13 0 -1
BITMAP
0200
0500
0880
3060
C218
1220
0A40
0A40
7FF8
0200
0200
0200
0200
ENDCHAR
STARTCHAR uni4F1F
ENCODING 20255
SWIDTH 1000 0
DWIDTH 14 0
BBX 13 13 0 -1
BITMAP
1080
1090
1FF8
2080
27F0
6080
A080
2FF8
2088
2088
20B0
2080
2080
ENDCHAR
STARTCHAR uni4F20
ENCODING 20256
SWIDTH 1000 0
DWIDTH 14 0
BBX 13 13 0 -1
BITMAP
1080
1080
17F0
2100
2110
6FF8
A200
27F0
2020
2340
2080
2040
2020
ENDCHAR
STARTCHAR uni4F22
ENCODING 20258
SWIDTH 1000 0
DWIDTH 14 0
BBX 13 13 0 -1
BITMAP
1010
17F8
1040
2240
2240
67F8
A040
20C0
2140
2240
2640
29C0
2080
ENDCHAR
STARTCHAR uni4F24
ENCODING 20260
SWIDTH 1000 0
DWIDTH 14 0
BBX 13 13 0 -1
BITMAP
1200
1210
13F8
2480
2880
67F8
A088
2088
2088
2088
2148
2238
2C10
ENDCHAR
STARTCHAR uni4F25
ENCODING 20261
SWIDTH 1000 0
DWIDTH 14 0
BBX 13 13 0 -1
BITMAP
1200
1220
1240
2280
2300
6210
AFF8
2280
2280
2240
22A0
2710
2208
ENDCHAR
STARTCHAR uni4F26
ENCODING 20262
SWIDTH 1000 0
DWIDTH 14 0
BBX 13 13 0 -1
BITMAP
1080
1080
1180
2240
2420
6818
B220
2240
2280
2310
2210
2218
21F0
ENDCHAR
STARTCHAR uni4F27
ENCODING 20263
SWIDTH 1000 0
DWIDTH 14 0
BBX 13 13 0 -1
BITMAP
1080
1080
1140
2220
2410
6BE8
A220
2220
22E0
2240
2208
2208
21F8
ENDCHAR
STARTCHAR uni4F2A
ENCODING 20266
SWIDTH 1000 0
DWIDTH 14 0
BBX 13 13 0 -1
BITMAP
1080
1480
1280
2080
2FF8
6088
A0C8
2128
2128
2208
2288
2470
2820
ENDCHAR
STARTCHAR uni4F2B
ENCODING 20267
SWIDTH 1000 0
DWIDTH 14 0
BBX 13 13 0 -1
BITMAP
1100
1080
1410
27F8
2410
6820
A000
2000
2000
2000
2010
2FF8
2000
ENDCHAR
STARTCHAR uni4F2C
ENCODING 20268
SWIDTH 1000 0
DWIDTH 14 0
BBX 13 13 0 -1
BITMAP
1210
13F8
1210
2210
2210
63F0
A290
2280
2240
2440
2420
2810
3008
ENDCHAR
STARTCHAR uni4F2D
ENCODING 20269
SWIDTH 1000 0
DWIDTH 14 0
BBX 13 13 0 -1
BITMAP
1100
1080
1090
2FF8
2100
6260
A5C0
2E80
2080
2120
2210
2FE8
2408
ENDCHAR
STARTCHAR uni4F2F
ENCODING 20271
SWIDTH 1000 0
DWIDTH 14 0
BBX 13 13 0 -1
BITMAP
1080
1080
1100
23F8
2208
6208
A208
23F8
2208
2208
2208
23F8
2208
ENDCHAR
STARTCHAR uni4F30
ENCODING 20272
SWIDTH 1000 0
DWIDTH 14 0
BBX 13 13 0 -1
BITMAP
1080
1080
1090
2FF8
2080
6080
A490
27F8
2410
2410
2410
27F0
2410
ENDCHAR
STARTCHAR uni4F32
ENCODING 20274
SWIDTH 1000 0
DWIDTH 14 0
BBX 13 13 0 -1
BITMAP
1410
17F8
1410
2410
27F0
6400
A510
2520
2540
2588
2508
2908
30F8
ENDCHAR
STARTCHAR uni4F33
ENCODING 20275
SWIDTH 1000 0
DWIDTH 14 0
BBX 13 13 0 -1
BITMAP
1000
14A0
14A0
24A0
2FF8
64A0
A4A0
24A0
24E0
24A0
2400
2410
27F8
ENDCHAR
STARTCHAR uni4F34
ENCODING 20276
SWIDTH 1000 0
DWIDTH 14 0
BBX 13 13 0 -1
BITMAP
1080
1490
1290
22A0
2080
67F0
A080
2080
2FF8
2080
2080
2080
2080
ENDCHAR
STARTCHAR uni4F36
ENCODING 20278
SWIDTH 1000 0
DWIDTH 14 0
BBX 13 13 0 -1
BITMAP
1080
1180
1240
2420
2910
7088
A000
27F0
2020
2040
2380
2080
2040
ENDCHAR
STARTCHAR uni4F38
ENCODING 20280
SWIDTH 1000 0
DWIDTH 14 0
BBX 13 13 0 -1
BITMAP
1080
1490
17F8
2490
2490
67F0
A490
2490
27F0
2490
2080
2080
2080
ENDCHAR
STARTCHAR uni4F3A
ENCODING 20282
SWIDTH 1000 0
DWIDTH 14 0
BBX 13 13 0 -1
BITMAP
17F8
1008
1008
27E8
2008
6008
A3C8
2248
2248
23C8
2008
2038
2010
ENDCHAR
STARTCHAR uni4F3B
ENCODING 20283
SWIDTH 1000 0
DWIDTH 14 0
BBX 13 13 0 -1
BITMAP
1020
17F0
1080
2490
2290
62A0
A080
2FF8
2080
2080
2080
2080
2080
ENDCHAR
STARTCHAR uni4F3C
ENCODING 20284
SWIDTH 1000 0
DWIDTH 14 0
BBX 13 13 0 -1
BITMAP
1010
1010
1410
2510
2490
6490
A410
2410
25A0
2E20
2450
2088
2308
ENDCHAR
STARTCHAR uni4F3D
ENCODING 20285
SWIDTH 1000 0
DWIDTH 14 0
BBX 13 13 0 -1
BITMAP
1400
1400
1578
2FC8
2548
6548
A548
2548
2548
2548
2948
2F78
3248
ENDCHAR
STARTCHAR uni4F3E
ENCODING 20286
SWIDTH 1000 0
DWIDTH 14 0
BBX 13 13 0 -1
BITMAP
1010
1FF8
1080
2080
21A0
6190
A298
2488
2880
2080
2080
2010
2FF8
ENDCHAR
STARTCHAR uni4F3F
ENCODING 20287
SWIDTH 1000 0
DWIDTH 14 0
BBX 13 13 0 -1
BITMAP
1210
13F8
1210
2210
2210
6210
A3F0
2210
2000
2120
2210
2408
2808
ENDCHAR
STARTCHAR uni4F41
ENCODING 20289
SWIDTH 1000 0
DWIDTH 14 0
BBX 13 13 0 -1
BITMAP
1080
1080
1120
2210
2FE8
6408
A000
23F0
2210
2210
2210
23F0
2210
ENDCHAR
STARTCHAR uni4F43
ENCODING 20291
SWIDTH 1000 0
DWIDTH 14 0
BBX 13 13 0 -1
BITMAP
1000
1410
17F8
2490
2490
6490
A7F0
2490
2490
2490
2490
27F0
2410
ENDCHAR
STARTCHAR uni4F46
ENCODING 20294
SWIDTH 1000 0
DWIDTH 14 0
BBX 13 13 0 -1
BITMAP
1210
13F8
1210
2210
2210
63F0
A210
2210
23F0
2210
2000
2010
2FF8
ENDCHAR
STARTCHAR uni4F47
ENCODING 20295
SWIDTH 1000 0
DWIDTH 14 0
BBX 13 13 0 -1
BITMAP
1180
1488
17F8
2810
2000
6FF8
A080
2080
2080
2080
2480
2380
2100
ENDCHAR
STARTCHAR uni4F48
ENCODING 20296
SWIDTH 1000 0
DWIDTH 14 0
BBX 13 13 0 -1
BITMAP
1080
1090
1FF8
2100
2140
6240
A7F8
2A48
3248
2248
2278
2250
2040
ENDCHAR
STARTCHAR uni4F49
ENCODING 20297
SWIDTH 1000 0
DWIDTH 14 0
BBX 13 13 0 -1
BITMAP
1080
1080
1080
27F0
2080
6080
AFF8
2080
2080
2120
2210
2FE8
2408
ENDCHAR
STARTCHAR uni4F4C
ENCODING 20300
SWIDTH 1000 0
DWIDTH 14 0
BBX 13 13 0 -1
BITMAP
1040
1240
1240
2A40
2A48
6BD0
AA60
2A40
2A40
2A48
2BC8
3E48
2838
ENDCHAR
STARTCHAR uni4F4D
ENCODING 20301
SWIDTH 1000 0
DWIDTH 14 0
BBX 13 13 0 -1
BITMAP
1100
1080
1080
27F0
2000
6420
A220
2220
2140
2140
2080
2090
2FF8
ENDCHAR
STARTCHAR uni4F4E
ENCODING 20302
SWIDTH 1000 0
DWIDTH 14 0
BBX 13 13 0 -1
BITMAP
1020
1470
17C0
2440
2440
67F8
A440
2440
2440
24C8
2528
2E98
2448
ENDCHAR
STARTCHAR uni4F4F
ENCODING 20303
SWIDTH 1000 0
DWIDTH 14 0
BBX 13 13 0 -1
BITMAP
1100
1080
1090
2FF8
2080
6080
A080
27F0
2080
2080
2080
2090
2FF8
ENDCHAR
STARTCHAR uni4F50
ENCODING 20304
SWIDTH 1000 0
DWIDTH 14 0
BBX 13 13 0 -1
BITMAP
1100
1100
1110
2FF8
2100
6100
A200
23F0
2440
2840
3040
2040
27F8
ENDCHAR
STARTCHAR uni4F51
ENCODING 20305
SWIDTH 1000 0
DWIDTH 14 0
BBX 13 13 0 -1
BITMAP
1080
1080
1090
2FF8
2100
6100
A3F0
2210
2610
2A10
2210
23F0
2210
ENDCHAR
STARTCHAR uni4F52
ENCODING 20306
SWIDTH 1000 0
DWIDTH 14 0
BBX 13 13 0 -1
BITMAP
1080
1080
1490
27F8
2490
6490
A490
2FF8
2080
2140
2220
2410
2808
ENDCHAR
STARTCHAR uni4F53
ENCODING 20307
SWIDTH 1000 0
DWIDTH 14 0
BBX 13 13 0 -1
BITMAP
1080
1080
1090
2FF8
2080
61C0
A2A0
2490
2898
33E8
2080
2080
2080
ENDCHAR
STARTCHAR uni4F54
ENCODING 20308
SWIDTH 1000 0
DWIDTH 14 0
BBX 13 13 0 -1
BITMAP
1080
1080
1090
20F8
2080
6080
A080
27F0
2410
2410
2410
27F0
2410
ENDCHAR
STARTCHAR uni4F55
ENCODING 20309
SWIDTH 1000 0
DWIDTH 14 0
BBX 13 13 0 -1
BITMAP
1000
17F8
1010
2010
2790
6490
A490
2490
2790
2490
2010
2070
2020
ENDCHAR
STARTCHAR uni4F56
ENCODING 20310
SWIDTH 1000 0
DWIDTH 14 0
BBX 13 13 0 -1
BITMAP
1000
1090
1050
2150
2110
6120
A530
2548
2548
2990
2110
2318
2CF0
ENDCHAR
STARTCHAR uni4F57
ENCODING 20311
SWIDTH 1000 0
DWIDTH 14 0
BBX 13 13 0 -1
BITMAP
10C0
1448
17F8
2408
2810
6200
A230
22C0
2300
2208
2208
2208
21F8
ENDCHAR
STARTCHAR uni4F58
ENCODING 20312
SWIDTH 1000 0
DWIDTH 14 0
BBX 13 13 0 -1
BITMAP
0200
0500
0880
3060
CF98
0000
0000
7FF0
0200
1220
2210
4E18
8408
ENDCHAR
STARTCHAR uni4F59
ENCODING 20313
SWIDTH 1000 0
DWIDTH 14 0
BBX 13 13 0 -1
BITMAP
0200
0500
0880
3060
CF98
0200
0200
7FF0
0200
1220
2210
4E18
8408
ENDCHAR
STARTCHAR uni4F5A
ENCODING 20314
SWIDTH 1000 0
DWIDTH 14 0
BBX 13 13 0 -1
BITMAP
1080
1280
1280
23F0
2480
6080
AFF8
2080
2080
2140
2220
2410
2808
ENDCHAR
STARTCHAR uni4F5B
ENCODING 20315
SWIDTH 1000 0
DWIDTH 14 0
BBX 13 13 0 -1
BITMAP
1140
1140
17F0
2150
2150
67F0
A540
2FF8
2148
2148
2270
2440
2840
ENDCHAR
STARTCHAR uni4F5C
ENCODING 20316
SWIDTH 1000 0
DWIDTH 14 0
BBX 13 13 0 -1
BITMAP
1100
1110
11F8
2280
2480
6880
A0F0
2080
2080
20F8
2080
2080
2080
ENDCHAR
STARTCHAR uni4F5D
ENCODING 20317
SWIDTH 1000 0
DWIDTH 14 0
BBX 13 13 0 -1
BITMAP
1200
1200
1200
23F8
2408
6BC8
A248
2248
2248
23C8
2248
2038
2010
ENDCHAR
STARTCHAR uni4F5E
ENCODING 20318
SWIDTH 1000 0
DWIDTH 14 0
BBX 13 13 0 -1
BITMAP
1020
17F0
1000
2FF8
2100
6100
AFF8
2220
2420
2640
21C0
2120
2E10
ENDCHAR
STARTCHAR uni4F5F
ENCODING 20319
SWIDTH 1000 0
DWIDTH 14 0
BBX 13 13 0 -1
BITMAP
1200
1220
13F0
2220
2540
6880
A140
2638
3890
2040
2000
2180
2060
ENDCHAR
STARTCHAR uni4F60
ENCODING 20320
SWIDTH 1000 0
DWIDTH 14 0
BBX 13 13 0 -1
BITMAP
1200
1200
1210
23F8
2490
68A0
A080
22A0
2290
2490
2888
2388
2100
ENDCHAR
STARTCHAR uni4F61
ENCODING 20321
SWIDTH 1000 0
DWIDTH 14 0
BBX 13 13 0 -1
BITMAP
1080
1180
1240
2420
2810
7088
A080
2490
2490
2490
2490
27F0
2410
ENDCHAR
STARTCHAR uni4F62
ENCODING 20322
SWIDTH 1000 0
DWIDTH 14 0
BBX 13 13 0 -1
BITMAP
1410
17F8
1400
2400
27F0
6410
A410
27F0
2410
2400
2400
2410
27F8
ENDCHAR
STARTCHAR uni4F63
ENCODING 20323
SWIDTH 1000 0
DWIDTH 14 0
BBX 13 13 0 -1
BITMAP
1410
17F8
1490
2490
27F0
6490
A490
27F0
2490
2490
2490
2890
3030
ENDCHAR
STARTCHAR uni4F64
ENCODING 20324
SWIDTH 1000 0
DWIDTH 14 0
BBX 13 13 0 -1
BITMAP
1010
17F8
1100
2100
23F0
6220
A320
22A0
22A0
2440
2548
2E48
2438
ENDCHAR
STARTCHAR uni4F65
ENCODING 20325
SWIDTH 1000 0
DWIDTH 14 0
BBX 13 13 0 -1
BITMAP
0100
0300
0480
0840
3038
DFD0
0000
0820
2420
1240
1240
0090
7FF8
ENDCHAR
STARTCHAR uni4F67
ENCODING 20327
SWIDTH 1000 0
DWIDTH 14 0
BBX 13 13 0 -1
BITMAP
1100
1100
11F0
2100
2100
6FF8
A100
21C0
2130
2110
2100
2100
2100
ENDCHAR
STARTCHAR uni4F69
ENCODING 20329
SWIDTH 1000 0
DWIDTH 14 0
BBX 13 13 0 -1
BITMAP
1010
1FF8
1810
2BD0
2910
6FD0
AD50
2D50
2D50
2D50
2DD0
3118
2108
ENDCHAR
STARTCHAR uni4F6A
ENCODING 20330
SWIDTH 1000 0
DWIDTH 14 0
BBX 13 13 0 -1
BITMAP
1000
17F8
1408
2408
25E8
6528
A528
25E8
2528
2408
2408
27F8
2408
ENDCHAR
STARTCHAR uni4F6B
ENCODING 20331
SWIDTH 1000 0
DWIDTH 14 0
BBX 13 13 0 -1
BITMAP
1220
13F0
1220
2540
2880
6160
A618
3BF0
2210
2210
2210
23F0
2210
ENDCHAR
STARTCHAR uni4F6C
ENCODING 20332
SWIDTH 1000 0
DWIDTH 14 0
BBX 13 13 0 -1
BITMAP
1100
1110
17D0
2120
2140
6FF8
A080
2110
2320
25C0
3908
2108
20F8
ENDCHAR
STARTCHAR uni4F6E
ENCODING 20334
SWIDTH 1000 0
DWIDTH 14 0
BBX 13 13 0 -1
BITMAP
1080
1080
1140
2220
2410
6BE8
A000
27F0
2410
2410
2410
27F0
2410
ENDCHAR
STARTCHAR uni4F6F
ENCODING 20335
SWIDTH 1000 0
DWIDTH 14 0
BBX 13 13 0 -1
BITMAP
1220
1120
1140
2FF8
2080
6080
A7F0
2080
2090
2FF8
2080
2080
2080
ENDCHAR
STARTCHAR uni4F70
ENCODING 20336
SWIDTH 1000 0
DWIDTH 14 0
BBX 13 13 0 -1
BITMAP
1010
1FF8
1080
2110
23F8
6210
A210
2210
23F0
2210
2210
23F0
2210
ENDCHAR
STARTCHAR uni4F73
ENCODING 20339
SWIDTH 1000 0
DWIDTH 14 0
BBX 13 13 0 -1
BITMAP
1080
1080
17F0
2080
2090
6FF8
A000
2080
2080
27F0
2080
2090
2FF8
ENDCHAR
STARTCHAR uni4F74
ENCODING 20340
SWIDTH 1000 0
DWIDTH 14 0
BBX 13 13 0 -1
BITMAP
1010
1FF8
1220
2220
23E0
6220
A220
23E0
2220
22F8
2F20
2420
2020
ENDCHAR
STARTCHAR uni4F75
ENCODING 20341
SWIDTH 1000 0
DWIDTH 14 0
BBX 13 13 0 -1
BITMAP
1220
1120
1140
2FF8
2220
6220
A220
2FF8
2220
2220
2220
2420
2820
ENDCHAR
STARTCHAR uni4F76
ENCODING 20342
SWIDTH 1000 0
DWIDTH 14 0
BBX 13 13 0 -1
BITMAP
1080
1080
1FF8
2080
2080
67F0
A000
23F0
2210
2210
2210
23F0
2210
ENDCHAR
STARTCHAR uni4F77
ENCODING 20343
SWIDTH 1000 0
DWIDTH 14 0
BBX 13 13 0 -1
BITMAP
1420
17F0
1420
27E0
2420
67E0
A4A0
2490
24A0
2440
2520
2E10
2408
ENDCHAR
STARTCHAR uni4F78
ENCODING 20344
SWIDTH 1000 0
DWIDTH 14 0
BBX 13 13 0 -1
BITMAP
1020
1070
1780
2080
2FF8
6080
A080
27F0
2410
2410
2410
27F0
2410
ENDCHAR
STARTCHAR uni4F79
ENCODING 20345
SWIDTH 1000 0
DWIDTH 14 0
BBX 13 13 0 -1
BITMAP
1220
13F0
1220
2440
2FF8
6400
A5F0
2510
2510
2560
2508
2908
30F8
ENDCHAR
STARTCHAR uni4F7A
ENCODING 20346
SWIDTH 1000 0
DWIDTH 14 0
BBX 13 13 0 -1
BITMAP
1080
1080
1140
2220
2410
6BE8
A080
2080
27F0
2080
2080
2090
2FF8
ENDCHAR
STARTCHAR uni4F7B
ENCODING 20347
SWIDTH 1000 0
DWIDTH 14 0
BBX 13 13 0 -1
BITMAP
1140
1140
1158
2950
2560
6540
A360
2558
2948
2140
2248
2448
2838
ENDCHAR
STARTCHAR uni4F7C
ENCODING 20348
SWIDTH 1000 0
DWIDTH 14 0
BBX 13 13 0 -1
BITMAP
1180
1080
1FF8
2000
2210
6408
AA28
2220
2140
2080
2140
2638
3810
ENDCHAR
STARTCHAR uni4F7D
ENCODING 20349
SWIDTH 1000 0
DWIDTH 14 0
BBX 13 13 0 -1
BITMAP
1080
1880
14F8
2488
2350
6240
A440
2440
3840
2840
28A0
2910
2608
ENDCHAR
STARTCHAR uni4F7E
ENCODING 20350
SWIDTH 1000 0
DWIDTH 14 0
BBX 13 13 0 -1
BITMAP
1240
1240
1420
2810
33E8
6220
A3E0
2220
2220
23E0
2420
28E0
3040
ENDCHAR
STARTCHAR uni4F7F
ENCODING 20351
SWIDTH 1000 0
DWIDTH 14 0
BBX 13 13 0 -1
BITMAP
1080
1090
1FF8
2080
27F0
6490
A7F0
2490
2280
2100
2180
2660
3818
ENDCHAR
STARTCHAR uni4F80
ENCODING 20352
SWIDTH 1000 0
DWIDTH 14 0
BBX 13 13 0 -1
BITMAP
1008
1F88
1528
2528
2528
6528
BFE8
2528
2528
2528
2908
2938
3110
ENDCHAR
STARTCHAR uni4F81
ENCODING 20353
SWIDTH 1000 0
DWIDTH 14 0
BBX 13 13 0 -1
BITMAP
1080
1480
1480
27F0
2880
6090
AFF8
2140
2140
2140
2148
2648
3838
ENDCHAR
STARTCHAR uni4F82
ENCODING 20354
SWIDTH 1000 0
DWIDTH 14 0
BBX 13 13 0 -1
BITMAP
1080
1440
17F8
2420
2470
6780
A490
24F8
2780
2480
2888
2888
3078
ENDCHAR
STARTCHAR uni4F83
ENCODING 20355
SWIDTH 1000 0
DWIDTH 14 0
BBX 13 13 0 -1
BITMAP
17F0
1410
1410
27F0
2410
6000
A2A0
22A0
22A0
22A0
22A8
24A8
2898
ENDCHAR
STARTCHAR uni4F84
ENCODING 20356
SWIDTH 1000 0
DWIDTH 14 0
BBX 13 13 0 -1
BITMAP
1010
1FF8
1100
2120
2270
6F88
A408
2080
2080
27F0
2080
2090
2FF8
ENDCHAR
STARTCHAR uni4F85
ENCODING 20357
SWIDTH 1000 0
DWIDTH 14 0
BBX 13 13 0 -1
BITMAP
1180
1090
1FF8
2100
2260
6440
AF90
2110
2220
2C40
20A0
2318
2C08
ENDCHAR
STARTCHAR uni4F86
ENCODING 20358
SWIDTH 1000 0
DWIDTH 14 0
BBX 13 13 0 -1
BITMAP
0200
0210
FFF8
0200
2220
2220
5250
8A88
0200
0700
0A80
3260
C218
ENDCHAR
STARTCHAR uni4F87
ENCODING 20359
SWIDTH 1000 0
DWIDTH 14 0
BBX 13 13 0 -1
BITMAP
1090
1FF8
1080
27F0
2090
67F0
A480
2FF8
2088
20B8
2140
2638
3810
ENDCHAR
STARTCHAR uni4F88
ENCODING 20360
SWIDTH 1000 0
DWIDTH 14 0
BBX 13 13 0 -1
BITMAP
1110
11F8
1210
2520
28C0
6100
A290
2CF8
2110
22A0
2C40
2180
2E00
ENDCHAR
STARTCHAR uni4F89
ENCODING 20361
SWIDTH 1000 0
DWIDTH 14 0
BBX 13 13 0 -1
BITMAP
1100
1110
1FF8
2220
2410
69C8
A000
2FF8
2200
27F0
2020
2120
20C0
ENDCHAR
STARTCHAR uni4F8B
ENCODING 20363
SWIDTH 1000 0
DWIDTH 14 0
BBX 13 13 0 -1
BITMAP
1008
1FC8
1208
2228
23A8
64A8
A4A8
2B28
3128
2228
2208
2438
2810
ENDCHAR
STARTCHAR uni4F8D
ENCODING 20365
SWIDTH 1000 0
DWIDTH 14 0
BBX 13 13 0 -1
BITMAP
1080
1080
17F0
2080
2080
6FF8
A020
2FF8
2420
2220
2220
20E0
2040
ENDCHAR
STARTCHAR uni4F8F
ENCODING 20367
SWIDTH 1000 0
DWIDTH 14 0
BBX 13 13 0 -1
BITMAP
1080
1280
1280
23F0
2480
6080
AFF8
2080
21C0
22A0
2490
2898
3088
ENDCHAR
STARTCHAR uni4F90
ENCODING 20368
SWIDTH 1000 0
DWIDTH 14 0
BBX 13 13 0 -1
BITMAP
1080
1080
1510
27F8
2550
6550
A550
2550
2550
2550
2550
2550
3FF8
ENDCHAR
STARTCHAR uni4F91
ENCODING 20369
SWIDTH 1000 0
DWIDTH 14 0
BBX 13 13 0 -1
BITMAP
1100
1110
1FF8
2100
23F0
6210
A610
2BF0
2210
23F0
2210
2270
2220
ENDCHAR
STARTCHAR uni4F92
ENCODING 20370
SWIDTH 1000 0
DWIDTH 14 0
BBX 13 13 0 -1
BITMAP
1180
1080
17F8
2408
2910
6100
AFF8
2220
2420
2240
21C0
2220
2C18
ENDCHAR
STARTCHAR uni4F94
ENCODING 20372
SWIDTH 1000 0
DWIDTH 14 0
BBX 13 13 0 -1
BITMAP
1180
1120
1210
27E8
2088
6280
A3F0
2480
2080
2FF8
2080
2080
2080
ENDCHAR
STARTCHAR uni4F95
ENCODING 20373
SWIDTH 1000 0
DWIDTH 14 0
BBX 13 13 0 -1
BITMAP
1010
1FF8
1080
2100
27F8
6548
A548
2548
2548
2548
2548
2578
2410
ENDCHAR
STARTCHAR uni4F96
ENCODING 20374
SWIDTH 1000 0
DWIDTH 14 0
BBX 13 13 0 -1
BITMAP
0200
0500
0880
3060
CF98
0000
3FF0
2490
3FF0
2490
2490
24F0
2020
ENDCHAR
STARTCHAR uni4F97
ENCODING 20375
SWIDTH 1000 0
DWIDTH 14 0
BBX 13 13 0 -1
BITMAP
1000
17F8
1408
25E8
2408
65E8
A528
2528
25E8
2528
2408
2438
2410
ENDCHAR
STARTCHAR uni4F98
ENCODING 20376
SWIDTH 1000 0
DWIDTH 14 0
BBX 13 13 0 -1
BITMAP
10C0
1040
17F8
2408
28D0
6700
A118
21E0
2F00
2100
2108
2108
20F8
ENDCHAR
STARTCHAR uni4F9A
ENCODING 20378
SWIDTH 1000 0
DWIDTH 14 0
BBX 13 13 0 -1
BITMAP
1200
1200
13F8
2408
2BC8
6248
A248
23C8
2248
23C8
2248
2038
2010
ENDCHAR
STARTCHAR uni4F9B
ENCODING 20379
SWIDTH 1000 0
DWIDTH 14 0
BBX 13 13 0 -1
BITMAP
1240
1240
1240
2FF8
2240
6240
A240
2240
3FF8
2000
2140
2638
3810
ENDCHAR
STARTCHAR uni4F9C
ENCODING 20380
SWIDTH 1000 0
DWIDTH 14 0
BBX 13 13 0 -1
BITMAP
1180
1100
17E0
2520
24A0
64A0
AFF8
2520
24A0
24A0
2420
28E0
3040
ENDCHAR
STARTCHAR uni4F9D
ENCODING 20381
SWIDTH 1000 0
DWIDTH 14 0
BBX 13 13 0 -1
BITMAP
1180
1090
1FF8
2080
2180
6290
A6A0
2A40
3240
2220
2290
2708
2200
ENDCHAR
STARTCHAR uni4F9E
ENCODING 20382
SWIDTH 1000 0
DWIDTH 14 0
BBX 13 13 0 -1
BITMAP
1400
1400
1478
2FC8
2548
6548
A948
2948
2D48
2248
2578
28C8
3000
ENDCHAR
STARTCHAR uni4FA0
ENCODING 20384
SWIDTH 1000 0
DWIDTH 14 0
BBX 13 13 0 -1
BITMAP
1080
1080
17F0
2080
2490
62A0
A080
2FF8
2080
2140
2220
2410
2808
ENDCHAR
STARTCHAR uni4FA3
ENCODING 20387
SWIDTH 1000 0
DWIDTH 14 0
BBX 13 13 0 -1
BITMAP
1210
13F8
1210
2210
2210
63F0
A000
27F8
2408
2408
2408
27F8
2408
ENDCHAR
STARTCHAR uni4FA5
ENCODING 20389
SWIDTH 1000 0
DWIDTH 14 0
BBX 13 13 0 -1
BITMAP
1900
1938
17C0
2128
20C8
6738
A000
2FF8
2140
2140
2148
2248
2C38
ENDCHAR
STARTCHAR uni4FA6
ENCODING 20390
SWIDTH 1000 0
DWIDTH 14 0
BBX 13 13 0 -1
BITMAP
1080
10F8
1080
2490
27F8
6410
A490
2490
2490
2490
2080
2320
2C18
ENDCHAR
STARTCHAR uni4FA7
ENCODING 20391
SWIDTH 1000 0
DWIDTH 14 0
BBX 13 13 0 -1
BITMAP
1008
1F88
18A8
2AA8
2AA8
6AA8
AAA8
2AA8
2AA8
2228
2508
28B8
3090
ENDCHAR
STARTCHAR uni4FA8
ENCODING 20392
SWIDTH 1000 0
DWIDTH 14 0
BBX 13 13 0 -1
BITMAP
1030
17C0
1080
2FF8
2140
6220
AC18
2220
2220
2220
2220
2420
2820
ENDCHAR
STARTCHAR uni4FA9
ENCODING 20393
SWIDTH 1000 0
DWIDTH 14 0
BBX 13 13 0 -1
BITMAP
1080
1080
1140
2220
2418
6BD0
A000
2FF0
2100
2140
2220
2FD0
2410
ENDCHAR
STARTCHAR uni4FAA
ENCODING 20394
SWIDTH 1000 0
DWIDTH 14 0
BBX 13 13 0 -1
BITMAP
1180
1090
1FF8
2220
21C0
6220
AC18
2220
2220
2220
2220
2420
2820
ENDCHAR
STARTCHAR uni4FAC
ENCODING 20396
SWIDTH 1000 0
DWIDTH 14 0
BBX 13 13 0 -1
BITMAP
10C0
1080
17F8
2488
2890
6148
A250
2660
2A40
3220
2290
2718
2208
ENDCHAR
STARTCHAR uni4FAE
ENCODING 20398
SWIDTH 1000 0
DWIDTH 14 0
BBX 13 13 0 -1
BITMAP
1200
1210
17F8
2800
27E0
6420
A4A0
3FF8
2920
28A0
2FF8
2020
20C0
ENDCHAR
STARTCHAR uni4FAF
ENCODING 20399
SWIDTH 1000 0
DWIDTH 14 0
BBX 13 13 0 -1
BITMAP
17E0
1020
1040
2FF8
2400
67F0
A880
2080
2FF8
2080
2140
2638
3810
ENDCHAR
STARTCHAR uni4FB2
ENCODING 20402
SWIDTH 1000 0
DWIDTH 14 0
BBX 13 13 0 -1
BITMAP
1410
17F8
1400
25F0
2400
6410
A7F8
2548
2550
2520
2960
2B98
3108
ENDCHAR
STARTCHAR uni4FB3
ENCODING 20403
SWIDTH 1000 0
DWIDTH 14 0
BBX 13 13 0 -1
BITMAP
1080
1290
1290
2290
2290
65A8
A8C8
2080
27F0
2080
2080
2090
2FF8
ENDCHAR
STARTCHAR uni4FB5
ENCODING 20405
SWIDTH 1000 0
DWIDTH 14 0
BBX 13 13 0 -1
BITMAP
17F0
1010
17F0
2010
27F0
6000
AFF8
2808
27F0
2240
2180
2660
3818
ENDCHAR
STARTCHAR uni4FB6
ENCODING 20406
SWIDTH 1000 0
DWIDTH 14 0
BBX 13 13 0 -1
BITMAP
1210
13F8
1210
2210
23F0
6290
A080
27F8
2408
2408
2408
27F8
2408
ENDCHAR
STARTCHAR uni4FB7
ENCODING 20407
SWIDTH 1000 0
DWIDTH 14 0
BBX 13 13 0 -1
BITMAP
1410
17F8
1410
27F0
2400
67F8
A408
25C8
2548
25C8
2408
2870
3020
ENDCHAR
STARTCHAR uni4FB9
ENCODING 20409
SWIDTH 1000 0
DWIDTH 14 0
BBX 13 13 0 -1
BITMAP
1010
1E38
12E0
2220
2420
6EF8
A220
2220
3220
2BF8
2400
2B00
30F8
ENDCHAR
STARTCHAR uni4FBA
ENCODING 20410
SWIDTH 1000 0
DWIDTH 14 0
BBX 13 13 0 -1
BITMAP
1080
1490
1490
27F0
2080
6140
A220
2C98
2040
27E0
2020
2040
2080
ENDCHAR
STARTCHAR uni4FBB
ENCODING 20411
SWIDTH 1000 0
DWIDTH 14 0
BBX 13 13 0 -1
BITMAP
1220
1120
1140
27F0
2410
6410
A7F0
2410
2140
2140
2248
2448
3838
ENDCHAR
STARTCHAR uni4FBF
ENCODING 20415
SWIDTH 1000 0
DWIDTH 14 0
BBX 13 13 0 -1
BITMAP
1010
1FF8
1080
27F0
2490
67F0
A490
27F0
2490
2280
2100
22C0
2C38
ENDCHAR
STARTCHAR uni4FC0
ENCODING 20416
SWIDTH 1000 0
DWIDTH 14 0
BBX 13 13 0 -1
BITMAP
1060
1780
1110
2490
22A0
6120
A100
2FF8
2220
2240
21C0
2220
2C10
ENDCHAR
STARTCHAR uni4FC1
ENCODING 20417
SWIDTH 1000 0
DWIDTH 14 0
BBX 13 13 0 -1
BITMAP
13E0
1220
1220
2BE0
2800
6FF0
A090
2090
2FF8
2080
2140
2238
2C10
ENDCHAR
STARTCHAR uni4FC2
ENCODING 20418
SWIDTH 1000 0
DWIDTH 14 0
BBX 13 13 0 -1
BITMAP
1070
1780
1100
2220
27C0
60A0
A110
27E8
2088
22A0
2490
2B98
3108
ENDCHAR
STARTCHAR uni4FC3
ENCODING 20419
SWIDTH 1000 0
DWIDTH 14 0
BBX 13 13 0 -1
BITMAP
1210
13F8
1210
2210
23F0
6290
A080
2290
22F8
2280
2680
2980
3078
ENDCHAR
STARTCHAR uni4FC4
ENCODING 20420
SWIDTH 1000 0
DWIDTH 14 0
BBX 13 13 0 -1
BITMAP
1040
1150
1E48
2240
2FF8
6240
A348
2650
3A60
2248
32A8
2F18
2408
ENDCHAR
STARTCHAR uni4FC5
ENCODING 20421
SWIDTH 1000 0
DWIDTH 14 0
BBX 13 13 0 -1
BITMAP
1080
10A0
1090
2FF8
2080
6490
A2A0
21C0
22A0
24A0
2890
2398
2108
ENDCHAR
STARTCHAR uni4FC7
ENCODING 20423
SWIDTH 1000 0
DWIDTH 14 0
BBX 13 13 0 -1
BITMAP
1000
19F8
1620
2420
2A20
7220
A6F8
2A20
3220
2220
3220
2E20
25F8
ENDCHAR
STARTCHAR uni4FC9
ENCODING 20425
SWIDTH 1000 0
DWIDTH 14 0
BBX 13 13 0 -1
BITMAP
1020
17F0
1100
27E0
2120
6220
AFF8
2000
23F0
2210
2210
23F0
2210
ENDCHAR
STARTCHAR uni4FCA
ENCODING 20426
SWIDTH 1000 0
DWIDTH 14 0
BBX 13 13 0 -1
BITMAP
1080
1120
1270
2788
2220
6410
A908
23E0
2620
2940
2080
2360
2C18
ENDCHAR
STARTCHAR uni4FCB
ENCODING 20427
SWIDTH 1000 0
DWIDTH 14 0
BBX 13 13 0 -1
BITMAP
1220
13F0
1220
23E0
2010
67F8
A490
2490
27F0
2400
2408
2408
23F8
ENDCHAR
STARTCHAR uni4FCD
ENCODING 20429
SWIDTH 1000 0
DWIDTH 14 0
BBX 13 13 0 -1
BITMAP
1180
1080
17F0
2410
27F0
6410
A7F0
2488
2490
24A0
2540
2E20
2418
ENDCHAR
STARTCHAR uni4FCE
ENCODING 20430
SWIDTH 1000 0
DWIDTH 14 0
BBX 13 13 0 -1
BITMAP
2220
23F0
2220
5220
4BE0
8A20
2220
2220
33E0
4A20
4A20
8220
0FF8
ENDCHAR
STARTCHAR uni4FCF
ENCODING 20431
SWIDTH 1000 0
DWIDTH 14 0
BBX 12 13 0 -1
BITMAP
1490
1290
12A0
2080
27F0
6410
A7F0
2410
2410
27F0
2410
2470
2420
ENDCHAR
STARTCHAR uni4FD0
ENCODING 20432
SWIDTH 1000 0
DWIDTH 14 0
BBX 13 13 0 -1
BITMAP
1108
1388
1E48
2248
2FC8
6248
A348
26C8
2A48
3208
2248
2238
2210
ENDCHAR
STARTCHAR uni4FD1
ENCODING 20433
SWIDTH 1000 0
DWIDTH 14 0
BBX 13 13 0 -1
BITMAP
1020
17F0
1140
2080
27F8
6488
A7F8
2488
2488
27F8
2488
24B8
2490
ENDCHAR
STARTCHAR uni4FD3
ENCODING 20435
SWIDTH 1000 0
DWIDTH 14 0
BBX 13 13 0 -1
BITMAP
1010
17F8
1000
2490
2920
6920
A490
2000
27F0
2080
2080
2080
2FF8
ENDCHAR
STARTCHAR uni4FD4
ENCODING 20436
SWIDTH 1000 0
DWIDTH 14 0
BBX 13 13 0 -1
BITMAP
1410
17F8
1410
27F0
2410
67F0
A410
27F0
2550
2140
2248
2448
3838
ENDCHAR
STARTCHAR uni4FD6
ENCODING 20438
SWIDTH 1000 0
DWIDTH 14 0
BBX 13 13 0 -1
BITMAP
1010
17F8
1080
21A0
2290
6498
A888
23F0
2210
2210
2210
23F0
2210
ENDCHAR
STARTCHAR uni4FD7
ENCODING 20439
SWIDTH 1000 0
DWIDTH 14 0
BBX 13 13 0 -1
BITMAP
1120
1110
1208
2488
20C0
6120
A210
2C08
23F0
2210
2210
23F0
2210
ENDCHAR
STARTCHAR uni4FD8
ENCODING 20440
SWIDTH 1000 0
DWIDTH 14 0
BBX 13 13 0 -1
BITMAP
1060
1F90
1910
24A0
2000
6FF0
A040
2090
2FF8
2080
2080
2380
2100
ENDCHAR
STARTCHAR uni4FD9
ENCODING 20441
SWIDTH 1000 0
DWIDTH 14 0
BBX 13 13 0 -1
BITMAP
1630
11C0
1630
2100
2FF8
6140
A240
27F8
2A48
2248
2278
2250
2040
ENDCHAR
STARTCHAR uni4FDA
ENCODING 20442
SWIDTH 1000 0
DWIDTH 14 0
BBX 13 13 0 -1
BITMAP
1410
17F8
1490
2490
27F0
6490
A490
27F0
2080
27F0
2080
2080
2FF8
ENDCHAR
STARTCHAR uni4FDB
ENCODING 20443
SWIDTH 1000 0
DWIDTH 14 0
BBX 13 13 0 -1
BITMAP
1240
13E0
1440
2480
2FF0
6490
A490
27F0
2550
2140
2248
2448
2838
ENDCHAR
STARTCHAR uni4FDC
ENCODING 20444
SWIDTH 1000 0
DWIDTH 14 0
BBX 13 13 0 -1
BITMAP
1090
17F8
1490
27F0
2490
67F0
A000
2FF8
2200
27F0
2020
21E0
2040
ENDCHAR
STARTCHAR uni4FDD
ENCODING 20445
SWIDTH 1000 0
DWIDTH 14 0
BBX 13 13 0 -1
BITMAP
1410
17F8
1410
2410
27F0
6490
A080
3FF8
21C0
22A0
2490
2898
3088
ENDCHAR
STARTCHAR uni4FDE
ENCODING 20446
SWIDTH 1000 0
DWIDTH 14 0
BBX 13 13 0 -1
BITMAP
0700
0880
3040
CFB8
0000
3E10
2290
3E90
2290
3E90
2290
2270
2E20
ENDCHAR
STARTCHAR uni4FDF
ENCODING 20447
SWIDTH 1000 0
DWIDTH 14 0
BBX 13 13 0 -1
BITMAP
1880
1120
17F0
2208
2100
63F0
A480
2080
2FF8
2080
2140
2238
2C10
ENDCHAR
STARTCHAR uni4FE0
ENCODING 20448
SWIDTH 1000 0
DWIDTH 14 0
BBX 13 13 0 -1
BITMAP
1080
1090
1FF8
2080
2490
6490
A6B0
29C8
3088
2140
2220
2410
2808
ENDCHAR
STARTCHAR uni4FE1
ENCODING 20449
SWIDTH 1000 0
DWIDTH 14 0
BBX 13 13 0 -1
BITMAP
1180
1080
1FF8
2000
27F0
6000
A7F0
2000
27F0
2410
2410
27F0
2410
ENDCHAR
STARTCHAR uni4FE3
ENCODING 20451
SWIDTH 1000 0
DWIDTH 14 0
BBX 13 13 0 -1
BITMAP
1410
17F8
1410
27F0
2410
6000
A7F0
2080
2FF8
2080
2140
2238
2C10
ENDCHAR
STARTCHAR uni4FE6
ENCODING 20454
SWIDTH 1000 0
DWIDTH 14 0
BBX 13 13 0 -1
BITMAP
1100
1FF8
1100
2FF0
2200
6FF8
A220
27F8
2A20
3120
2020
20E0
2040
ENDCHAR
STARTCHAR uni4FE8
ENCODING 20456
SWIDTH 1000 0
DWIDTH 14 0
BBX 13 13 0 -1
BITMAP
17F0
1140
1948
2550
27F8
6400
A400
2400
2400
2400
2400
2800
3000
ENDCHAR
STARTCHAR uni4FE9
ENCODING 20457
SWIDTH 1000 0
DWIDTH 14 0
BBX 13 13 0 -1
BITMAP
1010
1FF8
1140
2140
27F8
6548
A548
2568
26D8
2688
2488
2438
2410
ENDCHAR
STARTCHAR uni4FEA
ENCODING 20458
SWIDTH 1000 0
DWIDTH 14 0
BBX 13 13 0 -1
BITMAP
1010
1FF8
1000
2000
2F78
6948
AD48
2968
2B58
2948
2948
2948
2B58
ENDCHAR
STARTCHAR uni4FEC
ENCODING 20460
SWIDTH 1000 0
DWIDTH 14 0
BBX 13 13 0 -1
BITMAP
1120
13A0
1E20
2220
2FA0
6220
A340
26C0
2A40
3290
2288
23F8
2288
ENDCHAR
STARTCHAR uni4FED
ENCODING 20461
SWIDTH 1000 0
DWIDTH 14 0
BBX 13 13 0 -1
BITMAP
1080
1080
1140
2220
2410
6BE8
A000
2110
2490
2290
2220
2040
2FF8
ENDCHAR
STARTCHAR uni4FEE
ENCODING 20462
SWIDTH 1000 0
DWIDTH 14 0
BBX 13 13 0 -1
BITMAP
1100
1100
11F0
2AA0
2C40
69B8
AE50
2880
2B20
2848
2B90
2060
2780
ENDCHAR
STARTCHAR uni4FEF
ENCODING 20463
SWIDTH 1000 0
DWIDTH 14 0
BBX 13 13 0 -1
BITMAP
10C0
1440
17F8
2510
2510
65F8
A710
2590
2550
2550
2910
2970
3120
ENDCHAR
STARTCHAR uni4FF1
ENCODING 20465
SWIDTH 1000 0
DWIDTH 14 0
BBX 13 13 0 -1
BITMAP
1220
13F0
1220
23E0
2220
63E0
A220
23E0
2220
3FF8
2000
2660
3818
ENDCHAR
STARTCHAR uni4FF3
ENCODING 20467
SWIDTH 1000 0
DWIDTH 14 0
BBX 13 13 0 -1
BITMAP
1140
1140
1140
2F78
2140
6140
A770
2140
2140
2F78
2140
2140
2140
ENDCHAR
STARTCHAR uni4FF4
ENCODING 20468
SWIDTH 1000 0
DWIDTH 14 0
BBX 13 13 0 -1
BITMAP
1140
1120
1FF8
2120
20C8
6328
AC58
2120
2FF8
2120
20C8
2348
2C38
ENDCHAR
STARTCHAR uni4FF5
ENCODING 20469
SWIDTH 1000 0
DWIDTH 14 0
BBX 13 13 0 -1
BITMAP
1080
1090
1FF8
2080
27F0
6080
AFF8
2290
26A0
2A40
32B0
2718
2208
ENDCHAR
STARTCHAR uni4FF6
ENCODING 20470
SWIDTH 1000 0
DWIDTH 14 0
BBX 13 13 0 -1
BITMAP
1410
14F8
1750
2450
2450
7FD0
A450
2D50
34A0
24A0
2450
2488
2D08
ENDCHAR
STARTCHAR uni4FF7
ENCODING 20471
SWIDTH 1000 0
DWIDTH 14 0
BBX 13 13 0 -1
BITMAP
2A88
2FF8
2AA8
2AA8
2EA8
6AA8
AAF8
2E80
2A80
2A88
2A88
3288
2678
ENDCHAR
STARTCHAR uni4FF8
ENCODING 20472
SWIDTH 1000 0
DWIDTH 14 0
BBX 13 13 0 -1
BITMAP
1080
1FF0
1080
27F0
2100
6FF8
A2A0
2490
2BE8
2080
2FF8
2080
2080
ENDCHAR
STARTCHAR uni4FFA
ENCODING 20474
SWIDTH 1000 0
DWIDTH 14 0
BBX 13 13 0 -1
BITMAP
1100
1110
1FF8
2240
24A0
6FF0
B4A8
27E0
24A0
27E8
2088
2088
2078
ENDCHAR
STARTCHAR uni4FFE
ENCODING 20478
SWIDTH 1000 0
DWIDTH 14 0
BBX 13 13 0 -1
BITMAP
1180
1110
17F8
2490
27F0
6490
A7F0
2510
2240
2FF8
2040
2040
2040
ENDCHAR
STARTCHAR uni5000
ENCODING 20480
SWIDTH 1000 0
DWIDTH 14 0
BBX 13 13 0 -1
BITMAP
1210
13F8
1200
23E0
2200
63E0
A200
2FF8
2288
2250
22A0
2710
2208
ENDCHAR
STARTCHAR uni5005
ENCODING 20485
SWIDTH 1000 0
DWIDTH 14 0
BBX 13 13 0 -1
BITMAP
1180
1080
1FF8
2220
2220
6650
A988
2000
2080
2FF8
2080
2080
2080
ENDCHAR
STARTCHAR uni5006
ENCODING 20486
SWIDTH 1000 0
DWIDTH 14 0
BBX 13 13 0 -1
BITMAP
1010
1FF8
1080
2080
2FF8
6888
AAA8
2AA8
2DD8
2898
2888
28B8
2890
ENDCHAR
STARTCHAR uni5007
ENCODING 20487
SWIDTH 1000 0
DWIDTH 14 0
BBX 13 13 0 -1
BITMAP
1180
1888
1FF8
2808
2410
67F0
A550
2950
3550
2270
2248
2448
3838
ENDCHAR
STARTCHAR uni5009
ENCODING 20489
SWIDTH 1000 0
DWIDTH 14 0
BBX 13 13 0 -1
BITMAP
0300
0480
0A40
3138
DFD0
1040
1FC0
1040
1FC0
1000
2FE0
4820
8FE0
ENDCHAR
STARTCHAR uni500B
ENCODING 20491
SWIDTH 1000 0
DWIDTH 14 0
BBX 13 13 0 -1
BITMAP
1000
17F8
1488
2488
27F8
6488
A5E8
2528
2528
25E8
2408
27F8
2408
ENDCHAR
STARTCHAR uni500C
ENCODING 20492
SWIDTH 1000 0
DWIDTH 14 0
BBX 13 13 0 -1
BITMAP
1180
1080
1FF8
2808
23E0
6220
A3E0
2220
2200
23F0
2210
23F0
2210
ENDCHAR
STARTCHAR uni500D
ENCODING 20493
SWIDTH 1000 0
DWIDTH 14 0
BBX 13 13 0 -1
BITMAP
1180
1080
17F8
2220
2120
6140
AFF8
2000
23F0
2210
2210
23F0
2210
ENDCHAR
STARTCHAR uni500E
ENCODING 20494
SWIDTH 1000 0
DWIDTH 14 0
BBX 13 13 0 -1
BITMAP
1140
1140
17F0
2550
2550
67F0
A550
2550
2FF8
2000
2220
2418
3808
ENDCHAR
STARTCHAR uni500F
ENCODING 20495
SWIDTH 1000 0
DWIDTH 14 0
BBX 13 13 0 -1
BITMAP
1100
11F0
1110
2AA0
2840
69B8
AE10
28A0
2FF8
2880
2140
2238
2C10
ENDCHAR
STARTCHAR uni5011
ENCODING 20497
SWIDTH 1000 0
DWIDTH 14 0
BBX 13 13 0 -1
BITMAP
2F78
2948
2F78
2948
2F78
6948
A808
2808
2808
2808
2848
2838
2810
ENDCHAR
STARTCHAR uni5012
ENCODING 20498
SWIDTH 1000 0
DWIDTH 14 0
BBX 13 13 0 -1
BITMAP
1008
1FC8
1208
2528
28A8
6FA8
A228
2228
2FA8
2228
2388
2E38
2410
ENDCHAR
STARTCHAR uni5013
ENCODING 20499
SWIDTH 1000 0
DWIDTH 14 0
BBX 13 13 0 -1
BITMAP
1088
1490
14A0
2880
2360
6C98
A080
2490
25A0
2940
2240
2438
3810
ENDCHAR
STARTCHAR uni5014
ENCODING 20500
SWIDTH 1000 0
DWIDTH 14 0
BBX 13 13 0 -1
BITMAP
1410
17F8
1410
27F0
2440
6550
A550
25F0
2440
2648
2A48
2BF8
3208
ENDCHAR
STARTCHAR uni5015
ENCODING 20501
SWIDTH 1000 0
DWIDTH 14 0
BBX 13 13 0 -1
BITMAP
1020
1070
1780
2080
27F0
62A0
AFF8
22A0
22A0
2FF8
2080
2080
27F0
ENDCHAR
STARTCHAR uni5016
ENCODING 20502
SWIDTH 1000 0
DWIDTH 14 0
BBX 13 13 0 -1
BITMAP
1080
1080
17F0
2080
2FF8
6220
A140
27F0
2080
2FF8
2080
2080
2080
ENDCHAR
STARTCHAR uni5017
ENCODING 20503
SWIDTH 1000 0
DWIDTH 14 0
BBX 13 13 0 -1
BITMAP
1000
1F78
1948
2948
2F78
6948
A948
2F78
2948
2948
2948
37B8
2210
ENDCHAR
STARTCHAR uni5018
ENCODING 20504
SWIDTH 1000 0
DWIDTH 14 0
BBX 13 13 0 -1
BITMAP
1080
1498
1290
22A0
27F8
6408
A5E8
2528
2528
25E8
2528
2438
2410
ENDCHAR
STARTCHAR uni5019
ENCODING 20505
SWIDTH 1000 0
DWIDTH 14 0
BBX 13 13 0 -1
BITMAP
13E0
1020
1020
2FF8
2900
69F0
AA40
2840
2FF8
2840
28A0
2310
2C08
ENDCHAR
STARTCHAR uni501A
ENCODING 20506
SWIDTH 1000 0
DWIDTH 14 0
BBX 13 13 0 -1
BITMAP
1080
1090
17F8
2140
2220
6FF8
A010
2790
2490
2790
2490
2070
2020
ENDCHAR
STARTCHAR uni501B
ENCODING 20507
SWIDTH 1000 0
DWIDTH 14 0
BBX 13 13 0 -1
BITMAP
1220
1220
1FF8
2220
23E0
6220
A3E0
2220
2220
2FF8
2000
2660
3818
ENDCHAR
STARTCHAR uni501C
ENCODING 20508
SWIDTH 1000 0
DWIDTH 14 0
BBX 13 13 0 -1
BITMAP
17F8
1408
1488
27E8
2488
67F8
A408
25E8
2528
25E8
2408
2838
3010
ENDCHAR
STARTCHAR uni501E
ENCODING 20510
SWIDTH 1000 0
DWIDTH 14 0
BBX 13 13 0 -1
BITMAP
1180
1080
1FF8
2000
27F0
6410
A410
27F0
2080
22A0
2490
2B98
3108
ENDCHAR
STARTCHAR uni501F
ENCODING 20511
SWIDTH 1000 0
DWIDTH 14 0
BBX 13 13 0 -1
BITMAP
1220
1220
17F8
2220
2220
6FF8
A000
27F0
2410
27F0
2410
27F0
2410
ENDCHAR
STARTCHAR uni5020
ENCODING 20512
SWIDTH 1000 0
DWIDTH 14 0
BBX 13 13 0 -1
BITMAP
1280
1240
1440
27F8
2440
6FF0
B440
2440
27F0
2440
2440
27F8
2400
ENDCHAR
ENDFONT
